<svg id="Capa_1" enable-background="new 0 0 512 512" height="512" viewBox="0 0 512 512" width="512" xmlns="http://www.w3.org/2000/svg"><g><path d="m256 22c-135.31 0-245 109.69-245 245 0 34.684 7.219 67.677 20.22 97.576h1v-106.576c0-2.206 1.794-4 4-4h152c2.206 0 4 1.794 4 4v155.784h256.771l3.921-1c30.211-40.738 48.088-91.171 48.088-145.784 0-135.31-109.69-245-245-245z" fill="#d8ecfe"/><g><g><g><g><path d="m308 336.88v30.438h44.966c3.612-13.823 13.614-25.084 26.645-30.438z" fill="#fe646f"/></g><path d="m488.583 336.88h-74.694c13.032 5.354 23.034 16.615 26.645 30.438h40.466c5.523 0 10-4.477 10-10v-19.438z" fill="#fe646f"/></g><path d="m472 289.5h18.241l.759-1v-15.302c0-2.451-.368-4.874-1.068-7.198l-1.404-1h-130.461c-2.206 0-4-1.794-4-4v-57c0-2.206 1.794-4 4-4h90.313l.552-1-7.993-12.731c-1.829-2.914-5.028-4.683-8.469-4.683h-105.941v156.294h50.815c5.885-2.805 12.464-4.381 19.406-4.381s13.521 1.575 19.406 4.381h74.844v-14.38l-.537-1h-18.463c-2.206 0-4-1.794-4-4v-25c0-2.206 1.794-4 4-4z" fill="#fd4755"/><path d="m378.067 200.433-1-1.433h-19c-2.761 0-5 2.239-5 5v57c0 2.761 2.239 5 5 5h19l1-1.767z" fill="#c41926"/><path d="m272.838 93h-216.766c-5.523 0-10 4.477-10 10v151h142.148c2.206 0 4 1.794 4 4v42.22h111.78c2.206 0 4 1.794 4 4v33.661h19.529v-188.297c-27.23-7.074-48.517-29.007-54.691-56.584z" fill="#fed402"/><path d="m88 253v-150c0-5.523 4.477-10 10-10h-41.928c-5.523 0-10 4.477-10 10v150z" fill="#fac600"/><g><g><path d="m265 217.88h-156.399c-5.523 0-10-4.477-10-10v-46.88c0-5.523 4.477-10 10-10h156.399c5.523 0 10 4.477 10 10v46.88c0 5.523-4.477 10-10 10z" fill="#fff"/></g></g><path d="m130 207.88v-46.88c0-5.523 4.477-10 10-10h-31.399c-5.523 0-10 4.477-10 10v46.88c0 5.523 4.477 10 10 10h31.399c-5.523 0-10-4.477-10-10z" fill="#f3f0ff"/><path d="m366.575 413.784h60.35c9.838-8.481 16.075-21.025 16.075-35.034 0-25.543-20.707-46.25-46.25-46.25s-46.25 20.707-46.25 46.25c0 14.009 6.236 26.553 16.075 35.034z" fill="#9182b0"/><path d="m365.441 412.784h16.506c-9.188-8.449-14.947-20.566-14.947-34.034 0-22.726 16.395-41.609 38-45.502-2.679-.483-5.433-.749-8.25-.749-25.543 0-46.25 20.707-46.25 46.25 0 13.466 5.758 25.583 14.941 34.035z" fill="#7a6d98"/><g><circle cx="396.75" cy="378.75" fill="#cfcae4" r="24.75"/></g><g><circle cx="396.75" cy="378.75" fill="#fff" r="13.25"/></g><path d="m394 378.75c0-5.441 3.299-10.123 8-12.16-1.611-.698-3.385-1.09-5.25-1.09-7.306 0-13.25 5.944-13.25 13.25s5.943 13.25 13.25 13.25c1.865 0 3.639-.392 5.25-1.09-4.701-2.038-8-6.719-8-12.16z" fill="#f3f0ff"/></g></g><g><g><g><circle cx="346.5" cy="76.5" fill="#9182b0" r="76.5"/></g><path d="m310.656 115.439c-10.503-9.673-17.088-23.535-17.088-38.939s6.585-29.266 17.088-38.939c10.884-18.358 29.217-31.781 50.844-36.081-4.851-.965-9.865-1.48-15-1.48-42.25 0-76.5 34.25-76.5 76.5s34.25 76.5 76.5 76.5c5.135 0 10.149-.515 15-1.48-21.627-4.3-39.96-17.723-50.844-36.081z" fill="#7a6d98"/><g><circle cx="346.5" cy="76.5" fill="#fff" r="52.932"/></g><path d="m314.136 76.5c0-25.714 18.338-47.137 42.648-51.925-3.328-.655-6.764-1.007-10.284-1.007-29.233 0-52.932 23.698-52.932 52.932s23.698 52.932 52.932 52.932c3.52 0 6.957-.352 10.284-1.007-24.31-4.788-42.648-26.211-42.648-51.925z" fill="#f3f0ff"/></g><g><path d="m374.006 84.304h-27.81c-2.049 0-4.008-.838-5.423-2.319l-26.038-27.254c-2.861-2.995-2.753-7.743.242-10.604 2.992-2.861 7.74-2.753 10.604.242l23.822 24.935h24.603c4.143 0 7.5 3.358 7.5 7.5s-3.358 7.5-7.5 7.5z" fill="#a79bc6"/></g><g><circle cx="346.5" cy="76.5" fill="#9182b0" r="12.893"/></g></g><g><path d="m304 299.22h-111.78v114.564h116.78v-109.564c0-2.762-2.239-5-5-5z" fill="#d88a55"/><path d="m193.22 299.22h22v113.564h-22z" fill="#c57a44"/><g><path d="m262.11 338.528h-22c-2.761 0-5-2.239-5-5v-34.308h32v34.308c0 2.761-2.239 5-5 5z" fill="#fe646f"/></g><path d="m248 333.528v-34.308h-12.89v34.308c0 2.761 2.239 5 5 5h12.89c-2.761 0-5-2.239-5-5z" fill="#fd4755"/></g><g><path d="m386.639 292h-30.571c-1.657 0-3-1.343-3-3v-10c0-1.657 1.343-3 3-3h30.571c1.657 0 3 1.343 3 3v10c0 1.657-1.343 3-3 3z" fill="#c41926"/></g><g><path d="m487.173 259.904-38.24-60.904h-71.866v67h112.865c-.642-2.135-1.562-4.189-2.759-6.096z" fill="#fff"/></g><path d="m377.068 199h22.068v67h-22.068z" fill="#f3f0ff"/><g><g><path d="m193.22 258c0-2.761-2.239-5-5-5h-152c-2.761 0-5 2.239-5 5v106.576c7.47 17.18 16.843 33.342 27.867 48.208l3.921 1h130.212z" fill="#f6a96c"/></g><g><path d="m62 258c0-2.761 2.239-5 5-5h-30.78c-2.761 0-5 2.239-5 5v106.576c7.47 17.18 16.843 33.342 27.867 48.208l2.913.743z" fill="#ea9b58"/></g><g><path d="m127.22 308h-30c-2.761 0-5-2.239-5-5v-50h40v50c0 2.761-2.239 5-5 5z" fill="#fe646f"/></g><path d="m107 303v-50h-14.78v50c0 2.761 2.239 5 5 5h14.78c-2.761 0-5-2.239-5-5z" fill="#fd4755"/></g><g><path d="m99.645 450-5.392 1c43.152 37.964 99.755 61 161.746 61s118.595-23.036 161.746-61l-5.392-1z" fill="#b5add5"/></g><g><path d="m59.087 412.784c10.347 13.952 22.143 26.762 35.163 38.216h323.5c13.02-11.454 24.816-24.264 35.163-38.216z" fill="#cfcae4"/></g><g><path d="m491 288.5h-19c-2.761 0-5 2.239-5 5v25c0 2.761 2.239 5 5 5h19z" fill="#fff"/></g></g></svg>