<svg id="Capa_1" enable-background="new 0 0 512 512" height="512" viewBox="0 0 512 512" width="512" xmlns="http://www.w3.org/2000/svg"><g><g><g><g><g><g><g><circle cx="256" cy="256" fill="#7584f2" r="256"/></g></g></g></g></g></g><path d="m512 256c0-7.254-.302-14.438-.894-21.539l-91.437-91.437-46.664 27.32-100.005-100.006-5.597 97.471-175.073 9.215 34.114 34.114-42.172 145.738 154.787 154.572c5.6.366 11.249.552 16.941.552 141.385 0 256-114.615 256-256z" fill="#4253ce"/><g><g><path d="m180.142 326.498-34.585-140.832-34.585 140.832-29.135-7.156 42.809-174.318h41.822l42.809 174.318z" fill="#ffb600"/></g><g><path d="m167.064 373.978h-43.014c-30.272 0-54.812-24.54-54.812-54.811v-14.384h152.637v14.384c0 30.271-24.54 54.811-54.811 54.811z" fill="#ffce00"/></g><g><path d="m401.028 326.498-34.585-140.832-34.585 140.832-29.135-7.156 42.809-174.318h41.822l42.809 174.318z" fill="#ff9500"/></g><g><path d="m387.95 373.978h-43.014c-30.272 0-54.812-24.54-54.812-54.811v-14.384h152.637v14.384c.001 30.271-24.539 54.811-54.811 54.811z" fill="#ffb600"/></g></g><g><path d="m92.33 143.024h327.34v34h-327.34z" fill="#ffce00"/></g><g><path d="m256.266 143.024h163.404v34h-163.404z" fill="#ffb600"/></g><g><path d="m239 70.338h34v85.357h-34z" fill="#ffce00"/></g><g><path d="m256.266 70.338h16.734v85.357h-16.734z" fill="#ffb600"/></g></g></svg>