<svg id="Capa_1" enable-background="new 0 0 501.173 501.173" height="512" viewBox="0 0 501.173 501.173" width="512" xmlns="http://www.w3.org/2000/svg"><g><g><path d="m482.039 232.011-115.714 47.96c-6.311-15.19-15.556-28.987-27.203-40.601l88.612-88.612c23.292 23.232 41.749 50.848 54.305 81.253z" fill="#f7be56"/><path d="m501.173 327.932h-125.306c.043-16.463-3.201-32.768-9.541-47.96l115.714-47.96c12.655 30.394 19.158 62.996 19.133 95.92z" fill="#e56353"/><path d="m501.173 327.932c.01 32.923-6.492 65.522-19.134 95.92l-115.714-47.96c6.318-15.2 9.56-31.5 9.541-47.96z" fill="#d15241"/><path d="m134.796 375.892-115.816 47.96c-12.565-30.415-19.015-63.009-18.98-95.92h125.255c-.018 16.46 3.225 32.76 9.541 47.96z" fill="#44c4a1"/><path d="m427.735 150.707-88.612 88.612c-11.625-11.635-25.419-20.878-40.601-27.203l47.96-115.765c30.377 12.634 57.983 31.101 81.253 54.356z" fill="#fcd462"/><path d="m250.561 77.321v125.306c16.456-.036 32.757 3.189 47.96 9.49l47.96-115.765c-30.412-12.583-63.006-19.051-95.92-19.031z" fill="#2d93ba"/><path d="m250.561 77.321v125.306c-16.456-.036-32.757 3.189-47.96 9.49l-47.96-115.765c30.412-12.588 63.007-19.056 95.92-19.031z" fill="#27a2db"/><path d="m202.601 212.117c-15.208 6.301-29.01 15.564-40.601 27.254l-88.612-88.612c23.244-23.277 50.835-41.762 81.203-54.406z" fill="#d5d6db"/><path d="m134.796 279.972c-6.34 15.192-9.585 31.497-9.541 47.96h-125.255c-.051-32.912 6.399-65.508 18.981-95.92z" fill="#3ea69b"/><path d="m162 239.371c-11.651 11.612-20.896 25.409-27.203 40.601l-115.816-47.96c12.62-30.382 31.107-57.975 54.406-81.203z" fill="#e1e6e9"/><path d="m290.046 290.427c-15.809-15.903-41.516-15.98-57.418-.171s-15.98 41.516-.171 57.418c15.809 15.903 41.516 15.98 57.418.171.057-.057.115-.113.171-.171 15.742-15.835 15.742-41.411 0-57.247z" fill="#d5d6db"/><path d="m250.003 380.866 130.026-179.255c1.275-1.402 1.174-3.572-.228-4.847s-3.572-1.174-4.847.228l-173.115 136.116c-3.41 2.647-4.028 7.557-1.381 10.967.206.266.431.52.67.757l36.998 36.947c3.039 3.064 7.988 3.086 11.052.046.302-.297.578-.617.825-.959z" fill="#e1e6e9"/></g></g></svg>