<?xml version="1.0" encoding="UTF-8"?>
<svg xmlns="http://www.w3.org/2000/svg" xmlns:xlink="http://www.w3.org/1999/xlink" width="50pt" height="50pt" viewBox="0 0 50 50" version="1.1">
<g id="surface1">
<path style=" stroke:none;fill-rule:nonzero;fill:rgb(33.333333%,34.117647%,32.54902%);fill-opacity:1;" d="M 25 3.84375 C 20.84375 3.84375 16.964844 5.058594 13.691406 7.140625 L 9.269531 2.714844 L 9.269531 15.109375 L 21.664062 15.109375 L 16.742188 10.1875 C 19.1875 8.816406 22 8.019531 25 8.019531 C 34.363281 8.019531 41.980469 15.636719 41.980469 25 C 41.980469 27.230469 41.535156 29.355469 40.75 31.308594 L 44.394531 33.433594 C 45.523438 30.847656 46.152344 27.996094 46.152344 25 C 46.152344 13.335938 36.664062 3.84375 25 3.84375 Z M 25 3.84375 "/>
<path style=" stroke:none;fill-rule:nonzero;fill:rgb(33.333333%,34.117647%,32.54902%);fill-opacity:1;" d="M 33.25 39.804688 C 30.804688 41.179688 28 41.980469 25 41.980469 C 15.636719 41.980469 8.023438 34.363281 8.023438 25 C 8.023438 22.894531 8.425781 20.882812 9.128906 19.023438 L 5.488281 16.828125 C 4.429688 19.34375 3.847656 22.105469 3.847656 25 C 3.847656 36.664062 13.335938 46.152344 25 46.152344 C 29.160156 46.152344 33.027344 44.933594 36.300781 42.855469 L 40.730469 47.285156 L 40.730469 34.890625 L 28.335938 34.890625 Z M 33.25 39.804688 "/>
</g>
</svg>
