<?xml version="1.0" standalone="no"?>
<!DOCTYPE svg PUBLIC "-//W3C//DTD SVG 20010904//EN"
 "http://www.w3.org/TR/2001/REC-SVG-20010904/DTD/svg10.dtd">
<svg version="1.0" xmlns="http://www.w3.org/2000/svg"
 width="512.000000pt" height="512.000000pt" viewBox="0 0 512.000000 512.000000"
 preserveAspectRatio="xMidYMid meet">

<g transform="translate(0.000000,512.000000) scale(0.100000,-0.100000)"
fill="#000000" stroke="none">
<path d="M3517 4736 c-78 -28 -140 -89 -165 -165 -17 -48 -16 -569 0 -624 16
-53 83 -125 133 -142 l40 -13 3 -128 c4 -201 15 -202 227 -19 85 74 166 137
178 140 12 2 153 6 312 7 270 3 293 4 335 24 58 26 108 76 134 134 20 42 21
62 21 325 l0 280 -27 51 c-34 64 -88 110 -152 129 -70 21 -981 21 -1039 1z
m1085 -61 c28 -20 52 -49 71 -84 l27 -55 0 -267 0 -267 -28 -53 c-20 -39 -41
-62 -77 -84 l-48 -30 -311 -5 c-233 -4 -317 -8 -334 -18 -13 -8 -88 -70 -167
-138 -79 -68 -151 -124 -159 -124 -13 0 -16 22 -18 132 l-3 133 -30 13 c-62
27 -79 38 -106 72 -43 54 -51 120 -47 399 3 214 6 251 22 283 24 49 62 87 111
109 37 18 72 19 547 16 l506 -2 44 -30z"/>
<path d="M3685 4335 c-48 -76 -84 -143 -81 -151 4 -10 25 -14 80 -14 l75 0 3
-47 c2 -35 7 -48 18 -48 11 0 16 13 18 45 2 28 9 50 20 58 16 12 16 14 0 26
-15 11 -18 33 -20 136 -2 81 -7 125 -14 127 -7 2 -51 -57 -99 -132z m75 -45
l0 -80 -50 0 c-27 0 -50 4 -50 8 0 10 90 152 96 152 2 0 4 -36 4 -80z"/>
<path d="M3968 4454 c-46 -25 -58 -61 -58 -181 0 -91 3 -113 20 -141 39 -63
125 -77 185 -30 41 32 55 77 55 173 0 97 -14 141 -55 173 -33 26 -105 29 -147
6z m113 -29 c40 -21 49 -50 49 -161 0 -92 -1 -97 -29 -125 -48 -47 -121 -35
-146 26 -18 40 -20 168 -4 213 6 18 23 36 42 46 40 20 51 20 88 1z"/>
<path d="M4357 4373 c-116 -179 -117 -179 -104 -192 6 -6 43 -11 83 -11 l73 0
3 -47 c2 -35 7 -48 18 -48 10 0 16 12 18 40 1 22 8 50 14 63 9 18 9 25 0 31
-7 4 -12 50 -14 131 -2 87 -7 125 -15 127 -7 3 -41 -39 -76 -94z m53 -83 l0
-80 -56 0 -56 0 20 33 c57 96 78 126 85 127 4 0 7 -36 7 -80z"/>
<path d="M1940 4529 c-81 -33 -92 -137 -19 -175 l29 -15 0 -133 0 -133 -28 -6
c-38 -8 -82 -44 -98 -82 -10 -24 -23 -34 -56 -44 -63 -19 -120 -56 -175 -112
-97 -100 -144 -218 -146 -364 -1 -205 102 -384 269 -466 l68 -34 203 -3 c192
-3 203 -5 203 -23 0 -12 -9 -21 -27 -25 -94 -20 -201 -66 -260 -110 -27 -21
-43 -24 -110 -24 -43 0 -95 -5 -116 -11 -52 -14 -114 -72 -128 -119 -9 -31
-18 -40 -48 -49 -131 -39 -242 -186 -305 -403 -26 -89 -56 -268 -56 -331 0
-53 -11 -97 -25 -97 -6 0 -21 -10 -33 -23 -28 -30 -29 -80 -1 -108 20 -20 20
-22 5 -60 -9 -22 -16 -48 -16 -58 0 -10 -20 -38 -44 -62 -83 -84 -106 -189
-106 -495 0 -163 -4 -222 -16 -264 -30 -101 -83 -162 -179 -207 -57 -26 -68
-28 -197 -28 -75 0 -140 -3 -144 -7 -23 -24 150 -45 244 -29 176 29 291 139
321 306 6 33 10 152 9 265 -1 261 18 356 90 432 33 35 44 35 65 -2 17 -29 36
-38 50 -23 4 3 -4 21 -18 39 -30 39 -22 44 63 44 95 0 125 -18 87 -50 -8 -7
-15 -19 -15 -26 0 -23 27 -16 50 14 l22 27 28 -33 c38 -46 50 -95 50 -209 l0
-101 -30 -12 c-47 -19 -90 -75 -90 -115 0 -33 2 -35 35 -35 35 0 35 0 35 -45
0 -33 4 -45 15 -45 11 0 15 12 15 45 0 45 0 45 35 45 35 0 35 0 35 -45 0 -33
4 -45 15 -45 11 0 15 12 15 44 0 44 0 45 38 48 35 3 37 5 35 37 -2 43 -29 81
-75 104 l-35 17 -5 118 c-6 128 -17 168 -67 224 -24 28 -31 45 -31 77 0 23 -5
51 -11 62 -9 17 -6 25 15 44 34 32 35 83 3 113 -13 12 -31 22 -41 22 -16 0
-17 7 -11 68 20 202 54 343 108 445 32 62 101 132 104 106 12 -94 41 -143 92
-154 l28 -6 6 -257 c3 -174 10 -286 21 -347 56 -304 164 -541 319 -697 l77
-78 0 -122 c0 -142 14 -182 88 -256 140 -140 357 -129 492 24 59 67 70 105 70
241 l0 122 61 58 c138 131 237 334 295 607 24 110 27 149 31 412 l5 291 34 12
c40 14 71 61 80 121 l7 43 24 -29 c72 -88 112 -240 128 -496 6 -93 5 -98 -13
-98 -29 0 -61 -31 -68 -66 -4 -23 0 -37 20 -61 25 -30 25 -31 9 -72 -13 -34
-14 -48 -5 -80 14 -45 48 -91 68 -91 20 0 17 14 -11 56 -29 42 -32 82 -10 124
15 29 19 30 80 30 85 0 110 -11 124 -53 13 -40 5 -70 -35 -123 -23 -29 -24
-35 -10 -40 16 -6 45 21 73 70 15 26 16 76 3 111 -9 23 -6 32 15 57 39 46 30
95 -24 122 l-28 15 -6 153 c-9 239 -53 402 -143 538 -46 70 -87 107 -156 141
-31 15 -49 33 -63 62 -11 24 -38 54 -63 71 -38 27 -52 31 -140 34 -82 4 -101
8 -128 28 -48 37 -151 80 -236 99 -64 14 -78 20 -78 36 0 18 10 19 193 19 217
0 265 9 352 64 264 170 302 580 75 808 -56 56 -163 118 -202 118 -11 0 -23 14
-32 33 -16 40 -59 76 -98 84 l-28 6 0 133 c0 128 1 134 23 145 60 31 74 97 32
147 -46 55 -133 44 -159 -20 -20 -46 -9 -84 30 -116 l34 -27 0 -132 c0 -120
-2 -133 -17 -133 -31 0 -83 -39 -100 -75 l-17 -35 -268 0 c-239 0 -268 2 -268
16 0 25 -64 83 -99 90 l-31 7 0 131 0 131 34 27 c42 34 53 75 31 118 -13 25
-69 63 -87 59 -2 0 -14 -5 -28 -10z m70 -49 c39 -39 14 -100 -41 -100 -56 0
-82 73 -37 104 30 21 54 20 78 -4z m842 3 c39 -35 13 -103 -39 -103 -57 0 -82
61 -43 100 24 24 57 26 82 3z m-811 -466 c19 -12 35 -30 37 -40 3 -15 -8 -17
-108 -17 -100 0 -111 2 -108 17 5 27 67 63 108 63 22 0 51 -9 71 -23z m863
-18 l30 -34 -113 -3 c-63 -1 -116 -1 -118 2 -9 9 18 46 45 61 18 10 44 14 76
11 41 -3 55 -9 80 -37z m46 -80 c158 -25 282 -143 334 -318 20 -67 21 -207 2
-277 -35 -132 -124 -240 -244 -297 l-67 -32 -540 -3 c-362 -2 -561 1 -606 8
-159 27 -291 162 -334 341 -62 263 97 539 332 579 73 12 1046 12 1123 -1z
m-420 -1007 c0 -55 -20 -80 -82 -107 -66 -27 -143 -12 -195 37 -18 17 -23 33
-23 70 l0 48 150 0 150 0 0 -48z m-319 -69 c13 -21 42 -48 64 -61 34 -19 51
-22 117 -20 68 3 80 6 115 34 21 17 44 43 51 57 15 31 27 32 107 12 208 -53
326 -176 386 -400 17 -65 22 -124 29 -320 15 -482 -21 -709 -155 -981 -89
-180 -210 -295 -346 -330 -46 -12 -98 -15 -208 -12 -140 3 -149 4 -214 35
-217 103 -398 448 -447 853 -18 144 -8 665 14 750 55 210 190 351 388 404 73
20 72 20 99 -21z m-391 -109 c0 -3 -11 -20 -24 -37 -61 -80 -125 -261 -126
-352 -1 -79 -33 -98 -74 -42 -19 26 -21 42 -21 182 0 140 2 156 21 182 40 54
80 73 155 73 38 0 69 -3 69 -6z m1317 -20 c53 -39 63 -74 63 -232 0 -154 -10
-194 -51 -207 -26 -9 -39 8 -39 53 0 46 -28 175 -51 237 -10 28 -35 77 -54
109 -19 32 -35 61 -35 63 0 3 31 3 70 1 49 -2 77 -9 97 -24z m225 -212 c108
-115 169 -314 185 -604 l6 -118 -61 0 -62 0 0 83 c0 244 -69 483 -162 562 -26
22 -28 30 -28 95 l0 70 38 -19 c21 -10 58 -41 84 -69z m-1822 3 c0 -36 -4 -65
-9 -65 -4 0 -28 -18 -53 -40 -103 -90 -170 -299 -191 -590 l-2 -35 -57 -3 -58
-3 0 35 c0 63 30 269 51 346 56 213 147 353 264 406 51 23 55 20 55 -51z
m2063 -776 c21 -12 22 -52 2 -69 -19 -16 -221 -6 -242 12 -17 14 -17 55 1 65
19 11 216 4 239 -8z m-2253 -9 c20 -20 18 -47 -4 -62 -6 -4 -59 -8 -118 -8
-109 0 -138 9 -138 45 0 35 29 45 136 45 90 0 107 -3 124 -20z m-24 -145 c24
-58 20 -69 -23 -59 -21 5 -73 9 -115 8 -86 -1 -90 3 -63 56 15 30 16 30 101
30 l85 0 15 -35z m195 -534 c16 -16 29 -34 29 -40 0 -7 -35 -11 -100 -11 -112
0 -123 9 -69 54 44 37 101 36 140 -3z m659 -233 c49 -20 73 -22 220 -22 146 0
171 3 220 22 30 12 58 22 63 22 4 0 7 -50 7 -110 0 -90 -4 -118 -19 -148 -28
-54 -88 -107 -155 -138 -51 -23 -68 -26 -130 -22 -122 8 -225 81 -260 186 -16
47 -23 232 -8 232 4 0 32 -10 62 -22z"/>
<path d="M1775 3766 c-40 -17 -102 -88 -128 -145 -14 -32 -22 -74 -25 -138 -7
-156 44 -275 139 -323 37 -19 61 -20 634 -20 661 0 633 -3 696 67 53 58 73
127 73 248 1 166 -44 263 -139 306 -37 17 -80 19 -630 18 -464 0 -596 -3 -620
-13z m1240 -38 c74 -40 104 -107 112 -244 10 -164 -43 -276 -142 -303 -27 -7
-228 -11 -600 -11 -525 0 -563 2 -601 19 -83 38 -126 130 -126 271 0 142 60
252 152 279 22 6 248 9 605 8 509 -2 573 -4 600 -19z"/>
<path d="M1894 3526 c-28 -28 -34 -42 -34 -76 0 -68 69 -122 136 -106 15 4 39
20 55 36 43 42 41 100 -5 146 -28 28 -42 34 -76 34 -34 0 -48 -6 -76 -34z
m122 -19 c70 -61 -5 -160 -87 -116 -45 24 -42 105 4 127 34 17 54 14 83 -11z"/>
<path d="M2747 3539 c-15 -11 -32 -37 -38 -58 -15 -50 8 -103 56 -125 42 -20
70 -20 106 1 97 57 57 203 -56 203 -28 0 -51 -7 -68 -21z m118 -34 c70 -69
-30 -170 -102 -103 -14 13 -23 33 -23 50 0 36 40 78 75 78 14 0 37 -11 50 -25z"/>
<path d="M2321 3402 c-45 -22 -72 -61 -74 -103 l-2 -34 150 0 150 0 -1 38 c-3
90 -130 147 -223 99z m158 -48 c56 -47 44 -54 -84 -54 -75 0 -115 4 -115 11 0
6 13 24 29 40 25 25 37 29 84 29 45 0 61 -5 86 -26z"/>
<path d="M2116 2295 c-56 -20 -86 -44 -124 -99 -93 -138 -79 -333 33 -447 65
-67 73 -69 362 -69 292 0 309 4 372 75 92 105 111 276 46 404 -30 60 -102 126
-151 140 -60 17 -489 14 -538 -4z m547 -39 c46 -19 86 -63 116 -126 22 -46 26
-69 26 -140 0 -73 -4 -93 -28 -142 -33 -66 -81 -113 -134 -127 -48 -14 -466
-14 -514 -1 -46 13 -106 71 -133 129 -17 37 -21 65 -21 146 0 89 3 106 27 150
28 54 56 84 103 108 41 22 508 25 558 3z"/>
<path d="M2263 2104 c-4 -10 10 -32 41 -63 l46 -47 -45 -44 c-25 -24 -45 -50
-45 -56 0 -31 26 -23 71 22 l49 48 49 -48 c45 -45 71 -53 71 -22 0 6 -20 32
-45 56 l-45 44 45 46 c25 25 45 51 45 57 0 28 -23 21 -70 -23 l-50 -47 -50 47
c-55 51 -58 53 -67 30z"/>
<path d="M2236 671 c-11 -18 24 -32 71 -29 36 2 49 7 51 21 3 15 -5 17 -57 17
-33 0 -62 -4 -65 -9z"/>
<path d="M2444 669 c-12 -20 13 -30 67 -27 42 2 55 7 57 21 3 15 -5 17 -57 17
-33 0 -63 -5 -67 -11z"/>
<path d="M2235 560 c-13 -21 8 -30 66 -30 52 0 60 2 57 18 -2 13 -15 18 -60
20 -32 2 -59 -2 -63 -8z"/>
<path d="M2445 560 c-13 -21 11 -31 66 -28 40 2 54 7 54 18 0 19 -109 28 -120
10z"/>
</g>
</svg>
