<svg height="511pt" viewBox="-23 1 511 511.999" width="511pt" xmlns="http://www.w3.org/2000/svg"><path d="m465.5 121.382812v56.5c0 73.730469-22.101562 144.734376-63.902344 205.324219-38.238281 55.429688-90.949218 98.8125-152.417968 125.441407-5.140626 2.230468-10.660157 3.351562-16.179688 3.351562s-11.039062-1.121094-16.191406-3.351562c-61.46875-26.640626-114.167969-70.019532-152.410156-125.441407-41.808594-60.589843-63.898438-131.59375-63.898438-205.324219v-56.5c0-17.371093 11-32.820312 27.371094-38.441406 25.707031-8.839844 46.320312-29.5625 55.117187-55.441406 5.589844-16.449219 21-27.5 38.332031-27.5h223.359376c17.328124 0 32.738281 11.050781 38.328124 27.5 8.800782 25.882812 29.410157 46.601562 55.121094 55.441406 16.371094 5.621094 27.371094 21.070313 27.371094 38.441406zm0 0" fill="#0085a9"/><path d="m465.5 121.382812v56.5c0 73.730469-22.101562 144.734376-63.902344 205.324219-38.238281 55.429688-90.949218 98.8125-152.417968 125.441407-5.140626 2.230468-10.660157 3.351562-16.179688 3.351562v-512h111.679688c17.328124 0 32.738281 11.050781 38.328124 27.5 8.800782 25.882812 29.410157 46.601562 55.121094 55.441406 16.371094 5.621094 27.371094 21.070313 27.371094 38.441406zm0 0" fill="#00608d"/><path d="m233 89.050781c-34.582031 0-62.71875 28.132813-62.71875 62.710938v72.722656h125.4375v-72.722656c0-34.578125-28.140625-62.710938-62.71875-62.710938zm32.71875 115.433594h-65.4375v-52.722656c0-18.039063 14.679688-32.710938 32.71875-32.710938s32.71875 14.671875 32.71875 32.710938zm0 0" fill="#fff"/><path d="m295.71875 151.761719v72.722656h-62.71875v-20h32.71875v-52.722656c0-18.039063-14.679688-32.710938-32.71875-32.710938v-30c34.578125 0 62.71875 28.132813 62.71875 62.710938zm0 0" fill="#f2e1df"/><path d="m332.859375 230.605469v86.332031c0 37.097656-30.179687 67.269531-67.269531 67.269531h-65.179688c-37.089844 0-67.269531-30.171875-67.269531-67.269531v-86.332031c0-19.910157 16.199219-36.121094 36.117187-36.121094h127.480469c19.921875 0 36.121094 16.210937 36.121094 36.121094zm0 0" fill="#ffc837"/><path d="m332.859375 230.605469v86.332031c0 37.097656-30.179687 67.269531-67.269531 67.269531h-32.589844v-189.722656h63.738281c19.921875 0 36.121094 16.210937 36.121094 36.121094zm0 0" fill="#fbb13e"/><path d="m248 275.175781v28.339844c0 8.289063-6.71875 15-15 15s-15-6.710937-15-15v-28.339844c0-8.28125 6.71875-15 15-15s15 6.71875 15 15zm0 0" fill="#fff"/><path d="m248 275.175781v28.339844c0 8.289063-6.71875 15-15 15v-58.339844c8.28125 0 15 6.71875 15 15zm0 0" fill="#f2e1df"/></svg>