<svg viewBox="0 0 512 512" xmlns="http://www.w3.org/2000/svg"><path d="m512 45v75l-30 30h-452l-30-30v-75c0-24.902344 20.097656-45 45-45h422c24.902344 0 45 20.097656 45 45zm0 0" fill="#ff7816"/><path d="m512 45v75l-30 30h-226v-150h211c24.902344 0 45 20.097656 45 45zm0 0" fill="#ff4b00"/><path d="m512 120v347c0 24.898438-20.097656 45-45 45h-422c-24.902344 0-45-20.101562-45-45v-347zm0 0" fill="#ececf1"/><path d="m512 120v347c0 24.898438-20.097656 45-45 45h-211v-392zm0 0" fill="#e2e2e7"/><g fill="#ececf1"><path d="m452 75c0 8.402344-6.597656 15-15 15h-181c-8.402344 0-15-6.597656-15-15s6.597656-15 15-15h181c8.402344 0 15 6.597656 15 15zm0 0"/><path d="m89.972656 75c0 8.285156-6.71875 15-15 15-8.285156 0-15-6.714844-15-15s6.714844-15 15-15c8.28125 0 15 6.714844 15 15zm0 0"/><path d="m150.972656 75c0 8.285156-6.71875 15-15 15-8.285156 0-15-6.714844-15-15s6.714844-15 15-15c8.28125 0 15 6.714844 15 15zm0 0"/><path d="m210.972656 75c0 8.285156-6.71875 15-15 15-8.285156 0-15-6.714844-15-15s6.714844-15 15-15c8.28125 0 15 6.714844 15 15zm0 0"/></g><path d="m437 90h-181v-30h181c8.402344 0 15 6.597656 15 15s-6.597656 15-15 15zm0 0" fill="#e2e2e7"/><path d="m382.300781 337-21.601562-12.601562c.300781-2.699219.300781-5.699219.300781-8.398438s0-5.699219-.300781-8.402344l21.601562-12.597656c7.199219-4.199219 9.898438-13.199219 5.699219-20.398438l-30-52.203124c-2.097656-3.300782-5.402344-5.699219-9.300781-6.898438-3.601563-.898438-7.796875-.601562-11.398438 1.5l-21.902343 12.898438c-4.796876-3.300782-9.296876-6-14.398438-8.398438v-25.5c0-8.402344-6.597656-15-15-15h-60c-8.398438 0-15 6.597656-15 15v25.5c-5.097656 2.398438-9.597656 5.097656-14.398438 8.398438l-21.902343-12.898438c-3.601563-2.101562-7.796875-2.402344-11.398438-1.5-3.898437 1.199219-7.203125 3.597656-9.300781 6.898438l-30 52.203124c-4.199219 7.199219-1.5 16.199219 5.699219 20.398438l21.601562 12.597656c-.300781 2.703125-.300781 5.703125-.300781 8.402344s0 5.699219.300781 8.398438l-21.601562 12.601562c-7.199219 4.199219-9.898438 13.199219-5.699219 20.398438l30 52.203124c2.097656 3.296876 5.402344 5.699219 9.300781 6.898438 3.601563.898438 7.796875.300781 11.398438-1.5l21.902343-12.902344c4.796876 3.300782 9.296876 6 14.398438 8.398438v25.503906c0 8.398438 6.597656 15 15 15h60c8.398438 0 15-6.601562 15-15v-25.5c5.097656-2.398438 9.597656-5.101562 14.398438-8.398438l21.902343 12.898438c3.597657 1.800781 7.796875 2.402344 11.398438 1.5 3.898437-1.199219 7.199219-3.601562 9.300781-6.898438l30-52.199218c4.199219-7.203125 1.5-16.203125-5.699219-20.402344zm-126.300781 24c-24.902344 0-45-20.101562-45-45 0-24.902344 20.097656-45 45-45s45 20.097656 45 45c0 24.898438-20.097656 45-45 45zm0 0" fill="#46f8ff"/><path d="m388 357.398438-30 52.203124c-2.097656 3.296876-5.402344 5.699219-9.300781 6.898438-3.601563.898438-7.796875.300781-11.398438-1.5l-21.902343-12.902344c-4.796876 3.300782-9.296876 6-14.398438 8.398438v25.503906c0 8.398438-6.597656 15-15 15h-30v-90c24.902344 0 45-20.101562 45-45 0-24.902344-20.097656-45-45-45v-90h30c8.402344 0 15 6.597656 15 15v25.5c5.101562 2.398438 9.601562 5.097656 14.398438 8.398438l21.902343-12.898438c3.601563-2.101562 7.796875-2.402344 11.398438-1.5 3.898437 1.199219 7.203125 3.597656 9.300781 6.898438l30 52.203124c4.199219 7.199219 1.5 16.199219-5.699219 20.398438l-21.601562 12.597656c.300781 2.703125.300781 5.703125.300781 8.402344s0 5.699219-.300781 8.398438l21.601562 12.601562c7.199219 4.199219 9.898438 13.199219 5.699219 20.398438zm0 0" fill="#00e7f0"/></svg>