<svg height="512pt" viewBox="0 0 512 512" width="512pt" xmlns="http://www.w3.org/2000/svg"><path d="m452 60v422l-151-6.902344-181-8.097656c0 24.898438-50.097656 45-75 45-24.300781 0-45-20.101562-45-45v-467h175.300781l30 60zm0 0" fill="#ffb64c"/><path d="m452 60v422l-151-6.902344v-415.097656zm0 0" fill="#ff9100"/><path d="m512 120v332c0 33-27 60-60 60h-407c24.902344 0 45-20.101562 45-45v-347zm0 0" fill="#ffd396"/><path d="m512 120v332c0 33-27 60-60 60h-151v-392zm0 0" fill="#ffb64c"/><path d="m358 255.199219-57 34.199219-41.699219 24.902343-15.300781-25.5 57-34.203125 41.699219-24.898437zm0 0" fill="#596c76"/><path d="m358 378.800781-15.300781 25.5-41.699219-24.902343-57-34.199219 15.300781-25.5 41.699219 24.898437zm0 0" fill="#596c76"/><path d="m301 344.597656 57 34.203125-15.300781 25.5-41.699219-24.902343zm0 0" fill="#465a61"/><path d="m358 255.199219-57 34.199219v-34.800782l41.699219-24.898437zm0 0" fill="#465a61"/><path d="m226 362c-24.8125 0-45-20.1875-45-45s20.1875-45 45-45 45 20.1875 45 45-20.1875 45-45 45zm0 0" fill="#596c76"/><g fill="#465a61"><path d="m376 272c-24.8125 0-45-20.1875-45-45s20.1875-45 45-45 45 20.1875 45 45-20.1875 45-45 45zm0 0"/><path d="m376 452c-24.8125 0-45-20.1875-45-45s20.1875-45 45-45 45 20.1875 45 45-20.1875 45-45 45zm0 0"/></g></svg>