<?xml version="1.0" standalone="no"?>
<!DOCTYPE svg PUBLIC "-//W3C//DTD SVG 1.1//EN" "http://www.w3.org/Graphics/SVG/1.1/DTD/svg11.dtd" >
<svg xmlns="http://www.w3.org/2000/svg" xmlns:xlink="http://www.w3.org/1999/xlink" version="1.1">
<metadata>
Created by FontForge 20170731 at Fri Jul  1 08:29:41 2016
 By Aleksey,,,
Copyright (C) 2016 Shinhan Group and YoonDesign Inc. All rights reserved.
</metadata>
<defs>
<font id="Shinhan-Bold" horiz-adv-x="535" >
  <font-face 
    font-family="Shinhan Bold"
    font-weight="700"
    font-stretch="normal"
    units-per-em="1000"
    panose-1="2 11 8 3 0 0 0 0 0 0"
    ascent="800"
    descent="-200"
    x-height="497"
    cap-height="690"
    bbox="-58 -301 1151 1058"
    underline-thickness="50"
    underline-position="-150"
    unicode-range="U+0020-1EFF"
  />
<missing-glyph horiz-adv-x="278" 
 />
    <glyph glyph-name=".notdef" horiz-adv-x="278" 
 />
    <glyph glyph-name=".null" horiz-adv-x="0" 
 />
    <glyph glyph-name="nonmarkingreturn" horiz-adv-x="278" 
 />
    <glyph glyph-name="space" unicode=" " horiz-adv-x="278" 
 />
    <glyph glyph-name="space" unicode="&#xa0;" horiz-adv-x="278" 
 />
    <glyph glyph-name="exclam" unicode="!" horiz-adv-x="300" 
d="M82 659q-1 20 6.5 28t24.5 8h105l-24 -480h-89zM65 50q0 36 23.5 60t60.5 24t61 -24t24 -60t-24 -60.5t-61 -24.5t-60.5 24.5t-23.5 60.5z" />
    <glyph glyph-name="quotedbl" unicode="&#x22;" horiz-adv-x="340" 
d="M41 437l-19 254q-1 14 4.5 22.5t22.5 8.5h93l-21 -285h-80zM218 437l-19 254q-1 14 4.5 22.5t22.5 8.5h93l-21 -285h-80z" />
    <glyph glyph-name="numbersign" unicode="#" horiz-adv-x="550" 
d="M486 690l-30 -204h85v-77h-96l-18 -129h85v-77h-96l-29 -203h-102l29 203h-109l-29 -203h-102l29 203h-94v77h105l18 129h-94v77h105l25 171q2 17 10 25t27 8h70l-30 -204h109l25 171q2 17 10 25t27 8h70zM216 280h109l18 129h-109z" />
    <glyph glyph-name="dollar" unicode="$" horiz-adv-x="545" 
d="M233 789h84v-81q81 -7 151 -37v-109q0 -12 -9 -15.5t-18 4.5q-32 27 -65 41t-69 18v-208q15 -8 30 -15t29 -14q34 -17 61.5 -35.5t46 -42t28.5 -54.5t10 -71q0 -43 -14.5 -75.5t-40.5 -55t-62 -36t-78 -19.5v-87h-84v84q-39 2 -78 11t-69 22t-47 29t-11 32l28 72
q38 -31 90.5 -49t96.5 -20v217q-35 17 -66.5 34t-60.5 43q-35 30 -57 69t-22 94q0 72 51 119t145 55v80zM366 168q0 31 -13 53t-46 42v-177q28 10 43.5 30t15.5 52zM183 535q0 -26 9.5 -44.5t26.5 -32.5q10 -11 24 -18v167q-60 -14 -60 -72z" />
    <glyph glyph-name="percent" unicode="%" horiz-adv-x="880" 
d="M577 680q8 14 19 20.5t28 6.5h85l-442 -735h-116zM145 526q0 -53 16 -74t48 -21t48 21t16 74t-16 74t-48 21t-48 -21t-16 -74zM38 526q0 85 48 125t123 40t123 -40t48 -125t-48 -125t-123 -40t-123 40t-48 125zM587 155q0 -53 16 -74t48 -21t48 21t16 74t-16 74t-48 21
t-48 -21t-16 -74zM480 155q0 85 48 125t123 40t123 -40t48 -125t-48 -125t-123 -40t-123 40t-48 125z" />
    <glyph glyph-name="ampersand" unicode="&#x26;" horiz-adv-x="705" 
d="M726 58l-15 -66q-2 -6 -14.5 -9t-31 -2t-41 5.5t-44.5 12.5q-17 6 -38 17.5t-41 25.5q-42 -29 -92 -45t-101 -16q-58 0 -109.5 14.5t-90.5 43t-61.5 71.5t-22.5 100q0 61 35.5 119t101.5 99q-34 43 -43.5 72.5t-9.5 57.5q0 29 13.5 56.5t39 48.5t61.5 34t80 13
q54 0 97 -8t76 -20v-105q0 -13 -8.5 -16t-18.5 5q-30 24 -61 36t-71 12q-32 0 -54 -15t-22 -46q0 -15 4.5 -27.5t13 -24.5t20.5 -26t28 -33l201 -238q21 33 37 73t29 95h108q-10 -64 -34.5 -129t-65.5 -121q32 -26 71.5 -44t73.5 -20zM309 77q63 0 118 40l-197 230
q-35 -24 -54.5 -62.5t-19.5 -74.5q0 -69 42 -101t111 -32z" />
    <glyph glyph-name="quotesingle" unicode="'" horiz-adv-x="200" 
d="M59 437l-19 254q-1 14 4.5 22.5t22.5 8.5h93l-21 -285h-80z" />
    <glyph glyph-name="parenleft" unicode="(" horiz-adv-x="335" 
d="M176 324q0 -91 7 -155.5t18.5 -109t26.5 -71.5t31 -42.5t31.5 -22t28.5 -9.5v-73q-50 0 -98.5 21.5t-87.5 76t-63 148t-24 237.5t24 236.5t63 146.5t87.5 75t98.5 21v-73q-13 -3 -28.5 -9.5t-31.5 -21.5t-31 -42t-26.5 -71t-18.5 -108.5t-7 -153.5z" />
    <glyph glyph-name="parenright" unicode=")" horiz-adv-x="335" 
d="M159 324q0 89 -7 153.5t-18.5 108.5t-26.5 71t-31 42t-31.5 21.5t-28.5 9.5v73q49 0 98 -21t88 -75t63 -146.5t24 -236.5t-24 -237.5t-63 -148t-88 -76t-98 -21.5v73q13 3 28.5 9.5t31.5 22t31 42.5t26.5 71.5t18.5 109.5t7 155z" />
    <glyph glyph-name="asterisk" unicode="*" horiz-adv-x="540" 
d="M502 460l-184 21l112 -143l-92 -57l-70 169l-75 -166l-95 53l116 145l-177 -16v104l179 -21l-112 145l96 50l68 -165l72 166l95 -53l-115 -145l182 20v-107z" />
    <glyph glyph-name="plus" unicode="+" horiz-adv-x="580" 
d="M228 596h124v-203h201v-102h-201v-221h-124v221h-201v102h201v203z" />
    <glyph glyph-name="comma" unicode="," horiz-adv-x="300" 
d="M27 -168q31 38 45.5 92.5t14.5 107.5v70q0 17 7 23t22 6h107v-68q0 -36 -8.5 -71t-21.5 -66t-29.5 -56.5t-32.5 -41.5q-45 -45 -64 -30z" />
    <glyph glyph-name="hyphen" unicode="-" horiz-adv-x="440" 
d="M27 393h385v-102h-385v102z" />
    <glyph glyph-name="period" unicode="." horiz-adv-x="300" 
d="M64 50q0 36 23.5 60t60.5 24t61 -24t24 -60t-24 -60.5t-61 -24.5t-60.5 24.5t-23.5 60.5z" />
    <glyph glyph-name="slash" unicode="/" horiz-adv-x="350" 
d="M115 -85h-114l233 846h114z" />
    <glyph glyph-name="zero" unicode="0" horiz-adv-x="550" 
d="M275 79q36 0 57.5 23t32.5 60.5t14.5 85t3.5 97.5q0 49 -3.5 97t-14.5 85.5t-32.5 60.5t-57.5 23t-57.5 -23t-32.5 -60.5t-14.5 -85.5t-3.5 -97q0 -50 3.5 -97.5t14.5 -85t32.5 -60.5t57.5 -23zM275 -20q-71 0 -119 31.5t-77 82.5t-41 116.5t-12 134.5t12 134.5t41 116.5
t77 82.5t119 31.5t119 -31.5t77 -82.5t41 -116.5t12 -134.5t-12 -134.5t-41 -116.5t-77 -82.5t-119 -31.5z" />
    <glyph glyph-name="one" unicode="1" horiz-adv-x="425" 
d="M175 0v526q-11 -5 -22.5 -9.5t-19.5 -7.5q-40 -14 -53 -14t-15 6l-22 66q20 10 42.5 24t44 30t40.5 33.5t32 35.5h109v-690h-136z" />
    <glyph glyph-name="two" unicode="2" horiz-adv-x="550" 
d="M241 611q-38 0 -77.5 -14t-77.5 -46q-9 -8 -19 -4.5t-8 15.5l20 113q27 11 69 22t95 13q120 0 186 -54t66 -148q0 -41 -10 -81t-32 -80.5t-56.5 -83t-83.5 -89.5l-78 -75h267v-99h-457v64q0 14 5 24.5t19 25.5l126 127q46 46 76.5 83t49.5 68.5t27 59.5t8 56
q0 54 -30.5 78.5t-84.5 24.5z" />
    <glyph glyph-name="three" unicode="3" horiz-adv-x="550" 
d="M233 611q-34 0 -67.5 -12.5t-66.5 -32.5q-10 -6 -20 -2.5t-7 18.5l17 93q27 11 69 22t95 13q50 0 91.5 -12.5t71 -36.5t46 -59t16.5 -79q0 -49 -25.5 -90.5t-65.5 -61.5q57 -23 88 -71.5t31 -108.5q0 -100 -66 -155.5t-204 -55.5q-45 0 -86 11t-67 25q-29 15 -41.5 25.5
t-7.5 24.5l28 74q45 -32 88.5 -46.5t85.5 -14.5q57 0 94 25.5t37 86.5q0 36 -14 59t-36 36.5t-50 19t-56 5.5h-79v99h83q57 0 90.5 30t33.5 83q0 39 -29 63.5t-77 24.5z" />
    <glyph glyph-name="four" unicode="4" horiz-adv-x="550" 
d="M531 155h-85v-164h-130v164h-303v61q0 19 5 30.5t14 23.5l296 420h118v-433h85v-102zM321 252v152l4 105l-61 -98l-112 -159h169z" />
    <glyph glyph-name="five" unicode="5" horiz-adv-x="550" 
d="M115 328q-20 -8 -30.5 -0.5t-8.5 21.5l30 341h340v-99h-215l-15 -148q9 2 23 2.5t23 0.5q47 0 89.5 -16t75 -46t51.5 -72.5t19 -94.5q0 -53 -16.5 -96.5t-49.5 -74.5t-82.5 -48.5t-115.5 -17.5q-43 0 -82.5 9t-67.5 23q-27 14 -43 28t-11 27l28 70q42 -28 84 -43t86 -15
q65 0 98 36t33 102q0 36 -12 61t-32.5 40.5t-46.5 23t-54 7.5q-21 0 -50 -6.5t-48 -14.5z" />
    <glyph glyph-name="six" unicode="6" horiz-adv-x="550" 
d="M413 612q-51 -11 -89 -32.5t-66 -49t-45.5 -59t-26.5 -62.5q30 15 59.5 22t64.5 7q51 0 92 -19t69 -50.5t43 -73t15 -86.5q0 -51 -17.5 -93.5t-49.5 -72.5t-77.5 -46.5t-102.5 -16.5q-54 0 -100 17.5t-80 53t-53 89.5t-19 127q0 70 17.5 137t53 124t89 100.5t126.5 66.5
q28 9 46.5 10.5t23.5 -11.5zM390 209q0 57 -28 93.5t-81 36.5q-35 0 -62 -10t-47 -26q-1 -4 -1.5 -13t-1 -18.5t-0.5 -18v-12.5q0 -32 6.5 -61t20 -51.5t35 -36t51.5 -13.5q47 0 77.5 34t30.5 96z" />
    <glyph glyph-name="seven" unicode="7" horiz-adv-x="550" 
d="M39 596v94h452v-81l-256 -609h-130l252 596h-318z" />
    <glyph glyph-name="eight" unicode="8" horiz-adv-x="550" 
d="M275 -27q-51 0 -97.5 12.5t-81.5 39.5t-55.5 68.5t-20.5 99.5q0 29 9 56.5t25 51t37.5 42.5t45.5 32q-17 10 -33 24.5t-29 33t-20.5 41.5t-7.5 51q0 46 19.5 82t51.5 60.5t73 37t84 12.5t84 -12.5t73 -37t51.5 -60.5t19.5 -82q0 -28 -7.5 -51t-20.5 -41.5t-29 -33
t-33 -24.5q24 -13 45.5 -32t37.5 -42.5t25 -51t9 -56.5q0 -58 -20.5 -99.5t-55.5 -68.5t-81.5 -39.5t-97.5 -12.5zM275 618q-41 0 -65 -26t-24 -67q0 -16 6 -32t17 -30t28 -25t39 -16q44 11 66 41t22 62q0 41 -24 67t-65 26zM275 72q54 0 85 33t31 87q0 43 -33 78.5
t-85 49.5q-24 -7 -45 -19.5t-36.5 -29.5t-24 -37.5t-8.5 -41.5q0 -54 31 -87t85 -33z" />
    <glyph glyph-name="nine" unicode="9" horiz-adv-x="550" 
d="M141 78q51 11 89 32.5t66 49t45.5 59t26.5 62.5q-30 -15 -59.5 -22t-64.5 -7q-51 0 -92 19t-69 50.5t-43 73t-15 86.5q0 51 17.5 93.5t49.5 72.5t77.5 46.5t102.5 16.5q54 0 100 -17.5t80 -53t53 -89.5t19 -127q0 -71 -17.5 -137.5t-53 -123.5t-89 -100.5t-126.5 -66.5
q-28 -9 -46.5 -10.5t-23.5 11.5zM164 481q0 -57 28 -93.5t81 -36.5q35 0 62 10t47 26q1 4 1.5 13t1 18.5t0.5 18v12.5q0 31 -6.5 60.5t-20 52t-35 36t-51.5 13.5q-47 0 -77.5 -34t-30.5 -96z" />
    <glyph glyph-name="colon" unicode=":" horiz-adv-x="300" 
d="M65 160q0 36 23.5 60t60.5 24t61 -24t24 -60t-24 -60.5t-61 -24.5t-60.5 24.5t-23.5 60.5zM65 530q0 36 23.5 60t60.5 24t61 -24t24 -60t-24 -60.5t-61 -24.5t-60.5 24.5t-23.5 60.5z" />
    <glyph glyph-name="semicolon" unicode=";" horiz-adv-x="300" 
d="M65 530q0 36 23.5 60t60.5 24t61 -24t24 -60t-24 -60.5t-61 -24.5t-60.5 24.5t-23.5 60.5zM27 -68q31 38 45.5 92.5t14.5 107.5v70q0 17 7 23t22 6h107v-68q0 -36 -8.5 -71t-21.5 -66t-29.5 -56.5t-32.5 -41.5q-45 -45 -64 -30z" />
    <glyph glyph-name="less" unicode="&#x3c;" horiz-adv-x="520" 
d="M37 371l446 318v-136l-304 -218l304 -218v-136l-446 318v72z" />
    <glyph glyph-name="equal" unicode="=" horiz-adv-x="500" 
d="M37 503h426v-101h-426v101zM37 284h426v-101h-426v101z" />
    <glyph glyph-name="greater" unicode="&#x3e;" horiz-adv-x="520" 
d="M483 299l-446 -318v136l304 218l-304 218v136l446 -318v-72z" />
    <glyph glyph-name="question" unicode="?" horiz-adv-x="510" 
d="M139 50q0 36 23.5 60t60.5 24t61 -24t24 -60t-24 -60.5t-61 -24.5t-60.5 24.5t-23.5 60.5zM238 715q105 0 162.5 -51t57.5 -145q0 -57 -26 -96t-63 -73q-21 -20 -37.5 -33.5t-27.5 -25.5t-16.5 -26t-5.5 -33v-17h-123v29q0 26 4 45.5t13.5 37t25 34.5t39.5 38
q12 10 24.5 22.5t23.5 27.5t18 33t7 38q0 40 -22.5 66.5t-67.5 26.5q-37 0 -68.5 -13t-63.5 -32q-10 -6 -19.5 -1.5t-6.5 19.5l17 98q32 13 74.5 22t80.5 9z" />
    <glyph glyph-name="at" unicode="@" horiz-adv-x="930" 
d="M350 212q0 -93 68 -93q36 0 63.5 20.5t46 54.5t28 78.5t9.5 92.5q0 84 -68 84q-22 0 -48 -14.5t-48 -44t-36.5 -74t-14.5 -104.5zM777 -79q4 -10 -17.5 -25t-60.5 -29t-91 -24t-109 -10q-120 0 -209 38.5t-148 101.5t-88 144t-29 165q0 93 30.5 175.5t89.5 144t144 97.5
t195 36q94 0 171.5 -30t132.5 -82.5t85.5 -122.5t30.5 -150q0 -76 -17 -132t-48 -92.5t-74 -54.5t-95 -18q-44 0 -73.5 18t-43.5 56q-29 -34 -70.5 -54t-89.5 -20q-36 0 -66 11t-51.5 31t-34 49.5t-12.5 67.5q0 70 21 126t56.5 95.5t83 60.5t100.5 21q36 0 65 -14t44 -41
l31 44h87l-73 -285q-3 -12 -5.5 -29.5t-0.5 -33t11 -27t29 -11.5q23 0 44 12t37 39.5t25.5 71.5t9.5 107q0 57 -18.5 112t-56.5 97.5t-96.5 69t-138.5 26.5q-72 0 -136 -25.5t-111.5 -73t-75 -116.5t-27.5 -156q0 -93 29 -161.5t78.5 -114.5t116 -68.5t141.5 -22.5
q36 0 68 3.5t62.5 11t61 19t63.5 27.5z" />
    <glyph glyph-name="A" unicode="A" horiz-adv-x="660" 
d="M235 578q11 29 9.5 47.5t-9.5 33.5q-17 31 17 31h132l266 -690h-145l-70 192h-214l-69 -192h-143zM258 297h139l-70 199z" />
    <glyph glyph-name="B" unicode="B" horiz-adv-x="605" 
d="M57 690h243q54 0 98 -12t75 -34.5t47.5 -54.5t16.5 -72q0 -102 -78 -148q54 -20 84.5 -61.5t30.5 -110.5q0 -49 -19 -86t-53.5 -61.5t-83 -37t-107.5 -12.5h-241v601q0 23 -4.5 36.5t-17.5 27.5q-8 10 -4.5 17.5t13.5 7.5zM426 205q0 56 -30.5 81t-93.5 25h-88v-213h89
q63 0 93 25.5t30 81.5zM214 409h76q51 0 77 20.5t26 70.5q0 51 -26.5 71.5t-78.5 20.5h-74v-183z" />
    <glyph glyph-name="C" unicode="C" horiz-adv-x="650" 
d="M378 607q-50 0 -87 -19t-61 -53.5t-36 -82.5t-12 -106q0 -128 53 -195.5t148 -67.5q49 0 95.5 14.5t97.5 52.5l33 -68q5 -11 -9.5 -28t-45 -33.5t-76.5 -28.5t-104 -12q-82 0 -145 26t-106 74t-65 115.5t-22 150.5q0 82 22 149t64 115t103.5 74t141.5 26q129 0 223 -47
v-109q0 -14 -8.5 -17t-19.5 5q-41 29 -84 47t-100 18z" />
    <glyph glyph-name="D" unicode="D" horiz-adv-x="705" 
d="M57 690h265q72 0 135 -20.5t110.5 -62.5t74.5 -107t27 -155t-27 -155t-74.5 -107t-110.5 -62.5t-135 -20.5h-252v601q0 23 -4.5 36.5t-17.5 27.5q-8 10 -4.5 17.5t13.5 7.5zM300 103q66 0 109 17.5t69 49.5t36.5 76.5t10.5 98.5t-10.5 98.5t-36.5 76.5t-69 49.5
t-109 17.5h-86v-484h86z" />
    <glyph glyph-name="E" unicode="E" 
d="M70 0v601q0 23 -4.5 36.5t-17.5 27.5q-8 10 -4.5 17.5t13.5 7.5h424v-103h-267v-190h243v-103h-243v-191h287v-103h-431z" />
    <glyph glyph-name="F" unicode="F" horiz-adv-x="510" 
d="M57 690h424v-103h-267v-190h243v-103h-243v-294h-144v601q0 23 -4.5 36.5t-17.5 27.5q-8 10 -4.5 17.5t13.5 7.5z" />
    <glyph glyph-name="G" unicode="G" horiz-adv-x="725" 
d="M517 107v148q0 21 -5 34.5t-17 27.5q-8 10 -4.5 17.5t13.5 7.5h157v-254q0 -22 -23 -41.5t-60.5 -34.5t-85.5 -23.5t-97 -8.5q-181 0 -270 94t-89 275q0 78 20.5 144t63 114.5t107.5 75.5t154 27q66 0 126.5 -12.5t109.5 -35.5v-107q0 -14 -8.5 -17t-19.5 5
q-39 29 -90 46.5t-107 17.5q-59 0 -99.5 -20t-65.5 -54.5t-36 -81.5t-11 -102q0 -128 51 -197t165 -69q33 0 64 6.5t57 17.5z" />
    <glyph glyph-name="H" unicode="H" horiz-adv-x="685" 
d="M615 690v-690h-144v305h-257v-305h-144v601q0 23 -4.5 36.5t-17.5 27.5q-8 10 -4.5 17.5t13.5 7.5h157v-279h257v279h144z" />
    <glyph glyph-name="I" unicode="I" horiz-adv-x="335" 
d="M99 0v601q0 23 -4.5 36.5t-17.5 27.5q-8 10 -4.5 17.5t13.5 7.5h157v-690h-144z" />
    <glyph glyph-name="J" unicode="J" horiz-adv-x="434" 
d="M55 690h297v-412q0 -75 -22 -132.5t-61.5 -96.5t-94 -59t-118.5 -20q-25 0 -31 20l-21 73q100 8 152 51.5t52 135.5v337h-153v103z" />
    <glyph glyph-name="K" unicode="K" horiz-adv-x="635" 
d="M70 0v601q0 23 -4.5 36.5t-17.5 27.5q-8 10 -4.5 17.5t13.5 7.5h157v-287l235 286h163l-245 -301l265 -388h-154l-196 286q-13 18 -24 26t-28 8h-16v-320h-144z" />
    <glyph glyph-name="L" unicode="L" horiz-adv-x="510" 
d="M214 690v-584h272v-106h-416v601q0 23 -4.5 36.5t-17.5 27.5q-8 10 -4.5 17.5t13.5 7.5h157z" />
    <glyph glyph-name="M" unicode="M" horiz-adv-x="860" 
d="M486 30h-112l-144 399l-25 76l3 -81v-424h-138v611q-1 17 -6 29t-16 25q-8 10 -4.5 17.5t13.5 7.5h191l182 -497l182 497h178v-690h-138v424l3 81l-25 -76z" />
    <glyph glyph-name="N" unicode="N" horiz-adv-x="695" 
d="M70 0v601q0 23 -4.5 36.5t-17.5 27.5q-8 10 -4.5 17.5t13.5 7.5h153l210 -365l70 -129l-9 149v345h144v-690h-142l-213 375l-64 123l8 -153v-345h-144z" />
    <glyph glyph-name="O" unicode="O" horiz-adv-x="780" 
d="M744 345q0 -81 -23 -148.5t-68 -115.5t-111 -74.5t-152 -26.5t-152 26.5t-111 74.5t-68 115.5t-23 148.5t23 148.5t68 115.5t111 74.5t152 26.5t152 -26.5t111 -74.5t68 -115.5t23 -148.5zM180 345q0 -127 56.5 -194.5t153.5 -67.5t153.5 67.5t56.5 194.5t-56.5 194.5
t-153.5 67.5t-153.5 -67.5t-56.5 -194.5z" />
    <glyph glyph-name="P" unicode="P" horiz-adv-x="590" 
d="M57 690h281q55 0 97.5 -15.5t71.5 -44t44 -69t15 -89.5q0 -99 -59 -158.5t-169 -59.5h-124v-254h-144v601q0 23 -4.5 36.5t-17.5 27.5q-8 10 -4.5 17.5t13.5 7.5zM214 357h88q57 0 88.5 28t31.5 87t-31.5 87t-88.5 28h-88v-230z" />
    <glyph glyph-name="Q" unicode="Q" horiz-adv-x="780" 
d="M744 345q0 -65 -15 -121.5t-44 -101.5t-72 -77t-99 -48q18 -21 38.5 -40.5t44.5 -36.5q32 -23 68 -39t71 -24l-19 -69q-2 -7 -14.5 -11.5t-41.5 0.5q-48 9 -91 29.5t-82 48t-74 60.5t-67 67q-76 7 -134 36t-97.5 76t-59.5 111t-20 140q0 81 23 148.5t68 115.5t111 74.5
t152 26.5t152 -26.5t111 -74.5t68 -115.5t23 -148.5zM180 345q0 -127 56.5 -194.5t153.5 -67.5t153.5 67.5t56.5 194.5t-56.5 194.5t-153.5 67.5t-153.5 -67.5t-56.5 -194.5z" />
    <glyph glyph-name="R" unicode="R" horiz-adv-x="600" 
d="M57 690h246q63 0 108 -15.5t73.5 -43t42 -64.5t13.5 -80q0 -75 -31.5 -122t-89.5 -64l194 -301h-151l-176 278q-7 11 -22 11h-50v-289h-144v601q0 23 -4.5 36.5t-17.5 27.5q-8 10 -4.5 17.5t13.5 7.5zM214 387h77q106 0 106 100t-106 100h-77v-200z" />
    <glyph glyph-name="S" unicode="S" horiz-adv-x="540" 
d="M56 147q20 -16 44.5 -29t51 -22t52 -13.5t47.5 -4.5q54 0 84.5 22.5t30.5 67.5q0 34 -16.5 58t-60.5 47q-50 25 -92.5 45.5t-80.5 53.5q-35 30 -57 69t-22 94q0 39 15.5 71t44.5 55t71.5 36t95.5 13q59 0 108.5 -9.5t95.5 -29.5v-109q0 -12 -9 -15.5t-18 4.5
q-38 32 -76.5 46.5t-83.5 14.5q-47 0 -72.5 -20.5t-25.5 -56.5q0 -26 9.5 -44.5t26.5 -32.5q33 -27 72 -47.5t75 -37.5q34 -17 61.5 -35.5t46 -42t28.5 -54.5t10 -71q0 -51 -20 -87t-55 -59t-82.5 -33.5t-101.5 -10.5q-40 0 -82.5 8.5t-76.5 22.5t-53 30.5t-13 33.5z" />
    <glyph glyph-name="T" unicode="T" horiz-adv-x="550" 
d="M23 690h503v-106h-179v-584h-144v584h-180v106z" />
    <glyph glyph-name="U" unicode="U" horiz-adv-x="724" 
d="M70 601q0 23 -4.5 36.5t-17.5 27.5q-8 10 -4.5 17.5t13.5 7.5h157v-442q0 -76 35.5 -119t112.5 -43q76 0 112 43t36 119v442h144v-454q0 -65 -22 -113.5t-61 -80t-92.5 -47t-116.5 -15.5t-116.5 15.5t-92.5 47t-61 80t-22 113.5v365z" />
    <glyph glyph-name="V" unicode="V" horiz-adv-x="690" 
d="M324 246l28 -100l28 100l145 444h148l-234 -690h-175l-207 611q-5 16 -14 29t-19 23t-7.5 18.5t12.5 8.5h149z" />
    <glyph glyph-name="W" unicode="W" horiz-adv-x="898" 
d="M45 604q-5 23 -14 36t-19 23t-7.5 18.5t12.5 8.5h159l74 -381l19 -130l25 127l95 369h123l95 -368l25 -127l18 127l76 383h150l-157 -690h-152l-93 364l-23 106l-24 -107l-93 -363h-152z" />
    <glyph glyph-name="X" unicode="X" horiz-adv-x="620" 
d="M386 352l224 -352h-158l-143 230l-138 -230h-162l223 352l-169 263q-13 20 -21.5 29.5t-18.5 18.5q-11 10 -8 18.5t13 8.5h148l133 -219l134 219h160z" />
    <glyph glyph-name="Y" unicode="Y" horiz-adv-x="650" 
d="M328 387l160 303h155l-242 -434v-256h-146v255l-192 346q-12 23 -24.5 37.5t-23.5 24.5t-8 18.5t13 8.5h148z" />
    <glyph glyph-name="Z" unicode="Z" horiz-adv-x="530" 
d="M207 103h294v-103h-474v74l299 513h-285v103h454v-76q0 -19 -6 -31.5t-12 -23.5z" />
    <glyph glyph-name="bracketleft" unicode="[" horiz-adv-x="360" 
d="M79 798h241v-73h-111v-806h111v-73h-241v952z" />
    <glyph glyph-name="backslash" unicode="\" horiz-adv-x="350" 
d="M1 761h114l233 -846h-114z" />
    <glyph glyph-name="bracketright" unicode="]" horiz-adv-x="360" 
d="M260 -154h-241v73h111v806h-111v73h241v-952z" />
    <glyph glyph-name="asciicircum" unicode="^" horiz-adv-x="580" 
d="M238 798h104l182 -345h-119l-115 222l-115 -222h-119z" />
    <glyph glyph-name="underscore" unicode="_" horiz-adv-x="410" 
d="M10 -145h390v-102h-390v102z" />
    <glyph glyph-name="grave" unicode="`" horiz-adv-x="260" 
d="M234 489h-79l-129 285h141z" />
    <glyph glyph-name="a" unicode="a" horiz-adv-x="545" 
d="M345 222h-89q-51 0 -73 -21.5t-22 -56.5q0 -29 16.5 -47t47.5 -18q36 0 66.5 15.5t53.5 41.5v86zM260 420q-41 0 -80.5 -15t-69.5 -35q-15 -10 -23 -5.5t-8 19.5v93q19 9 43 15.5t49.5 11.5t50.5 7.5t47 2.5q103 0 159 -40t56 -123v-351h-136v54q-29 -36 -68.5 -53
t-84.5 -17q-37 0 -68 11.5t-53 32.5t-34.5 50t-12.5 64q0 80 56 126t174 46h88v37q0 37 -21.5 53t-63.5 16z" />
    <glyph glyph-name="b" unicode="b" horiz-adv-x="600" 
d="M324 514q56 0 101.5 -18t78 -52.5t50 -83.5t17.5 -112q0 -58 -17 -106.5t-47.5 -83.5t-72.5 -54.5t-93 -19.5q-40 0 -77.5 16.5t-63.5 50.5v-51h-136v621q0 23 -4.5 36.5t-17.5 27.5q-8 10 -4.5 17.5t13.5 7.5h152v-230q21 14 52 24t69 10zM302 417q-29 0 -55.5 -11
t-43.5 -25v-242q19 -25 47 -41.5t62 -16.5q23 0 45 9t38.5 29.5t26.5 52t10 76.5q0 169 -130 169z" />
    <glyph glyph-name="c" unicode="c" horiz-adv-x="500" 
d="M301 417q-33 0 -58 -13t-41.5 -35.5t-25 -53t-8.5 -65.5q0 -76 34 -122.5t100 -46.5q38 0 72.5 9t67.5 31l28 -68q4 -10 -9.5 -22t-38 -22.5t-57 -17.5t-66.5 -7q-64 0 -114 20t-84.5 55.5t-53 84.5t-18.5 106q0 58 19.5 106.5t54.5 83.5t84.5 54.5t109.5 19.5
q46 0 82.5 -10t71.5 -27v-88q0 -14 -7.5 -16t-18.5 5q-31 20 -60 29.5t-64 9.5z" />
    <glyph glyph-name="d" unicode="d" horiz-adv-x="600" 
d="M536 709v-709h-136v51q-26 -34 -63.5 -50.5t-77.5 -16.5q-51 0 -93 19.5t-72.5 54.5t-47.5 83.5t-17 106.5q0 63 17.5 112t50 83.5t78 52.5t101.5 18q38 0 69 -10t52 -24v140q0 23 -4.5 36.5t-17.5 27.5q-8 10 -4.5 17.5t13.5 7.5h152zM298 417q-130 0 -130 -169
q0 -45 10 -76.5t26.5 -52t38.5 -29.5t45 -9q34 0 62 16.5t47 41.5v242q-17 14 -43.5 25t-55.5 11z" />
    <glyph glyph-name="e" unicode="e" horiz-adv-x="540" 
d="M169 214q5 -70 39 -102.5t98 -32.5q35 0 73 7.5t75 29.5l21 -60q4 -13 -10 -25.5t-40.5 -23t-63 -17t-76.5 -6.5q-51 0 -97.5 15t-81.5 47t-56 81.5t-21 119.5q0 49 15 97t45 86t76.5 61t109.5 23q57 0 101 -20.5t74 -56t45.5 -83.5t15.5 -103v-37h-342zM371 306
q-2 22 -7.5 42.5t-17 36.5t-29 25t-42.5 9t-44 -9.5t-32.5 -25.5t-21 -36t-8.5 -42h202z" />
    <glyph glyph-name="f" unicode="f" horiz-adv-x="390" 
d="M98 400h-87v97h87v121q0 59 42 95t111 36q29 0 53 -3.5t56 -12.5v-84q0 -14 -8.5 -15t-14.5 3q-13 8 -26.5 11.5t-30.5 3.5q-19 0 -31 -12t-12 -38v-105h114v-97h-114v-400h-139v400z" />
    <glyph glyph-name="g" unicode="g" horiz-adv-x="590" 
d="M503 326q0 -39 -15.5 -73.5t-44.5 -60t-72.5 -40t-98.5 -14.5q-36 0 -67 6q-24 -27 -24 -55q0 -20 11 -30.5t37 -10.5h99q48 0 89 -10.5t70.5 -31t46 -51.5t16.5 -71q0 -86 -68.5 -130.5t-199.5 -44.5q-134 0 -202.5 45t-68.5 121q0 45 22.5 76.5t58.5 53.5
q-33 31 -33 77q0 30 15 56t43 42q-38 26 -57 63.5t-19 82.5q0 39 15.5 73t44.5 59.5t72 40.5t99 15q42 0 76.5 -8.5t61.5 -23.5q23 11 50 16t45 5q21 0 37 -1.5t33 -5.5v-89q0 -7 -5 -10.5t-14 0.5q-11 5 -22.5 7.5t-25.5 2.5q-6 0 -12 -0.5t-11 -1.5q18 -36 18 -79z
M150 -121q0 -37 28.5 -57.5t103.5 -20.5q74 0 101.5 22t27.5 60q0 34 -18 54.5t-69 20.5h-95q-12 0 -23.5 1t-22.5 3q-19 -20 -26 -42t-7 -41zM364 326q0 45 -23.5 70.5t-68.5 25.5t-68.5 -25.5t-23.5 -70.5t23.5 -70.5t68.5 -25.5t68.5 25.5t23.5 70.5z" />
    <glyph glyph-name="h" unicode="h" horiz-adv-x="585" 
d="M51 710h152v-247q28 24 62.5 37.5t76.5 13.5t76 -11.5t58 -32.5t37 -50t13 -64v-356h-139v337q0 74 -80 74q-27 0 -52.5 -11t-51.5 -31v-369h-139v621q0 23 -4.5 36.5t-17.5 27.5q-8 10 -4.5 17.5t13.5 7.5z" />
    <glyph glyph-name="i" unicode="i" horiz-adv-x="280" 
d="M214 655q0 -36 -23.5 -60t-60.5 -24t-60.5 24t-23.5 60t23.5 60t60.5 24t60.5 -24t23.5 -60zM209 497v-497h-139v410q0 21 -5 34.5t-17 27.5q-8 10 -4.5 17.5t13.5 7.5h152z" />
    <glyph glyph-name="j" unicode="j" horiz-adv-x="285" 
d="M76 -4v414q0 21 -5 34.5t-17 27.5q-8 10 -4.5 17.5t13.5 7.5h152v-501q0 -59 -20 -111t-48 -88t-58 -51t-49 1l-46 39q17 16 32 35t26 43.5t17.5 57t6.5 74.5zM54 655q0 36 23.5 60t60.5 24t61 -24t24 -60t-24 -60.5t-61 -24.5t-60.5 24.5t-23.5 60.5z" />
    <glyph glyph-name="k" unicode="k" horiz-adv-x="555" 
d="M64 0v621q0 23 -4.5 36.5t-17.5 27.5q-8 10 -4.5 17.5t13.5 7.5h152v-407l174 194h159l-188 -212l211 -285h-153l-151 208q-12 17 -19.5 21.5t-20.5 4.5h-12v-234h-139z" />
    <glyph glyph-name="l" unicode="l" horiz-adv-x="320" 
d="M219 124q0 -26 11.5 -31t29.5 -5q3 0 9 0.5t9 1.5l11 -78q1 -6 -5.5 -11t-18.5 -8.5t-27.5 -5.5t-33.5 -2q-58 0 -91 30t-33 89v519q0 21 -5 34.5t-17 27.5q-8 10 -4.5 17.5t13.5 7.5h152v-586z" />
    <glyph glyph-name="m" unicode="m" horiz-adv-x="835" 
d="M328 514q47 0 79.5 -16t51.5 -45q35 29 72 45t78 16q80 0 122.5 -41.5t42.5 -116.5v-356h-139v345q0 34 -11 51.5t-45 17.5q-40 0 -94 -43v-371h-137v345q0 34 -10.5 51.5t-44.5 17.5q-24 0 -48 -12.5t-47 -31.5v-370h-139v408q0 23 -4.5 36.5t-17.5 27.5
q-8 10 -4.5 17.5t13.5 7.5h148v-49q21 27 56.5 46.5t77.5 19.5z" />
    <glyph glyph-name="n" unicode="n" horiz-adv-x="580" 
d="M46 497h148v-48q27 26 61 45.5t81 19.5q40 0 73.5 -11t58.5 -32t39 -52.5t14 -72.5v-346h-139v334q0 42 -18.5 61t-60.5 19q-29 0 -55 -11.5t-50 -32.5v-370h-139v408q0 23 -4.5 36.5t-17.5 27.5q-8 10 -4.5 17.5t13.5 7.5z" />
    <glyph glyph-name="o" unicode="o" horiz-adv-x="590" 
d="M427 249q0 79 -35.5 123.5t-96.5 44.5t-96.5 -44.5t-35.5 -123.5t35.5 -123.5t96.5 -44.5t96.5 44.5t35.5 123.5zM566 249q0 -58 -20.5 -106.5t-56.5 -84t-86 -55t-108 -19.5q-59 0 -108.5 19.5t-85.5 55t-56.5 84t-20.5 106.5t20.5 106.5t56.5 84t85.5 55t108.5 19.5
q58 0 108 -19.5t86 -55t56.5 -84t20.5 -106.5z" />
    <glyph glyph-name="p" unicode="p" horiz-adv-x="600" 
d="M203 18v-265h-139v657q0 21 -5 34.5t-17 27.5q-8 10 -4.5 17.5t13.5 7.5h149v-50q26 34 63.5 50.5t77.5 16.5q51 0 93 -19.5t72.5 -54.5t47.5 -83.5t17 -106.5q0 -63 -17.5 -112t-50 -83.5t-78 -52.5t-101.5 -18q-38 0 -69 10t-52 24zM302 81q130 0 130 169
q0 45 -10 76.5t-26.5 52t-38.5 29.5t-45 9q-34 0 -62 -16.5t-47 -41.5v-242q17 -14 43.5 -25t55.5 -11z" />
    <glyph glyph-name="q" unicode="q" horiz-adv-x="600" 
d="M397 18q-21 -14 -52 -24t-69 -10q-56 0 -101.5 18t-78 52.5t-50 83.5t-17.5 112q0 58 17 106.5t47.5 83.5t72.5 54.5t93 19.5q40 0 77.5 -16.5t63.5 -50.5v50h136v-744h-139v265zM298 81q29 0 55.5 11t43.5 25v242q-19 25 -47 41.5t-62 16.5q-23 0 -45 -9t-38.5 -29.5
t-26.5 -52t-10 -76.5q0 -169 130 -169z" />
    <glyph glyph-name="r" unicode="r" horiz-adv-x="380" 
d="M322 502q11 0 23 -1.5t20 -3.5v-99q0 -14 -6 -15.5t-16 1.5q-13 4 -30 7.5t-37 3.5q-26 0 -45.5 -12t-32.5 -26v-357h-139v410q0 21 -5 34.5t-17 27.5q-8 10 -4.5 17.5t13.5 7.5h149v-79q17 38 48.5 61t78.5 23z" />
    <glyph glyph-name="s" unicode="s" horiz-adv-x="440" 
d="M47 122q16 -11 36.5 -18.5t42.5 -13t42.5 -8t35.5 -2.5q67 0 67 45q0 17 -11 29t-42 28q-35 18 -67 37t-63 45q-20 17 -36.5 40.5t-16.5 63.5q0 29 12.5 55.5t35.5 46.5t57 32t77 12q37 0 81.5 -8t78.5 -22v-97q0 -14 -8 -16.5t-21 6.5q-26 18 -58 29.5t-64 11.5
q-28 0 -42.5 -13.5t-14.5 -33.5q0 -14 7.5 -25.5t21.5 -22.5q21 -17 54.5 -34.5t58.5 -31.5q24 -13 41.5 -26t29.5 -29t17.5 -36.5t5.5 -47.5q0 -60 -50.5 -97t-140.5 -37q-34 0 -69 6t-63 16t-44.5 22.5t-12.5 24.5z" />
    <glyph glyph-name="t" unicode="t" horiz-adv-x="395" 
d="M239 656v-159h117v-97h-117v-279q0 -26 13 -33t31 -7q17 0 38.5 6.5t41.5 16.5l16 -72q2 -11 -14.5 -20.5t-42.5 -16.5q-20 -5 -41 -8t-48 -3q-58 0 -95.5 28.5t-37.5 87.5v300h-84v97h84v159h139z" />
    <glyph glyph-name="u" unicode="u" horiz-adv-x="575" 
d="M60 157v253q0 21 -5 34.5t-17 27.5q-8 10 -4.5 17.5t13.5 7.5h152v-334q0 -39 13 -59t54 -20q32 0 60 13.5t49 36.5v363h139v-497h-136v52q-22 -32 -61.5 -50t-78.5 -18q-84 0 -131 45.5t-47 127.5z" />
    <glyph glyph-name="v" unicode="v" horiz-adv-x="555" 
d="M249 250l35 -123l36 123l80 247h140l-173 -497h-173l-138 418q-5 16 -14 29t-19 23t-7.5 18.5t12.5 8.5h142z" />
    <glyph glyph-name="w" unicode="w" horiz-adv-x="805" 
d="M56 411q-8 24 -15.5 36.5t-17.5 22.5t-7.5 18.5t12.5 8.5h146l76 -286l18 -80l18 80l75 256h101l76 -257l17 -79l18 80l78 286h138l-151 -497h-135l-76 240l-15 59l-15 -59l-74 -240h-142z" />
    <glyph glyph-name="x" unicode="x" horiz-adv-x="520" 
d="M66 422q-12 17 -21.5 28t-19.5 20q-11 10 -8 18.5t13 8.5h128l103 -153l105 153h143l-177 -247l180 -250h-142l-111 157l-109 -157h-142l179 251z" />
    <glyph glyph-name="y" unicode="y" horiz-adv-x="555" 
d="M142 -264l92 246q-17 4 -28.5 15t-18.5 28l-131 393q-12 31 -33 52q-10 10 -7.5 18.5t12.5 8.5h142l80 -248l34 -120l36 120l80 248h140l-266 -761h-132z" />
    <glyph glyph-name="z" unicode="z" horiz-adv-x="425" 
d="M195 97h200v-97h-375v53l205 347h-193v97h359v-55q0 -14 -4 -23t-9 -17z" />
    <glyph glyph-name="braceleft" unicode="{" horiz-adv-x="360" 
d="M142 323q26 -9 46 -19.5t34 -26.5t21 -39t7 -57v-134q0 -64 17 -94t56 -39v-73q-50 0 -87.5 14t-63.5 38t-39 56t-13 69v160q0 29 -9 49.5t-23.5 36t-33.5 26.5t-38 20v25q19 9 38 20t33.5 26.5t23.5 36t9 49.5v159q0 37 13 69t39 56t63.5 38t87.5 14v-73q-39 -9 -56 -39
t-17 -94v-133q0 -34 -7 -57t-21 -38.5t-34 -26t-46 -19.5z" />
    <glyph glyph-name="bar" unicode="|" horiz-adv-x="360" 
d="M122 808h116v-972h-116v972z" />
    <glyph glyph-name="braceright" unicode="}" horiz-adv-x="360" 
d="M217 323q-26 9 -46 19.5t-34 26t-21 38.5t-7 57v153q0 64 -17 94t-56 39v53q49 0 87 -14t64 -38t39 -56t13 -69v-159q0 -29 9 -49.5t23.5 -36t33 -26.5t38.5 -20v-25q-20 -9 -38.5 -20t-33 -26.5t-23.5 -36t-9 -49.5v-160q0 -37 -13 -69t-39 -56t-64 -38t-87 -14v53
q39 9 56 39t17 94v154q0 34 7 57t21 39t34 26.5t46 19.5z" />
    <glyph glyph-name="asciitilde" unicode="~" horiz-adv-x="590" 
d="M177 306q-33 0 -55.5 -16t-50.5 -45l-60 83q17 19 34.5 36t38.5 30t45.5 21t56.5 8q41 0 73 -16t58 -32q21 -13 46.5 -24.5t48.5 -11.5q32 0 59 16t55 45l45 -73q4 -7 -6.5 -24t-32.5 -35t-53 -32t-67 -14q-23 0 -40.5 3.5t-33.5 10t-31 15.5t-33 20q-21 13 -45.5 24
t-51.5 11z" />
    <glyph glyph-name="Zcaron" horiz-adv-x="530" 
d="M207 103h294v-103h-474v74l299 513h-285v103h454v-76q0 -19 -6 -31.5t-12 -23.5zM104 878h117l54 -71l54 71h117l-109 -134h-124z" />
    <glyph glyph-name="Zcaron" unicode="&#x17d;" horiz-adv-x="530" 
d="M207 103h294v-103h-474v74l299 513h-285v103h454v-76q0 -19 -6 -31.5t-12 -23.5zM104 878h117l54 -71l54 71h117l-109 -134h-124z" />
    <glyph glyph-name="zcaron" horiz-adv-x="420" 
d="M195 97h200v-97h-375v53l205 347h-193v97h359v-55q0 -14 -4 -23t-9 -17zM44 688h117l54 -71l54 71h117l-109 -134h-124z" />
    <glyph glyph-name="zcaron" unicode="&#x17e;" horiz-adv-x="420" 
d="M195 97h200v-97h-375v53l205 347h-193v97h359v-55q0 -14 -4 -23t-9 -17zM44 688h117l54 -71l54 71h117l-109 -134h-124z" />
    <glyph glyph-name="exclamdown" unicode="&#xa1;" horiz-adv-x="300" 
d="M217 -198q1 -20 -6.5 -28t-24.5 -8h-105l24 480h89zM234 411q0 -36 -23.5 -60t-60.5 -24t-61 24t-24 60t24 60.5t61 24.5t60.5 -24.5t23.5 -60.5z" />
    <glyph glyph-name="cent" unicode="&#xa2;" horiz-adv-x="495" 
d="M223 -85h-75l28 93q-71 31 -109 94.5t-38 147.5q0 58 19.5 106.5t54.5 83.5t84.5 54.5t109.5 19.5h15t15 -1l24 78h75l-28 -92q14 -5 27 -10.5t26 -11.5v-88q0 -14 -7.5 -16t-18.5 5q-29 18 -55 27l-97 -322q7 -2 14 -2h15q38 0 72.5 9t67.5 31l28 -68q4 -10 -9.5 -22
t-38 -22.5t-57 -17.5t-66.5 -7q-14 0 -27.5 1t-26.5 3zM168 250q0 -85 41 -131l90 298q-33 0 -57.5 -13.5t-41 -36t-24.5 -53t-8 -64.5z" />
    <glyph glyph-name="sterling" unicode="&#xa3;" horiz-adv-x="530" 
d="M292 291q0 -51 -12.5 -99.5t-43.5 -88.5h253v-103h-463v64q40 22 64 47.5t37 53.5t17 59.5t4 66.5v9h-107v97h95l-12 70t-6 71q0 81 50.5 126t137.5 45q38 0 74 -3.5t80 -12.5v-88q0 -14 -8 -14.5t-15 2.5q-21 9 -42.5 14t-52.5 5q-80 0 -80 -80q0 -35 5.5 -68.5
t12.5 -66.5h111v-97h-99v-9z" />
    <glyph glyph-name="currency" unicode="&#xa4;" horiz-adv-x="570" 
d="M461 46l-85 84q-43 -16 -91 -16q-49 0 -92 17l-85 -85l-83 88l70 69q-20 27 -30.5 59t-10.5 67q0 36 11.5 68.5t32.5 59.5l-73 73l83 88l89 -89q40 15 88 15q23 0 45 -4t42 -11l89 89l83 -88l-73 -72q45 -56 45 -129q0 -72 -42 -126l70 -69zM377 329q0 52 -24.5 85
t-67.5 33t-67.5 -33t-24.5 -85t24.5 -85t67.5 -33t67.5 33t24.5 85z" />
    <glyph glyph-name="yen" unicode="&#xa5;" horiz-adv-x="650" 
d="M97 197h158v58l-2 4h-156v74h115l-149 268q-12 23 -24.5 37.5t-23.5 24.5t-8 18.5t13 8.5h148l160 -303l160 303h155l-199 -357h119v-74h-161l-1 -3v-59h162v-74h-162v-123h-146v123h-158v74z" />
    <glyph glyph-name="brokenbar" unicode="&#xa6;" horiz-adv-x="360" 
d="M122 0v319h116v-319h-116zM122 375v315h116v-315h-116z" />
    <glyph glyph-name="section" unicode="&#xa7;" horiz-adv-x="490" 
d="M377 636q-30 14 -57.5 19.5t-55.5 5.5q-26 0 -45 -10.5t-19 -31.5q0 -12 7 -22.5t18 -20t24.5 -17.5t25.5 -16q30 -18 59 -39t51.5 -44t36.5 -48t14 -53q0 -32 -12.5 -64t-50.5 -62q42 -36 56 -69t14 -64q0 -33 -12.5 -63t-39 -52t-67.5 -35t-98 -13q-35 0 -83 10t-96 36
l33 92q39 -19 73.5 -29.5t72.5 -10.5q35 0 54 17t19 47q0 18 -12.5 34.5t-30 30.5t-36.5 25t-32 17q-22 11 -44 23.5t-40 29.5t-29 39t-11 52q0 32 22 65.5t60 56.5q-42 32 -66 63t-24 74q0 72 52.5 111t146.5 39q26 0 69 -9t89 -29zM302 357q0 15 -14.5 29.5t-35.5 25.5
q-26 -5 -39.5 -22.5t-13.5 -34.5q0 -15 12.5 -29.5t37.5 -25.5q22 7 37.5 22t15.5 35z" />
    <glyph glyph-name="dieresis" unicode="&#xa8;" horiz-adv-x="320" 
d="M5 610q0 26 16.5 42.5t42.5 16.5t43 -16.5t17 -42.5t-17 -43t-43 -17t-42.5 17t-16.5 43zM195 610q0 26 16.5 42.5t42.5 16.5t43 -16.5t17 -42.5t-17 -43t-43 -17t-42.5 17t-16.5 43z" />
    <glyph glyph-name="copyright" unicode="&#xa9;" horiz-adv-x="870" 
d="M459 531q-60 0 -97 -43.5t-37 -121.5q0 -84 38 -125.5t97 -41.5q35 0 65.5 8t60.5 28l25 -61q4 -9 -8 -20t-34 -20t-51.5 -15.5t-59.5 -6.5q-54 0 -101 17.5t-82 50.5t-55 80t-20 106q0 60 21 106.5t56.5 79t81.5 49.5t97 17q42 0 74.5 -9t63.5 -24v-79q0 -12 -7 -14
t-16 4q-28 17 -54 26t-58 9zM760 366q0 69 -25.5 130t-70.5 106t-105.5 71t-129.5 26t-129 -26t-105 -71t-71 -106t-26 -130t26 -130t71 -106t105 -71t129 -26t129.5 26t105.5 71t70.5 106t25.5 130zM840 366q0 -82 -30.5 -156t-85.5 -129.5t-130 -88t-165 -32.5t-165 32.5
t-130 88t-85.5 129.5t-30.5 156t30.5 156t85.5 129.5t130 88t165 32.5t165 -32.5t130 -88t85.5 -129.5t30.5 -156z" />
    <glyph glyph-name="ordfeminine" unicode="&#xaa;" horiz-adv-x="385" 
d="M238 585h-43q-43 0 -57 -17.5t-14 -43.5q0 -19 10.5 -28.5t28.5 -9.5q44 0 75 33v66zM186 712q-29 0 -57.5 -11t-49.5 -25q-11 -7 -16.5 -4t-5.5 14v75q28 12 65.5 19t69.5 7q73 0 113 -28t40 -88v-250h-105v39q-19 -26 -45.5 -38t-55.5 -12q-53 0 -86 31t-33 82
q0 24 9 47t29.5 41t54 29t83.5 11h42v12q0 49 -52 49zM40 373h305v-82h-305v82z" />
    <glyph glyph-name="guillemotleft" unicode="&#xab;" horiz-adv-x="590" 
d="M280 271l266 218v-126l-154 -128l154 -128v-126l-266 218v72zM43 271l266 218v-126l-154 -128l154 -128v-126l-266 218v72z" />
    <glyph glyph-name="logicalnot" unicode="&#xac;" horiz-adv-x="770" 
d="M554 221v183h-497v103h641v-286h-144z" />
    <glyph glyph-name="uni00AD" unicode="&#xad;" horiz-adv-x="540" 
d="M27 393h485v-102h-485v102z" />
    <glyph glyph-name="registered" unicode="&#xae;" horiz-adv-x="870" 
d="M840 366q0 -82 -30.5 -156t-85.5 -129.5t-130 -88t-165 -32.5t-165 32.5t-130 88t-85.5 129.5t-30.5 156t30.5 156t85.5 129.5t130 88t165 32.5t165 -32.5t130 -88t85.5 -129.5t30.5 -156zM760 366q0 69 -25.5 130t-70.5 106t-105.5 71t-129.5 26t-129 -26t-105 -71
t-71 -106t-26 -130t26 -130t71 -106t105 -71t129 -26q70 0 130.5 26t105.5 72h-121l-117 182q-3 5 -5.5 6.5t-9.5 1.5h-8v-190h-125v423q0 17 -3 26.5t-12 20.5q-6 7 -3.5 12.5t9.5 5.5h179q46 0 79 -11t54 -30.5t30.5 -46.5t9.5 -58q0 -55 -24 -87.5t-65 -45.5l137 -203
q42 45 66 103.5t24 125.5zM404 408h26q67 0 67 64q0 32 -17.5 46t-50.5 14h-25v-124z" />
    <glyph glyph-name="macron" unicode="&#xaf;" horiz-adv-x="360" 
d="M27 690h305v-102h-305v102z" />
    <glyph glyph-name="degree" unicode="&#xb0;" horiz-adv-x="300" 
d="M185 635q0 16 -9.5 26t-26.5 10t-26.5 -10t-9.5 -26t9.5 -26t26.5 -10t26.5 10t9.5 26zM253 635q0 -43 -30.5 -69.5t-73.5 -26.5t-73.5 26.5t-30.5 69.5t30.5 69.5t73.5 26.5t73.5 -26.5t30.5 -69.5z" />
    <glyph glyph-name="plusminus" unicode="&#xb1;" horiz-adv-x="560" 
d="M218 646h124v-184h191v-100h-191v-202h-124v202h-191v100h191v184zM513 111v-100h-466v100h466z" />
    <glyph glyph-name="uni00B2" unicode="&#xb2;" horiz-adv-x="360" 
d="M146 615q-20 0 -38.5 -5t-33.5 -16q-12 -8 -20.5 -8t-4.5 21l14 69q19 6 43.5 12t53.5 7q70 0 108.5 -32.5t38.5 -88.5q0 -15 -3 -30t-10.5 -31.5t-22 -35.5t-36.5 -41l-27.5 -27.5t-31.5 -29.5h135v-79h-269v52q0 11 1.5 17.5t12.5 17.5l67 67q43 43 63.5 69.5
t20.5 50.5q0 17 -14.5 29t-46.5 12z" />
    <glyph glyph-name="uni00B3" unicode="&#xb3;" horiz-adv-x="360" 
d="M156 615q-26 0 -43 -5t-34 -12q-16 -7 -20.5 -4t-2.5 18l10 60q17 7 45 15t57 8q60 0 95.5 -30t35.5 -84q0 -28 -13.5 -46.5t-31.5 -27.5q29 -12 44 -38t15 -54q0 -30 -11 -53t-29.5 -39t-44 -24.5t-54.5 -8.5q-35 0 -61 7t-40 15q-21 11 -31 21t-5 21l20 48
q32 -19 54 -26t47 -7q28 0 41.5 13t13.5 33q0 12 -5.5 20.5t-13.5 14t-17.5 8t-18.5 2.5h-62v77h64q15 0 27 8.5t12 31.5q0 15 -10 26.5t-33 11.5z" />
    <glyph glyph-name="acute" unicode="&#xb4;" horiz-adv-x="310" 
d="M131 694h141l-129 -145h-79z" />
    <glyph glyph-name="mu" unicode="&#xb5;" horiz-adv-x="580" 
d="M64 -247v657q0 21 -5 34.5t-17 27.5q-8 10 -4.5 17.5t13.5 7.5h152v-346q0 -33 15 -50t53 -17q32 0 60 13.5t49 36.5v363h139v-497h-136v52q-22 -32 -53.5 -50t-70.5 -18q-14 0 -30.5 4t-25.5 10v-245h-139z" />
    <glyph glyph-name="paragraph" unicode="&#xb6;" horiz-adv-x="540" 
d="M457 690v-937h-85v864h-55v-864h-82v543q-96 7 -144 61t-48 133q0 46 16 83.5t45 63t68.5 39.5t87.5 14h197z" />
    <glyph glyph-name="periodcentered" unicode="&#xb7;" horiz-adv-x="290" 
d="M60 270q0 36 23.5 60t60.5 24t61 -24t24 -60t-24 -60.5t-61 -24.5t-60.5 24.5t-23.5 60.5z" />
    <glyph glyph-name="cedilla" unicode="&#xb8;" horiz-adv-x="300" 
d="M222 1l-25 -48q34 -10 48.5 -30.5t14.5 -52.5q0 -45 -31.5 -70.5t-94.5 -25.5q-27 0 -56 7.5t-48 18.5l27 59q17 -9 32 -13.5t32 -4.5q20 0 29.5 9t9.5 22q0 7 -3 15t-13 14.5t-27.5 11.5t-46.5 5l39 83h113z" />
    <glyph glyph-name="uni00B9" unicode="&#xb9;" horiz-adv-x="360" 
d="M155 300v266q-5 -2 -17.5 -5.5t-25 -6.5t-23 -4.5t-11.5 2.5l-20 57q38 16 69.5 38.5t46.5 42.5h81v-390h-100z" />
    <glyph glyph-name="ordmasculine" unicode="&#xba;" horiz-adv-x="385" 
d="M40 373h305v-82h-305v82zM236 597q0 19 -2 37t-7 31.5t-13 21.5t-21 8q-14 0 -22.5 -8t-13.5 -21.5t-7 -31t-2 -36.5q0 -20 2 -37.5t7 -31.5t13.5 -22t22.5 -8q13 0 21 8t13 21.5t7 31.5t2 37zM347 597q0 -36 -8 -69.5t-26.5 -60t-48 -42t-72.5 -15.5t-72.5 15.5
t-47.5 42t-26 60t-8 69.5t8 70t26 60.5t47.5 42t72.5 15.5t72.5 -15.5t48 -42t26.5 -60.5t8 -70z" />
    <glyph glyph-name="guillemotright" unicode="&#xbb;" horiz-adv-x="590" 
d="M309 199l-266 -218v126l154 128l-154 128v126l266 -218v-72zM546 199l-266 -218v126l154 128l-154 128v126l266 -218v-72z" />
    <glyph glyph-name="onequarter" unicode="&#xbc;" horiz-adv-x="845" 
d="M810 101h-59v-117h-111v117h-212v50q0 15 4.5 25t10.5 19q51 72 105 149t105 149h98v-303h59v-89zM643 187v96l1 35l-22 -36l-67 -95h88zM115 290v364l-11 -5q-18 -7 -30 -9.5t-19.5 -2t-11 3.5t-4.5 7l-18 54q15 7 31.5 17.5t32.5 22t30 24.5t24 27h91v-503h-115z
M198 -35h-114l533 846h114z" />
    <glyph glyph-name="onehalf" unicode="&#xbd;" horiz-adv-x="845" 
d="M115 290v364l-11 -5q-18 -7 -30 -9.5t-19.5 -2t-11 3.5t-4.5 7l-18 54q15 7 31.5 17.5t32.5 22t30 24.5t24 27h91v-503h-115zM627 412q-32 0 -58 -10t-52 -28q-12 -8 -21 -5t-6 20q3 20 7 42t7 42q21 8 53.5 17.5t70.5 10.5q88 0 137 -40.5t49 -110.5q0 -60 -30 -117
t-100 -124l-38 -36h173v-89h-340v55q0 23 19 42l89 89q31 31 52.5 56.5t34 46.5t18 39.5t5.5 37.5q0 32 -18.5 47t-51.5 15zM168 -35h-114l513 846h114z" />
    <glyph glyph-name="threequarters" unicode="&#xbe;" horiz-adv-x="845" 
d="M830 101h-59v-117h-111v117h-212v50q0 15 4.5 25t10.5 19q51 72 105 149t105 149h98v-303h59v-89zM663 187v96l1 35l-23 -36l-67 -95h89zM156 718q-23 0 -46.5 -9.5t-43.5 -21.5q-11 -7 -19 -2t-6 16l14 79q20 8 50.5 17.5t65.5 9.5q36 0 66 -9.5t52 -27.5t34.5 -44.5
t12.5 -59.5q0 -32 -14.5 -60t-38.5 -45q35 -20 54 -53.5t19 -73.5q0 -75 -51 -116.5t-138 -41.5q-12 0 -27 2t-29.5 5t-28 7t-22.5 9q-23 11 -36.5 22.5t-8.5 23.5l23 64q33 -24 63 -34t56 -10q35 0 58.5 15.5t23.5 53.5q0 22 -9 36.5t-23 23t-32 12t-36 3.5h-55v87h58
q35 0 56 19t21 51q0 23 -17 37.5t-46 14.5zM248 -35h-114l543 846h114z" />
    <glyph glyph-name="questiondown" unicode="&#xbf;" horiz-adv-x="510" 
d="M362 420q0 -36 -23.5 -60t-60.5 -24t-61 24t-24 60t24 60.5t61 24.5t60.5 -24.5t23.5 -60.5zM263 -245q-105 0 -162.5 51t-57.5 145q0 57 26 96t63 73q21 19 37.5 33t27.5 26t16.5 25.5t5.5 33.5v17h123v-29q0 -26 -4 -45.5t-13.5 -37t-25 -34.5t-39.5 -38
q-12 -10 -24.5 -22.5t-23.5 -27.5t-18 -33t-7 -38q0 -40 22.5 -66.5t67.5 -26.5q37 0 68.5 13t63.5 32q10 6 19.5 1.5t6.5 -19.5l-17 -98q-32 -13 -74.5 -22t-80.5 -9z" />
    <glyph glyph-name="Agrave" unicode="&#xc0;" horiz-adv-x="660" 
d="M235 578q11 29 9.5 47.5t-9.5 33.5q-17 31 17 31h132l266 -690h-145l-70 192h-214l-69 -192h-143zM258 297h139l-70 199zM416 744h-88l-129 134h140z" />
    <glyph glyph-name="Aacute" unicode="&#xc1;" horiz-adv-x="660" 
d="M235 578q11 29 9.5 47.5t-9.5 33.5q-17 31 17 31h132l266 -690h-145l-70 192h-214l-69 -192h-143zM258 297h139l-70 199zM311 878h140l-129 -134h-88z" />
    <glyph glyph-name="Acircumflex" unicode="&#xc2;" horiz-adv-x="660" 
d="M235 578q11 29 9.5 47.5t-9.5 33.5q-17 31 17 31h132l266 -690h-145l-70 192h-214l-69 -192h-143zM258 297h139l-70 199zM263 878h124l109 -134h-117l-54 71l-54 -71h-117z" />
    <glyph glyph-name="Atilde" unicode="&#xc3;" horiz-adv-x="660" 
d="M235 578q11 29 9.5 47.5t-9.5 33.5q-17 31 17 31h132l266 -690h-145l-70 192h-214l-69 -192h-143zM258 297h139l-70 199zM315 764q-17 9 -28 13t-25 4q-16 0 -26 -8.5t-19 -23.5l-60 33q12 34 38 58.5t66 24.5q19 0 34 -5.5t32 -14.5l25 -12.5t23 -4.5q16 0 24.5 7
t16.5 22l56 -31q-5 -15 -14 -29.5t-20.5 -26t-26 -19t-30.5 -7.5q-19 0 -34 5.5t-32 14.5z" />
    <glyph glyph-name="Adieresis" unicode="&#xc4;" horiz-adv-x="660" 
d="M235 578q11 29 9.5 47.5t-9.5 33.5q-17 31 17 31h132l266 -690h-145l-70 192h-214l-69 -192h-143zM258 297h139l-70 199zM171 810q0 26 16.5 42.5t42.5 16.5t43 -16.5t17 -42.5t-17 -43t-43 -17t-42.5 17t-16.5 43zM361 810q0 26 16.5 42.5t42.5 16.5t43 -16.5t17 -42.5
t-17 -43t-43 -17t-42.5 17t-16.5 43z" />
    <glyph glyph-name="Aring" unicode="&#xc5;" horiz-adv-x="660" 
d="M235 578q11 29 9.5 47.5t-9.5 33.5q-17 31 17 31h132l266 -690h-145l-70 192h-214l-69 -192h-143zM258 297h139l-70 199zM357 815q0 16 -9.5 26t-26.5 10t-26.5 -10t-9.5 -26t9.5 -26t26.5 -10t26.5 10t9.5 26zM425 815q0 -43 -30.5 -69.5t-73.5 -26.5t-73.5 26.5
t-30.5 69.5t30.5 69.5t73.5 26.5t73.5 -26.5t30.5 -69.5z" />
    <glyph glyph-name="AE" unicode="&#xc6;" horiz-adv-x="900" 
d="M465 197h-213l-92 -197h-148l274 578q13 28 13 47t-8 34q-17 31 17 31h538v-103h-284l20 -190h240v-103h-230l20 -191h254v-103h-381zM298 302h156l-29 273z" />
    <glyph glyph-name="Ccedilla" unicode="&#xc7;" horiz-adv-x="650" 
d="M378 607q-50 0 -87 -19t-61 -53.5t-36 -82.5t-12 -106q0 -128 53 -195.5t148 -67.5q49 0 95.5 14.5t97.5 52.5l33 -68q4 -9 -4.5 -22.5t-29 -27t-51 -26t-69.5 -19.5l-18 -34q34 -10 48.5 -30.5t14.5 -52.5q0 -45 -31.5 -70.5t-94.5 -25.5q-27 0 -56 7.5t-48 18.5l27 59
q17 -9 32 -13.5t32 -4.5q20 0 29.5 9t9.5 22q0 7 -3 15t-13 14.5t-27.5 11.5t-46.5 5l29 63q-74 6 -130.5 34t-94.5 75.5t-58 112.5t-20 143q0 82 22 149t64 115t103.5 74t141.5 26q129 0 223 -47v-109q0 -14 -8.5 -17t-19.5 5q-41 29 -84 47t-100 18z" />
    <glyph glyph-name="Egrave" unicode="&#xc8;" 
d="M70 0v601q0 23 -4.5 36.5t-17.5 27.5q-8 10 -4.5 17.5t13.5 7.5h424v-103h-267v-190h243v-103h-243v-191h287v-103h-431zM356 744h-88l-129 134h140z" />
    <glyph glyph-name="Eacute" unicode="&#xc9;" 
d="M70 0v601q0 23 -4.5 36.5t-17.5 27.5q-8 10 -4.5 17.5t13.5 7.5h424v-103h-267v-190h243v-103h-243v-191h287v-103h-431zM261 878h140l-129 -134h-88z" />
    <glyph glyph-name="Ecircumflex" unicode="&#xca;" 
d="M70 0v601q0 23 -4.5 36.5t-17.5 27.5q-8 10 -4.5 17.5t13.5 7.5h424v-103h-267v-190h243v-103h-243v-191h287v-103h-431zM213 878h124l109 -134h-117l-54 71l-54 -71h-117z" />
    <glyph glyph-name="Edieresis" unicode="&#xcb;" 
d="M70 0v601q0 23 -4.5 36.5t-17.5 27.5q-8 10 -4.5 17.5t13.5 7.5h424v-103h-267v-190h243v-103h-243v-191h287v-103h-431zM121 810q0 26 16.5 42.5t42.5 16.5t43 -16.5t17 -42.5t-17 -43t-43 -17t-42.5 17t-16.5 43zM311 810q0 26 16.5 42.5t42.5 16.5t43 -16.5t17 -42.5
t-17 -43t-43 -17t-42.5 17t-16.5 43z" />
    <glyph glyph-name="Igrave" unicode="&#xcc;" horiz-adv-x="335" 
d="M99 0v601q0 23 -4.5 36.5t-17.5 27.5q-8 10 -4.5 17.5t13.5 7.5h157v-690h-144zM268 744h-88l-129 134h140z" />
    <glyph glyph-name="Iacute" unicode="&#xcd;" horiz-adv-x="335" 
d="M99 0v601q0 23 -4.5 36.5t-17.5 27.5q-8 10 -4.5 17.5t13.5 7.5h157v-690h-144zM143 878h140l-129 -134h-88z" />
    <glyph glyph-name="Icircumflex" unicode="&#xce;" horiz-adv-x="335" 
d="M100 878h124l109 -134h-117l-54 71l-54 -71h-117zM99 0v601q0 23 -4.5 36.5t-17.5 27.5q-8 10 -4.5 17.5t13.5 7.5h157v-690h-144z" />
    <glyph glyph-name="Idieresis" unicode="&#xcf;" horiz-adv-x="335" 
d="M14 810q0 26 16.5 42.5t42.5 16.5t43 -16.5t17 -42.5t-17 -43t-43 -17t-42.5 17t-16.5 43zM204 810q0 26 16.5 42.5t42.5 16.5t43 -16.5t17 -42.5t-17 -43t-43 -17t-42.5 17t-16.5 43zM99 0v601q0 23 -4.5 36.5t-17.5 27.5q-8 10 -4.5 17.5t13.5 7.5h157v-690h-144z" />
    <glyph glyph-name="Eth" unicode="&#xd0;" horiz-adv-x="738" 
d="M10 393h93v208q0 23 -4.5 36.5t-17.5 27.5q-8 10 -4.5 17.5t13.5 7.5h265q72 0 135 -20.5t110.5 -62.5t74.5 -107t27 -155t-27 -155t-74.5 -107t-110.5 -62.5t-135 -20.5h-252v291h-93v102zM333 103q66 0 109 17.5t69 49.5t36.5 76.5t10.5 98.5t-10.5 98.5t-36.5 76.5
t-69 49.5t-109 17.5h-86v-194h148v-102h-148v-188h86z" />
    <glyph glyph-name="Ntilde" unicode="&#xd1;" horiz-adv-x="695" 
d="M70 0v601q0 23 -4.5 36.5t-17.5 27.5q-8 10 -4.5 17.5t13.5 7.5h153l210 -365l70 -129l-9 149v345h144v-690h-142l-213 375l-64 123l8 -153v-345h-144zM347 764q-17 9 -28 13t-25 4q-16 0 -26 -8.5t-19 -23.5l-60 33q12 34 38 58.5t66 24.5q19 0 34 -5.5t32 -14.5
l25 -12.5t23 -4.5q16 0 24.5 7t16.5 22l56 -31q-5 -15 -14 -29.5t-20.5 -26t-26 -19t-30.5 -7.5q-19 0 -34 5.5t-32 14.5z" />
    <glyph glyph-name="Ograve" unicode="&#xd2;" horiz-adv-x="780" 
d="M744 345q0 -81 -23 -148.5t-68 -115.5t-111 -74.5t-152 -26.5t-152 26.5t-111 74.5t-68 115.5t-23 148.5t23 148.5t68 115.5t111 74.5t152 26.5t152 -26.5t111 -74.5t68 -115.5t23 -148.5zM180 345q0 -127 56.5 -194.5t153.5 -67.5t153.5 67.5t56.5 194.5t-56.5 194.5
t-153.5 67.5t-153.5 -67.5t-56.5 -194.5zM491 744h-88l-129 134h140z" />
    <glyph glyph-name="Oacute" unicode="&#xd3;" horiz-adv-x="780" 
d="M744 345q0 -81 -23 -148.5t-68 -115.5t-111 -74.5t-152 -26.5t-152 26.5t-111 74.5t-68 115.5t-23 148.5t23 148.5t68 115.5t111 74.5t152 26.5t152 -26.5t111 -74.5t68 -115.5t23 -148.5zM180 345q0 -127 56.5 -194.5t153.5 -67.5t153.5 67.5t56.5 194.5t-56.5 194.5
t-153.5 67.5t-153.5 -67.5t-56.5 -194.5zM356 878h140l-129 -134h-88z" />
    <glyph glyph-name="Ocircumflex" unicode="&#xd4;" horiz-adv-x="780" 
d="M328 878h124l109 -134h-117l-54 71l-54 -71h-117zM744 345q0 -81 -23 -148.5t-68 -115.5t-111 -74.5t-152 -26.5t-152 26.5t-111 74.5t-68 115.5t-23 148.5t23 148.5t68 115.5t111 74.5t152 26.5t152 -26.5t111 -74.5t68 -115.5t23 -148.5zM180 345q0 -127 56.5 -194.5
t153.5 -67.5t153.5 67.5t56.5 194.5t-56.5 194.5t-153.5 67.5t-153.5 -67.5t-56.5 -194.5z" />
    <glyph glyph-name="Otilde" unicode="&#xd5;" horiz-adv-x="780" 
d="M744 345q0 -81 -23 -148.5t-68 -115.5t-111 -74.5t-152 -26.5t-152 26.5t-111 74.5t-68 115.5t-23 148.5t23 148.5t68 115.5t111 74.5t152 26.5t152 -26.5t111 -74.5t68 -115.5t23 -148.5zM180 345q0 -127 56.5 -194.5t153.5 -67.5t153.5 67.5t56.5 194.5t-56.5 194.5
t-153.5 67.5t-153.5 -67.5t-56.5 -194.5zM385 764q-17 9 -28 13t-25 4q-16 0 -26 -8.5t-19 -23.5l-60 33q12 34 38 58.5t66 24.5q19 0 34 -5.5t32 -14.5l25 -12.5t23 -4.5q16 0 24.5 7t16.5 22l56 -31q-5 -15 -14 -29.5t-20.5 -26t-26 -19t-30.5 -7.5q-19 0 -34 5.5
t-32 14.5z" />
    <glyph glyph-name="Odieresis" unicode="&#xd6;" horiz-adv-x="780" 
d="M235 810q0 26 16.5 42.5t42.5 16.5t43 -16.5t17 -42.5t-17 -43t-43 -17t-42.5 17t-16.5 43zM425 810q0 26 16.5 42.5t42.5 16.5t43 -16.5t17 -42.5t-17 -43t-43 -17t-42.5 17t-16.5 43zM744 345q0 -81 -23 -148.5t-68 -115.5t-111 -74.5t-152 -26.5t-152 26.5t-111 74.5
t-68 115.5t-23 148.5t23 148.5t68 115.5t111 74.5t152 26.5t152 -26.5t111 -74.5t68 -115.5t23 -148.5zM180 345q0 -127 56.5 -194.5t153.5 -67.5t153.5 67.5t56.5 194.5t-56.5 194.5t-153.5 67.5t-153.5 -67.5t-56.5 -194.5z" />
    <glyph glyph-name="multiply" unicode="&#xd7;" horiz-adv-x="560" 
d="M534 157l-73 -73l-182 183l-181 -183l-73 73l182 184l-177 179l73 73l176 -179l177 179l73 -73l-177 -179z" />
    <glyph glyph-name="Oslash" unicode="&#xd8;" horiz-adv-x="780" 
d="M744 345q0 -81 -23 -148.5t-68 -115.5t-111 -74.5t-152 -26.5q-42 0 -78 6.5t-68 17.5l-52 -89h-86l72 123q-70 48 -106 126t-36 181q0 81 23 148.5t68 115.5t111 74.5t152 26.5q90 0 161 -31l48 82h86l-69 -119q63 -48 95.5 -124t32.5 -173zM180 345q0 -131 60 -199
l254 435q-46 26 -104 26q-97 0 -153.5 -67.5t-56.5 -194.5zM390 83q97 0 153.5 67.5t56.5 194.5q0 59 -13 105.5t-37 79.5l-250 -429q40 -18 90 -18z" />
    <glyph glyph-name="Ugrave" unicode="&#xd9;" horiz-adv-x="724" 
d="M70 601q0 23 -4.5 36.5t-17.5 27.5q-8 10 -4.5 17.5t13.5 7.5h157v-442q0 -76 35.5 -119t112.5 -43q76 0 112 43t36 119v442h144v-454q0 -65 -22 -113.5t-61 -80t-92.5 -47t-116.5 -15.5t-116.5 15.5t-92.5 47t-61 80t-22 113.5v365zM451 744h-88l-129 134h140z" />
    <glyph glyph-name="Uacute" unicode="&#xda;" horiz-adv-x="724" 
d="M70 601q0 23 -4.5 36.5t-17.5 27.5q-8 10 -4.5 17.5t13.5 7.5h157v-442q0 -76 35.5 -119t112.5 -43q76 0 112 43t36 119v442h144v-454q0 -65 -22 -113.5t-61 -80t-92.5 -47t-116.5 -15.5t-116.5 15.5t-92.5 47t-61 80t-22 113.5v365zM356 878h140l-129 -134h-88z" />
    <glyph glyph-name="Ucircumflex" unicode="&#xdb;" horiz-adv-x="724" 
d="M70 601q0 23 -4.5 36.5t-17.5 27.5q-8 10 -4.5 17.5t13.5 7.5h157v-442q0 -76 35.5 -119t112.5 -43q76 0 112 43t36 119v442h144v-454q0 -65 -22 -113.5t-61 -80t-92.5 -47t-116.5 -15.5t-116.5 15.5t-92.5 47t-61 80t-22 113.5v365zM303 878h124l109 -134h-117l-54 71
l-54 -71h-117z" />
    <glyph glyph-name="Udieresis" unicode="&#xdc;" horiz-adv-x="724" 
d="M70 601q0 23 -4.5 36.5t-17.5 27.5q-8 10 -4.5 17.5t13.5 7.5h157v-442q0 -76 35.5 -119t112.5 -43q76 0 112 43t36 119v442h144v-454q0 -65 -22 -113.5t-61 -80t-92.5 -47t-116.5 -15.5t-116.5 15.5t-92.5 47t-61 80t-22 113.5v365zM211 810q0 26 16.5 42.5t42.5 16.5
t43 -16.5t17 -42.5t-17 -43t-43 -17t-42.5 17t-16.5 43zM401 810q0 26 16.5 42.5t42.5 16.5t43 -16.5t17 -42.5t-17 -43t-43 -17t-42.5 17t-16.5 43z" />
    <glyph glyph-name="Yacute" unicode="&#xdd;" horiz-adv-x="650" 
d="M328 387l160 303h155l-242 -434v-256h-146v255l-192 346q-12 23 -24.5 37.5t-23.5 24.5t-8 18.5t13 8.5h148zM356 878h140l-129 -134h-88z" />
    <glyph glyph-name="Thorn" unicode="&#xde;" horiz-adv-x="642" 
d="M99 0v601q0 23 -4.5 36.5t-17.5 27.5q-8 10 -4.5 17.5t13.5 7.5h157v-103q21 7 44.5 10.5t50.5 3.5q64 0 113.5 -18.5t84 -52.5t52.5 -80.5t18 -102.5q0 -55 -17 -102t-50.5 -81t-84.5 -53.5t-118 -19.5q-25 0 -48.5 3.5t-44.5 9.5v-104h-144zM334 504q-49 0 -91 -21
v-281q21 -8 43.5 -11t46.5 -3q66 0 100 43.5t34 115.5q0 33 -8.5 61.5t-25 49.5t-41.5 33.5t-58 12.5z" />
    <glyph glyph-name="germandbls" unicode="&#xdf;" horiz-adv-x="603" 
d="M214 0h-144v515q0 91 55 143t183 52q47 0 89 -14t74 -40t51 -63.5t19 -84.5q0 -20 -4 -40t-12.5 -38.5t-22 -33t-31.5 -23.5q27 -12 47 -30.5t33.5 -40t20 -45.5t6.5 -47q-1 -44 -16.5 -82.5t-48 -67t-83.5 -44.5t-122 -16h-52v98h55q61 0 90 30t29 78q0 21 -7.5 40
t-21.5 34t-35 24t-48 9h-77v98h70q23 0 39.5 8.5t27 22t15 31t4.5 35.5q0 45 -23 74.5t-70 29.5q-23 0 -40 -8t-28 -21.5t-16.5 -30.5t-5.5 -35v-517z" />
    <glyph glyph-name="agrave" unicode="&#xe0;" horiz-adv-x="545" 
d="M345 222h-89q-51 0 -73 -21.5t-22 -56.5q0 -29 16.5 -47t47.5 -18q36 0 66.5 15.5t53.5 41.5v86zM260 420q-41 0 -80.5 -15t-69.5 -35q-15 -10 -23 -5.5t-8 19.5v93q19 9 43 15.5t49.5 11.5t50.5 7.5t47 2.5q103 0 159 -40t56 -123v-351h-136v54q-29 -36 -68.5 -53
t-84.5 -17q-37 0 -68 11.5t-53 32.5t-34.5 50t-12.5 64q0 80 56 126t174 46h88v37q0 37 -21.5 53t-63.5 16zM356 554h-88l-129 134h140z" />
    <glyph glyph-name="aacute" unicode="&#xe1;" horiz-adv-x="545" 
d="M345 222h-89q-51 0 -73 -21.5t-22 -56.5q0 -29 16.5 -47t47.5 -18q36 0 66.5 15.5t53.5 41.5v86zM260 420q-41 0 -80.5 -15t-69.5 -35q-15 -10 -23 -5.5t-8 19.5v93q19 9 43 15.5t49.5 11.5t50.5 7.5t47 2.5q103 0 159 -40t56 -123v-351h-136v54q-29 -36 -68.5 -53
t-84.5 -17q-37 0 -68 11.5t-53 32.5t-34.5 50t-12.5 64q0 80 56 126t174 46h88v37q0 37 -21.5 53t-63.5 16zM261 688h140l-129 -134h-88z" />
    <glyph glyph-name="acircumflex" unicode="&#xe2;" horiz-adv-x="545" 
d="M345 222h-89q-51 0 -73 -21.5t-22 -56.5q0 -29 16.5 -47t47.5 -18q36 0 66.5 15.5t53.5 41.5v86zM260 420q-41 0 -80.5 -15t-69.5 -35q-15 -10 -23 -5.5t-8 19.5v93q19 9 43 15.5t49.5 11.5t50.5 7.5t47 2.5q103 0 159 -40t56 -123v-351h-136v54q-29 -36 -68.5 -53
t-84.5 -17q-37 0 -68 11.5t-53 32.5t-34.5 50t-12.5 64q0 80 56 126t174 46h88v37q0 37 -21.5 53t-63.5 16zM205 688h124l109 -134h-117l-54 71l-54 -71h-117z" />
    <glyph glyph-name="atilde" unicode="&#xe3;" horiz-adv-x="545" 
d="M345 222h-89q-51 0 -73 -21.5t-22 -56.5q0 -29 16.5 -47t47.5 -18q36 0 66.5 15.5t53.5 41.5v86zM260 420q-41 0 -80.5 -15t-69.5 -35q-15 -10 -23 -5.5t-8 19.5v93q19 9 43 15.5t49.5 11.5t50.5 7.5t47 2.5q103 0 159 -40t56 -123v-351h-136v54q-29 -36 -68.5 -53
t-84.5 -17q-37 0 -68 11.5t-53 32.5t-34.5 50t-12.5 64q0 80 56 126t174 46h88v37q0 37 -21.5 53t-63.5 16zM267 574q-17 9 -28 13t-25 4q-16 0 -26 -8.5t-19 -23.5l-60 33q12 34 38 58.5t66 24.5q19 0 34 -5.5t32 -14.5l25 -12.5t23 -4.5q16 0 24.5 7t16.5 22l56 -31
q-5 -15 -14 -29.5t-20.5 -26t-26 -19t-30.5 -7.5q-19 0 -34 5.5t-32 14.5z" />
    <glyph glyph-name="adieresis" unicode="&#xe4;" horiz-adv-x="545" 
d="M345 222h-89q-51 0 -73 -21.5t-22 -56.5q0 -29 16.5 -47t47.5 -18q36 0 66.5 15.5t53.5 41.5v86zM260 420q-41 0 -80.5 -15t-69.5 -35q-15 -10 -23 -5.5t-8 19.5v93q19 9 43 15.5t49.5 11.5t50.5 7.5t47 2.5q103 0 159 -40t56 -123v-351h-136v54q-29 -36 -68.5 -53
t-84.5 -17q-37 0 -68 11.5t-53 32.5t-34.5 50t-12.5 64q0 80 56 126t174 46h88v37q0 37 -21.5 53t-63.5 16zM127 620q0 26 16.5 42.5t42.5 16.5t43 -16.5t17 -42.5t-17 -43t-43 -17t-42.5 17t-16.5 43zM317 620q0 26 16.5 42.5t42.5 16.5t43 -16.5t17 -42.5t-17 -43t-43 -17
t-42.5 17t-16.5 43z" />
    <glyph glyph-name="aring" unicode="&#xe5;" horiz-adv-x="545" 
d="M345 222h-89q-51 0 -73 -21.5t-22 -56.5q0 -29 16.5 -47t47.5 -18q36 0 66.5 15.5t53.5 41.5v86zM260 420q-41 0 -80.5 -15t-69.5 -35q-15 -10 -23 -5.5t-8 19.5v93q19 9 43 15.5t49.5 11.5t50.5 7.5t47 2.5q103 0 159 -40t56 -123v-351h-136v54q-29 -36 -68.5 -53
t-84.5 -17q-37 0 -68 11.5t-53 32.5t-34.5 50t-12.5 64q0 80 56 126t174 46h88v37q0 37 -21.5 53t-63.5 16zM307 645q0 16 -9.5 26t-26.5 10t-26.5 -10t-9.5 -26t9.5 -26t26.5 -10t26.5 10t9.5 26zM375 645q0 -43 -30.5 -69.5t-73.5 -26.5t-73.5 26.5t-30.5 69.5t30.5 69.5
t73.5 26.5t73.5 -26.5t30.5 -69.5z" />
    <glyph glyph-name="ae" unicode="&#xe6;" horiz-adv-x="855" 
d="M484 214q5 -70 39 -102.5t98 -32.5q33 0 72 9t76 33l21 -65q4 -13 -10 -25.5t-40.5 -23t-63 -17t-76.5 -6.5q-58 0 -109 19t-87 61q-38 -49 -89 -64.5t-120 -15.5q-37 0 -68 11.5t-53 32.5t-34.5 50t-12.5 64q0 34 12.5 66.5t41.5 58t76.5 40.5t117.5 15h72q1 8 4 26.5
t11 37.5q-11 10 -33.5 22t-68.5 12q-41 0 -80.5 -15t-69.5 -35q-15 -10 -23 -5.5t-8 19.5v93q19 9 43 15.5t49.5 11.5t50.5 7.5t47 2.5q54 0 98.5 -11t73.5 -34q28 21 63.5 33t80.5 12q57 0 101.5 -20.5t75.5 -56t47.5 -83.5t16.5 -103v-37h-342zM273 230q-34 0 -55.5 -6.5
t-34 -18.5t-17.5 -27.5t-5 -33.5q0 -32 18 -48.5t49 -16.5q42 0 75.5 15.5t61.5 41.5q-9 21 -13.5 46t-4.5 48h-74zM686 306q-2 22 -8.5 42.5t-19 36.5t-30.5 25t-43 9q-24 0 -42 -9.5t-31 -25.5t-20 -36t-8 -42h202z" />
    <glyph glyph-name="ccedilla" unicode="&#xe7;" horiz-adv-x="495" 
d="M301 417q-33 0 -58 -13t-41.5 -35.5t-25 -53t-8.5 -65.5q0 -76 34 -122.5t100 -46.5q38 0 72.5 9t67.5 31l28 -68q3 -9 -6.5 -19.5t-28.5 -20t-45 -17t-55 -10.5l-17 -33q34 -10 48.5 -30.5t14.5 -52.5q0 -45 -31.5 -70.5t-94.5 -25.5q-27 0 -56 7.5t-48 18.5l27 59
q17 -9 32 -13.5t32 -4.5q20 0 29.5 9t9.5 22q0 7 -3 15t-13 14.5t-27.5 11.5t-46.5 5l34 74q-47 10 -83.5 33.5t-61.5 57t-38 76t-13 91.5q0 58 19.5 106.5t54.5 83.5t84.5 54.5t109.5 19.5q46 0 82.5 -10t71.5 -27v-88q0 -14 -7.5 -16t-18.5 5q-31 20 -60 29.5t-64 9.5z
" />
    <glyph glyph-name="egrave" unicode="&#xe8;" horiz-adv-x="540" 
d="M169 214q5 -70 39 -102.5t98 -32.5q35 0 73 7.5t75 29.5l21 -60q4 -13 -10 -25.5t-40.5 -23t-63 -17t-76.5 -6.5q-51 0 -97.5 15t-81.5 47t-56 81.5t-21 119.5q0 49 15 97t45 86t76.5 61t109.5 23q57 0 101 -20.5t74 -56t45.5 -83.5t15.5 -103v-37h-342zM371 306
q-2 22 -7.5 42.5t-17 36.5t-29 25t-42.5 9t-44 -9.5t-32.5 -25.5t-21 -36t-8.5 -42h202zM356 554h-88l-129 134h140z" />
    <glyph glyph-name="eacute" unicode="&#xe9;" horiz-adv-x="540" 
d="M169 214q5 -70 39 -102.5t98 -32.5q35 0 73 7.5t75 29.5l21 -60q4 -13 -10 -25.5t-40.5 -23t-63 -17t-76.5 -6.5q-51 0 -97.5 15t-81.5 47t-56 81.5t-21 119.5q0 49 15 97t45 86t76.5 61t109.5 23q57 0 101 -20.5t74 -56t45.5 -83.5t15.5 -103v-37h-342zM371 306
q-2 22 -7.5 42.5t-17 36.5t-29 25t-42.5 9t-44 -9.5t-32.5 -25.5t-21 -36t-8.5 -42h202zM261 688h140l-129 -134h-88z" />
    <glyph glyph-name="ecircumflex" unicode="&#xea;" horiz-adv-x="540" 
d="M169 214q5 -70 39 -102.5t98 -32.5q35 0 73 7.5t75 29.5l21 -60q4 -13 -10 -25.5t-40.5 -23t-63 -17t-76.5 -6.5q-51 0 -97.5 15t-81.5 47t-56 81.5t-21 119.5q0 49 15 97t45 86t76.5 61t109.5 23q57 0 101 -20.5t74 -56t45.5 -83.5t15.5 -103v-37h-342zM371 306
q-2 22 -7.5 42.5t-17 36.5t-29 25t-42.5 9t-44 -9.5t-32.5 -25.5t-21 -36t-8.5 -42h202zM215 688h124l109 -134h-117l-54 71l-54 -71h-117z" />
    <glyph glyph-name="edieresis" unicode="&#xeb;" horiz-adv-x="540" 
d="M169 214q5 -70 39 -102.5t98 -32.5q35 0 73 7.5t75 29.5l21 -60q4 -13 -10 -25.5t-40.5 -23t-63 -17t-76.5 -6.5q-51 0 -97.5 15t-81.5 47t-56 81.5t-21 119.5q0 49 15 97t45 86t76.5 61t109.5 23q57 0 101 -20.5t74 -56t45.5 -83.5t15.5 -103v-37h-342zM371 306
q-2 22 -7.5 42.5t-17 36.5t-29 25t-42.5 9t-44 -9.5t-32.5 -25.5t-21 -36t-8.5 -42h202zM113 620q0 26 16.5 42.5t42.5 16.5t43 -16.5t17 -42.5t-17 -43t-43 -17t-42.5 17t-16.5 43zM303 620q0 26 16.5 42.5t42.5 16.5t43 -16.5t17 -42.5t-17 -43t-43 -17t-42.5 17t-16.5 43
z" />
    <glyph glyph-name="igrave" unicode="&#xec;" horiz-adv-x="285" 
d="M215 497v-497h-139v410q0 21 -5 34.5t-17 27.5q-8 10 -4.5 17.5t13.5 7.5h152zM242 554h-88l-129 134h140z" />
    <glyph glyph-name="iacute" unicode="&#xed;" horiz-adv-x="285" 
d="M215 497v-497h-139v410q0 21 -5 34.5t-17 27.5q-8 10 -4.5 17.5t13.5 7.5h152zM109 688h140l-129 -134h-88z" />
    <glyph glyph-name="icircumflex" unicode="&#xee;" horiz-adv-x="285" 
d="M215 497v-497h-139v410q0 21 -5 34.5t-17 27.5q-8 10 -4.5 17.5t13.5 7.5h152zM82 688h124l109 -134h-117l-54 71l-54 -71h-117z" />
    <glyph glyph-name="idieresis" unicode="&#xef;" horiz-adv-x="285" 
d="M215 497v-497h-139v410q0 21 -5 34.5t-17 27.5q-8 10 -4.5 17.5t13.5 7.5h152zM-11 620q0 26 16.5 42.5t42.5 16.5t43 -16.5t17 -42.5t-17 -43t-43 -17t-42.5 17t-16.5 43zM179 620q0 26 16.5 42.5t42.5 16.5t43 -16.5t17 -42.5t-17 -43t-43 -17t-42.5 17t-16.5 43z" />
    <glyph glyph-name="eth" unicode="&#xf0;" horiz-adv-x="581" 
d="M415 680l25 -58l-71 -29q83 -65 129.5 -155.5t46.5 -202.5q0 -57 -15.5 -104t-47.5 -80.5t-81.5 -52t-118.5 -18.5q-59 0 -104.5 21t-77 57t-48 83.5t-16.5 101.5q0 48 14 93.5t42 81t68 57t93 21.5q20 0 40.5 -3t34.5 -11q-18 17 -38 32t-42 29l-139 -57l-26 58l89 36
q-14 5 -27 9.5t-27 7.5l31 101q43 -11 82.5 -27t74.5 -36zM176 239q0 -76 30 -119.5t85 -43.5t85 43.5t30 119.5q0 75 -30 118.5t-85 43.5t-85 -43t-30 -119z" />
    <glyph glyph-name="ntilde" unicode="&#xf1;" horiz-adv-x="580" 
d="M46 497h148v-48q27 26 61 45.5t81 19.5q40 0 73.5 -11t58.5 -32t39 -52.5t14 -72.5v-346h-139v334q0 42 -18.5 61t-60.5 19q-29 0 -55 -11.5t-50 -32.5v-370h-139v408q0 23 -4.5 36.5t-17.5 27.5q-8 10 -4.5 17.5t13.5 7.5zM295 574q-17 9 -28 13t-25 4q-16 0 -26 -8.5
t-19 -23.5l-60 33q12 34 38 58.5t66 24.5q19 0 34 -5.5t32 -14.5l25 -12.5t23 -4.5q16 0 24.5 7t16.5 22l56 -31q-5 -15 -14 -29.5t-20.5 -26t-26 -19t-30.5 -7.5q-19 0 -34 5.5t-32 14.5z" />
    <glyph glyph-name="ograve" unicode="&#xf2;" horiz-adv-x="590" 
d="M427 249q0 79 -35.5 123.5t-96.5 44.5t-96.5 -44.5t-35.5 -123.5t35.5 -123.5t96.5 -44.5t96.5 44.5t35.5 123.5zM566 249q0 -58 -20.5 -106.5t-56.5 -84t-86 -55t-108 -19.5q-59 0 -108.5 19.5t-85.5 55t-56.5 84t-20.5 106.5t20.5 106.5t56.5 84t85.5 55t108.5 19.5
q58 0 108 -19.5t86 -55t56.5 -84t20.5 -106.5zM386 554h-88l-129 134h140z" />
    <glyph glyph-name="oacute" unicode="&#xf3;" horiz-adv-x="590" 
d="M427 249q0 79 -35.5 123.5t-96.5 44.5t-96.5 -44.5t-35.5 -123.5t35.5 -123.5t96.5 -44.5t96.5 44.5t35.5 123.5zM566 249q0 -58 -20.5 -106.5t-56.5 -84t-86 -55t-108 -19.5q-59 0 -108.5 19.5t-85.5 55t-56.5 84t-20.5 106.5t20.5 106.5t56.5 84t85.5 55t108.5 19.5
q58 0 108 -19.5t86 -55t56.5 -84t20.5 -106.5zM291 688h140l-129 -134h-88z" />
    <glyph glyph-name="ocircumflex" unicode="&#xf4;" horiz-adv-x="590" 
d="M427 249q0 79 -35.5 123.5t-96.5 44.5t-96.5 -44.5t-35.5 -123.5t35.5 -123.5t96.5 -44.5t96.5 44.5t35.5 123.5zM566 249q0 -58 -20.5 -106.5t-56.5 -84t-86 -55t-108 -19.5q-59 0 -108.5 19.5t-85.5 55t-56.5 84t-20.5 106.5t20.5 106.5t56.5 84t85.5 55t108.5 19.5
q58 0 108 -19.5t86 -55t56.5 -84t20.5 -106.5zM233 688h124l109 -134h-117l-54 71l-54 -71h-117z" />
    <glyph glyph-name="otilde" unicode="&#xf5;" horiz-adv-x="590" 
d="M427 249q0 79 -35.5 123.5t-96.5 44.5t-96.5 -44.5t-35.5 -123.5t35.5 -123.5t96.5 -44.5t96.5 44.5t35.5 123.5zM566 249q0 -58 -20.5 -106.5t-56.5 -84t-86 -55t-108 -19.5q-59 0 -108.5 19.5t-85.5 55t-56.5 84t-20.5 106.5t20.5 106.5t56.5 84t85.5 55t108.5 19.5
q58 0 108 -19.5t86 -55t56.5 -84t20.5 -106.5zM295 574q-17 9 -28 13t-25 4q-16 0 -26 -8.5t-19 -23.5l-60 33q12 34 38 58.5t66 24.5q19 0 34 -5.5t32 -14.5l25 -12.5t23 -4.5q16 0 24.5 7t16.5 22l56 -31q-5 -15 -14 -29.5t-20.5 -26t-26 -19t-30.5 -7.5q-19 0 -34 5.5
t-32 14.5z" />
    <glyph glyph-name="odieresis" unicode="&#xf6;" horiz-adv-x="590" 
d="M140 620q0 26 16.5 42.5t42.5 16.5t43 -16.5t17 -42.5t-17 -43t-43 -17t-42.5 17t-16.5 43zM330 620q0 26 16.5 42.5t42.5 16.5t43 -16.5t17 -42.5t-17 -43t-43 -17t-42.5 17t-16.5 43zM427 249q0 79 -35.5 123.5t-96.5 44.5t-96.5 -44.5t-35.5 -123.5t35.5 -123.5
t96.5 -44.5t96.5 44.5t35.5 123.5zM566 249q0 -58 -20.5 -106.5t-56.5 -84t-86 -55t-108 -19.5q-59 0 -108.5 19.5t-85.5 55t-56.5 84t-20.5 106.5t20.5 106.5t56.5 84t85.5 55t108.5 19.5q58 0 108 -19.5t86 -55t56.5 -84t20.5 -106.5z" />
    <glyph glyph-name="divide" unicode="&#xf7;" horiz-adv-x="580" 
d="M213 136q0 33 21.5 54.5t54.5 21.5q34 0 55.5 -21.5t21.5 -54.5q0 -32 -21.5 -54.5t-55.5 -22.5q-33 0 -54.5 22.5t-21.5 54.5zM213 543q0 33 21.5 54.5t54.5 21.5q34 0 55.5 -21.5t21.5 -54.5q0 -32 -21.5 -54.5t-55.5 -22.5q-33 0 -54.5 22.5t-21.5 54.5zM553 393v-102
h-526v102h526z" />
    <glyph glyph-name="oslash" unicode="&#xf8;" horiz-adv-x="590" 
d="M566 249q0 -58 -20.5 -106.5t-56.5 -84t-86 -55t-108 -19.5q-39 0 -75 9l-32 -78h-74l43 102q-61 33 -97 93.5t-36 138.5q0 58 20.5 106.5t56.5 84t85.5 55t108.5 19.5q17 0 33.5 -2t33.5 -5l35 84h74l-45 -107q64 -32 102 -93t38 -142zM427 249q0 44 -11.5 77t-32.5 55
l-124 -296q15 -4 36 -4q61 0 96.5 44.5t35.5 123.5zM295 417q-61 0 -96.5 -44.5t-35.5 -123.5q0 -83 38 -127l122 292q-14 3 -28 3z" />
    <glyph glyph-name="ugrave" unicode="&#xf9;" horiz-adv-x="575" 
d="M60 157v253q0 21 -5 34.5t-17 27.5q-8 10 -4.5 17.5t13.5 7.5h152v-334q0 -39 13 -59t54 -20q32 0 60 13.5t49 36.5v363h139v-497h-136v52q-22 -32 -61.5 -50t-78.5 -18q-84 0 -131 45.5t-47 127.5zM376 554h-88l-129 134h140z" />
    <glyph glyph-name="uacute" unicode="&#xfa;" horiz-adv-x="575" 
d="M60 157v253q0 21 -5 34.5t-17 27.5q-8 10 -4.5 17.5t13.5 7.5h152v-334q0 -39 13 -59t54 -20q32 0 60 13.5t49 36.5v363h139v-497h-136v52q-22 -32 -61.5 -50t-78.5 -18q-84 0 -131 45.5t-47 127.5zM271 688h140l-129 -134h-88z" />
    <glyph glyph-name="ucircumflex" unicode="&#xfb;" horiz-adv-x="575" 
d="M60 157v253q0 21 -5 34.5t-17 27.5q-8 10 -4.5 17.5t13.5 7.5h152v-334q0 -39 13 -59t54 -20q32 0 60 13.5t49 36.5v363h139v-497h-136v52q-22 -32 -61.5 -50t-78.5 -18q-84 0 -131 45.5t-47 127.5zM233 688h124l109 -134h-117l-54 71l-54 -71h-117z" />
    <glyph glyph-name="udieresis" unicode="&#xfc;" horiz-adv-x="575" 
d="M60 157v253q0 21 -5 34.5t-17 27.5q-8 10 -4.5 17.5t13.5 7.5h152v-334q0 -39 13 -59t54 -20q32 0 60 13.5t49 36.5v363h139v-497h-136v52q-22 -32 -61.5 -50t-78.5 -18q-84 0 -131 45.5t-47 127.5zM141 620q0 26 16.5 42.5t42.5 16.5t43 -16.5t17 -42.5t-17 -43t-43 -17
t-42.5 17t-16.5 43zM331 620q0 26 16.5 42.5t42.5 16.5t43 -16.5t17 -42.5t-17 -43t-43 -17t-42.5 17t-16.5 43z" />
    <glyph glyph-name="yacute" unicode="&#xfd;" horiz-adv-x="595" 
d="M142 -264l92 246q-17 4 -28.5 15t-18.5 28l-131 393q-12 31 -33 52q-10 10 -7.5 18.5t12.5 8.5h142l80 -248l34 -120l36 120l80 248h140l-266 -761h-132zM271 688h140l-129 -134h-88z" />
    <glyph glyph-name="thorn" unicode="&#xfe;" horiz-adv-x="542" 
d="M64 -247v868q0 23 -4.5 36.5t-17.5 27.5q-8 10 -4.5 17.5t13.5 7.5h129v-206q16 3 33 5t37 2q56 0 105 -19.5t85 -54.5t57 -83.5t21 -106.5q0 -57 -19.5 -106t-55.5 -84.5t-85.5 -55.5t-109.5 -20q-34 0 -68 8v-236h-116zM246 414q-37 0 -66 -10v-319q29 -7 65 -7
q66 0 100 46.5t34 122.5q0 35 -8.5 65.5t-25 53t-41.5 35.5t-58 13z" />
    <glyph glyph-name="ydieresis" unicode="&#xff;" horiz-adv-x="595" 
d="M142 -264l92 246q-17 4 -28.5 15t-18.5 28l-131 393q-12 31 -33 52q-10 10 -7.5 18.5t12.5 8.5h142l80 -248l34 -120l36 120l80 248h140l-266 -761h-132zM136 620q0 26 16.5 42.5t42.5 16.5t43 -16.5t17 -42.5t-17 -43t-43 -17t-42.5 17t-16.5 43zM326 620
q0 26 16.5 42.5t42.5 16.5t43 -16.5t17 -42.5t-17 -43t-43 -17t-42.5 17t-16.5 43z" />
    <glyph glyph-name="Amacron" unicode="&#x100;" horiz-adv-x="660" 
d="M235 578q11 29 9.5 47.5t-9.5 33.5q-17 31 17 31h132l266 -690h-145l-70 192h-214l-69 -192h-143zM258 297h139l-70 199zM173 846h285v-82h-285v82z" />
    <glyph glyph-name="amacron" unicode="&#x101;" horiz-adv-x="545" 
d="M345 222h-89q-51 0 -73 -21.5t-22 -56.5q0 -29 16.5 -47t47.5 -18q36 0 66.5 15.5t53.5 41.5v86zM260 420q-41 0 -80.5 -15t-69.5 -35q-15 -10 -23 -5.5t-8 19.5v93q19 9 43 15.5t49.5 11.5t50.5 7.5t47 2.5q103 0 159 -40t56 -123v-351h-136v54q-29 -36 -68.5 -53
t-84.5 -17q-37 0 -68 11.5t-53 32.5t-34.5 50t-12.5 64q0 80 56 126t174 46h88v37q0 37 -21.5 53t-63.5 16zM133 646h285v-82h-285v82z" />
    <glyph glyph-name="Abreve" unicode="&#x102;" horiz-adv-x="660" 
d="M235 578q11 29 9.5 47.5t-9.5 33.5q-17 31 17 31h132l266 -690h-145l-70 192h-214l-69 -192h-143zM258 297h139l-70 199zM326 743q-30 0 -56.5 8.5t-47.5 24.5t-34 39t-16 52h104q5 -26 17.5 -41t32.5 -15q18 -1 31.5 14.5t18.5 41.5h104q-3 -29 -16 -52t-34 -39
t-47.5 -24.5t-56.5 -8.5z" />
    <glyph glyph-name="abreve" unicode="&#x103;" horiz-adv-x="545" 
d="M345 222h-89q-51 0 -73 -21.5t-22 -56.5q0 -29 16.5 -47t47.5 -18q36 0 66.5 15.5t53.5 41.5v86zM260 420q-41 0 -80.5 -15t-69.5 -35q-15 -10 -23 -5.5t-8 19.5v93q19 9 43 15.5t49.5 11.5t50.5 7.5t47 2.5q103 0 159 -40t56 -123v-351h-136v54q-29 -36 -68.5 -53
t-84.5 -17q-37 0 -68 11.5t-53 32.5t-34.5 50t-12.5 64q0 80 56 126t174 46h88v37q0 37 -21.5 53t-63.5 16zM268 563q-30 0 -56.5 8.5t-47.5 24.5t-34 39t-16 52h104q5 -26 17.5 -41t32.5 -15q18 -1 31.5 14.5t18.5 41.5h104q-3 -29 -16 -52t-34 -39t-47.5 -24.5t-56.5 -8.5
z" />
    <glyph glyph-name="Aogonek" unicode="&#x104;" horiz-adv-x="660" 
d="M235 578q11 29 9.5 47.5t-9.5 33.5q-17 31 17 31h132l266 -690h-43q-29 -23 -44 -50.5t-15 -46.5q0 -17 12 -23.5t32 -6.5q12 0 25 4t23 7l23 -67q-26 -14 -47.5 -19.5t-53.5 -5.5q-52 0 -83 24.5t-31 65.5q0 30 13.5 61t43.5 57l-70 192h-214l-69 -192h-143zM258 297
h139l-70 199z" />
    <glyph glyph-name="aogonek" unicode="&#x105;" horiz-adv-x="545" 
d="M260 420q-41 0 -80.5 -15t-69.5 -35q-15 -10 -23 -5.5t-8 19.5v93q19 9 43 15.5t49.5 11.5t50.5 7.5t47 2.5q103 0 159 -40t56 -123v-351h-1q-29 -23 -44 -50.5t-15 -46.5q0 -17 12 -23.5t32 -6.5q12 0 25 4t23 7l23 -67q-26 -14 -47.5 -19.5t-53.5 -5.5q-52 0 -83 24.5
t-31 65.5q0 30 13.5 61t43.5 57h-33v54q-29 -36 -68.5 -53t-84.5 -17q-37 0 -68 11.5t-53 32.5t-34.5 50t-12.5 64q0 80 56 126t174 46h88v37q0 37 -21.5 53t-63.5 16zM345 222h-89q-51 0 -73 -21.5t-22 -56.5q0 -29 16.5 -47t47.5 -18q36 0 66.5 15.5t53.5 41.5v86z" />
    <glyph glyph-name="Cacute" unicode="&#x106;" horiz-adv-x="650" 
d="M378 607q-50 0 -87 -19t-61 -53.5t-36 -82.5t-12 -106q0 -128 53 -195.5t148 -67.5q49 0 95.5 14.5t97.5 52.5l33 -68q5 -11 -9.5 -28t-45 -33.5t-76.5 -28.5t-104 -12q-82 0 -145 26t-106 74t-65 115.5t-22 150.5q0 82 22 149t64 115t103.5 74t141.5 26q129 0 223 -47
v-109q0 -14 -8.5 -17t-19.5 5q-41 29 -84 47t-100 18zM361 878h140l-129 -134h-88z" />
    <glyph glyph-name="cacute" unicode="&#x107;" horiz-adv-x="500" 
d="M301 417q-33 0 -58 -13t-41.5 -35.5t-25 -53t-8.5 -65.5q0 -76 34 -122.5t100 -46.5q38 0 72.5 9t67.5 31l28 -68q4 -10 -9.5 -22t-38 -22.5t-57 -17.5t-66.5 -7q-64 0 -114 20t-84.5 55.5t-53 84.5t-18.5 106q0 58 19.5 106.5t54.5 83.5t84.5 54.5t109.5 19.5
q46 0 82.5 -10t71.5 -27v-88q0 -14 -7.5 -16t-18.5 5q-31 20 -60 29.5t-64 9.5zM261 688h140l-129 -134h-88z" />
    <glyph glyph-name="Ccircumflex" unicode="&#x108;" horiz-adv-x="650" 
d="M378 607q-50 0 -87 -19t-61 -53.5t-36 -82.5t-12 -106q0 -128 53 -195.5t148 -67.5q49 0 95.5 14.5t97.5 52.5l33 -68q5 -11 -9.5 -28t-45 -33.5t-76.5 -28.5t-104 -12q-82 0 -145 26t-106 74t-65 115.5t-22 150.5q0 82 22 149t64 115t103.5 74t141.5 26q129 0 223 -47
v-109q0 -14 -8.5 -17t-19.5 5q-41 29 -84 47t-100 18zM308 878h124l109 -134h-117l-54 71l-54 -71h-117z" />
    <glyph glyph-name="ccircumflex" unicode="&#x109;" horiz-adv-x="500" 
d="M301 417q-33 0 -58 -13t-41.5 -35.5t-25 -53t-8.5 -65.5q0 -76 34 -122.5t100 -46.5q38 0 72.5 9t67.5 31l28 -68q4 -10 -9.5 -22t-38 -22.5t-57 -17.5t-66.5 -7q-64 0 -114 20t-84.5 55.5t-53 84.5t-18.5 106q0 58 19.5 106.5t54.5 83.5t84.5 54.5t109.5 19.5
q46 0 82.5 -10t71.5 -27v-88q0 -14 -7.5 -16t-18.5 5q-31 20 -60 29.5t-64 9.5zM219 688h124l109 -134h-117l-54 71l-54 -71h-117z" />
    <glyph glyph-name="Cdotaccent" unicode="&#x10a;" horiz-adv-x="650" 
d="M378 607q-50 0 -87 -19t-61 -53.5t-36 -82.5t-12 -106q0 -128 53 -195.5t148 -67.5q49 0 95.5 14.5t97.5 52.5l33 -68q5 -11 -9.5 -28t-45 -33.5t-76.5 -28.5t-104 -12q-82 0 -145 26t-106 74t-65 115.5t-22 150.5q0 82 22 149t64 115t103.5 74t141.5 26q129 0 223 -47
v-109q0 -14 -8.5 -17t-19.5 5q-41 29 -84 47t-100 18zM308 810q0 27 17.5 44.5t44.5 17.5q28 0 45.5 -17.5t17.5 -44.5q0 -28 -17.5 -45.5t-45.5 -17.5q-27 0 -44.5 17.5t-17.5 45.5z" />
    <glyph glyph-name="cdotaccent" unicode="&#x10b;" horiz-adv-x="500" 
d="M301 417q-33 0 -58 -13t-41.5 -35.5t-25 -53t-8.5 -65.5q0 -76 34 -122.5t100 -46.5q38 0 72.5 9t67.5 31l28 -68q4 -10 -9.5 -22t-38 -22.5t-57 -17.5t-66.5 -7q-64 0 -114 20t-84.5 55.5t-53 84.5t-18.5 106q0 58 19.5 106.5t54.5 83.5t84.5 54.5t109.5 19.5
q46 0 82.5 -10t71.5 -27v-88q0 -14 -7.5 -16t-18.5 5q-31 20 -60 29.5t-64 9.5zM209 620q0 27 17.5 44.5t44.5 17.5q28 0 45.5 -17.5t17.5 -44.5q0 -28 -17.5 -45.5t-45.5 -17.5q-27 0 -44.5 17.5t-17.5 45.5z" />
    <glyph glyph-name="Ccaron" unicode="&#x10c;" horiz-adv-x="650" 
d="M378 607q-50 0 -87 -19t-61 -53.5t-36 -82.5t-12 -106q0 -128 53 -195.5t148 -67.5q49 0 95.5 14.5t97.5 52.5l33 -68q5 -11 -9.5 -28t-45 -33.5t-76.5 -28.5t-104 -12q-82 0 -145 26t-106 74t-65 115.5t-22 150.5q0 82 22 149t64 115t103.5 74t141.5 26q129 0 223 -47
v-109q0 -14 -8.5 -17t-19.5 5q-41 29 -84 47t-100 18zM189 878h117l54 -71l54 71h117l-109 -134h-124z" />
    <glyph glyph-name="ccaron" unicode="&#x10d;" horiz-adv-x="500" 
d="M301 417q-33 0 -58 -13t-41.5 -35.5t-25 -53t-8.5 -65.5q0 -76 34 -122.5t100 -46.5q38 0 72.5 9t67.5 31l28 -68q4 -10 -9.5 -22t-38 -22.5t-57 -17.5t-66.5 -7q-64 0 -114 20t-84.5 55.5t-53 84.5t-18.5 106q0 58 19.5 106.5t54.5 83.5t84.5 54.5t109.5 19.5
q46 0 82.5 -10t71.5 -27v-88q0 -14 -7.5 -16t-18.5 5q-31 20 -60 29.5t-64 9.5zM90 688h117l54 -71l54 71h117l-109 -134h-124z" />
    <glyph glyph-name="Dcaron" unicode="&#x10e;" horiz-adv-x="705" 
d="M57 690h265q72 0 135 -20.5t110.5 -62.5t74.5 -107t27 -155t-27 -155t-74.5 -107t-110.5 -62.5t-135 -20.5h-252v601q0 23 -4.5 36.5t-17.5 27.5q-8 10 -4.5 17.5t13.5 7.5zM300 103q66 0 109 17.5t69 49.5t36.5 76.5t10.5 98.5t-10.5 98.5t-36.5 76.5t-69 49.5
t-109 17.5h-86v-484h86zM149 879h117l54 -71l54 71h117l-109 -134h-124z" />
    <glyph glyph-name="dcaron" unicode="&#x10f;" horiz-adv-x="720" 
d="M536 709v-709h-136v51q-26 -34 -63.5 -50.5t-77.5 -16.5q-51 0 -93 19.5t-72.5 54.5t-47.5 83.5t-17 106.5q0 63 17.5 112t50 83.5t78 52.5t101.5 18q38 0 69 -10t52 -24v140q0 23 -4.5 36.5t-17.5 27.5q-8 10 -4.5 17.5t13.5 7.5h152zM298 417q-130 0 -130 -169
q0 -45 10 -76.5t26.5 -52t38.5 -29.5t45 -9q34 0 62 16.5t47 41.5v242q-17 14 -43.5 25t-55.5 11zM576 529q12 11 20 21t13 21.5t7 25.5t2 33v79h102v-79q0 -23 -8 -45t-21 -42t-30 -36.5t-35 -28.5z" />
    <glyph glyph-name="Dcroat" unicode="&#x110;" horiz-adv-x="738" 
d="M10 376h105v225q0 23 -4.5 36.5t-17.5 27.5q-8 10 -4.5 17.5t13.5 7.5h265q72 0 135 -20.5t110.5 -62.5t74.5 -107t27 -155t-27 -155t-74.5 -107t-110.5 -62.5t-135 -20.5h-252v308h-105v68zM345 103q66 0 109 17.5t69 49.5t36.5 76.5t10.5 98.5t-10.5 98.5t-36.5 76.5
t-69 49.5t-109 17.5h-86v-211h136v-68h-136v-205h86z" />
    <glyph glyph-name="dcroat" unicode="&#x111;" horiz-adv-x="615" 
d="M247 633h150q-2 17 -6.5 28t-15.5 23q-8 10 -4.5 17.5t13.5 7.5h152v-76h76v-62h-76v-571h-136v51q-26 -34 -63.5 -50.5t-77.5 -16.5q-51 0 -93 19.5t-72.5 54.5t-47.5 83.5t-17 106.5q0 63 17.5 112t50 83.5t78 52.5t101.5 18q38 0 69 -10t52 -24v91h-150v62zM298 417
q-130 0 -130 -169q0 -45 10 -76.5t26.5 -52t38.5 -29.5t45 -9q34 0 62 16.5t47 41.5v242q-17 14 -43.5 25t-55.5 11z" />
    <glyph glyph-name="Emacron" unicode="&#x112;" 
d="M70 0v601q0 23 -4.5 36.5t-17.5 27.5q-8 10 -4.5 17.5t13.5 7.5h424v-103h-267v-190h243v-103h-243v-191h287v-103h-431zM133 846h285v-82h-285v82z" />
    <glyph glyph-name="emacron" unicode="&#x113;" horiz-adv-x="540" 
d="M169 214q5 -70 39 -102.5t98 -32.5q35 0 73 7.5t75 29.5l21 -60q4 -13 -10 -25.5t-40.5 -23t-63 -17t-76.5 -6.5q-51 0 -97.5 15t-81.5 47t-56 81.5t-21 119.5q0 49 15 97t45 86t76.5 61t109.5 23q57 0 101 -20.5t74 -56t45.5 -83.5t15.5 -103v-37h-342zM371 306
q-2 22 -7.5 42.5t-17 36.5t-29 25t-42.5 9t-44 -9.5t-32.5 -25.5t-21 -36t-8.5 -42h202zM133 646h285v-82h-285v82z" />
    <glyph glyph-name="Ebreve" unicode="&#x114;" 
d="M70 0v601q0 23 -4.5 36.5t-17.5 27.5q-8 10 -4.5 17.5t13.5 7.5h424v-103h-267v-190h243v-103h-243v-191h287v-103h-431zM276 743q-30 0 -56.5 8.5t-47.5 24.5t-34 39t-16 52h104q5 -26 17.5 -41t32.5 -15q18 -1 31.5 14.5t18.5 41.5h104q-3 -29 -16 -52t-34 -39
t-47.5 -24.5t-56.5 -8.5z" />
    <glyph glyph-name="ebreve" unicode="&#x115;" horiz-adv-x="540" 
d="M169 214q5 -70 39 -102.5t98 -32.5q35 0 73 7.5t75 29.5l21 -60q4 -13 -10 -25.5t-40.5 -23t-63 -17t-76.5 -6.5q-51 0 -97.5 15t-81.5 47t-56 81.5t-21 119.5q0 49 15 97t45 86t76.5 61t109.5 23q57 0 101 -20.5t74 -56t45.5 -83.5t15.5 -103v-37h-342zM371 306
q-2 22 -7.5 42.5t-17 36.5t-29 25t-42.5 9t-44 -9.5t-32.5 -25.5t-21 -36t-8.5 -42h202zM268 553q-30 0 -56.5 8.5t-47.5 24.5t-34 39t-16 52h104q5 -26 17.5 -41t32.5 -15q18 -1 31.5 14.5t18.5 41.5h104q-3 -29 -16 -52t-34 -39t-47.5 -24.5t-56.5 -8.5z" />
    <glyph glyph-name="Edotaccent" unicode="&#x116;" 
d="M70 0v601q0 23 -4.5 36.5t-17.5 27.5q-8 10 -4.5 17.5t13.5 7.5h424v-103h-267v-190h243v-103h-243v-191h287v-103h-431zM223 810q0 27 17.5 44.5t44.5 17.5q28 0 45.5 -17.5t17.5 -44.5q0 -28 -17.5 -45.5t-45.5 -17.5q-27 0 -44.5 17.5t-17.5 45.5z" />
    <glyph glyph-name="edotaccent" unicode="&#x117;" horiz-adv-x="540" 
d="M169 214q5 -70 39 -102.5t98 -32.5q35 0 73 7.5t75 29.5l21 -60q4 -13 -10 -25.5t-40.5 -23t-63 -17t-76.5 -6.5q-51 0 -97.5 15t-81.5 47t-56 81.5t-21 119.5q0 49 15 97t45 86t76.5 61t109.5 23q57 0 101 -20.5t74 -56t45.5 -83.5t15.5 -103v-37h-342zM371 306
q-2 22 -7.5 42.5t-17 36.5t-29 25t-42.5 9t-44 -9.5t-32.5 -25.5t-21 -36t-8.5 -42h202zM209 620q0 27 17.5 44.5t44.5 17.5q28 0 45.5 -17.5t17.5 -44.5q0 -28 -17.5 -45.5t-45.5 -17.5q-27 0 -44.5 17.5t-17.5 45.5z" />
    <glyph glyph-name="Eogonek" unicode="&#x118;" 
d="M463 0q-29 -23 -44.5 -51t-15.5 -47q0 -17 12 -23.5t32 -6.5q12 0 25 4t23 7l23 -67q-26 -14 -47.5 -19.5t-53.5 -5.5q-52 0 -83 24.5t-31 65.5q0 30 13.5 61.5t44.5 57.5h-291v601q0 23 -4.5 36.5t-17.5 27.5q-8 10 -4.5 17.5t13.5 7.5h424v-103h-267v-190h243v-103
h-243v-191h287v-103h-38z" />
    <glyph glyph-name="eogonek" unicode="&#x119;" horiz-adv-x="540" 
d="M169 214q5 -70 39 -102.5t98 -32.5q35 0 73 7.5t75 29.5l21 -60q5 -17 -18.5 -32.5t-64.5 -26.5q-27 -23 -41.5 -50t-14.5 -45q0 -17 12 -23.5t32 -6.5q12 0 25 4t23 7l23 -67q-26 -14 -47.5 -19.5t-53.5 -5.5q-52 0 -83 24.5t-31 65.5q0 26 9.5 52.5t31.5 50.5
q-50 1 -95 16.5t-79 47.5t-54 81t-20 118q0 49 15 97t45 86t76.5 61t109.5 23q57 0 101 -20.5t74 -56t45.5 -83.5t15.5 -103v-37h-342zM371 306q-2 22 -7.5 42.5t-17 36.5t-29 25t-42.5 9t-44 -9.5t-32.5 -25.5t-21 -36t-8.5 -42h202z" />
    <glyph glyph-name="Ecaron" unicode="&#x11a;" 
d="M70 0v601q0 23 -4.5 36.5t-17.5 27.5q-8 10 -4.5 17.5t13.5 7.5h424v-103h-267v-190h243v-103h-243v-191h287v-103h-431zM104 878h117l54 -71l54 71h117l-109 -134h-124z" />
    <glyph glyph-name="ecaron" unicode="&#x11b;" horiz-adv-x="540" 
d="M169 214q5 -70 39 -102.5t98 -32.5q35 0 73 7.5t75 29.5l21 -60q4 -13 -10 -25.5t-40.5 -23t-63 -17t-76.5 -6.5q-51 0 -97.5 15t-81.5 47t-56 81.5t-21 119.5q0 49 15 97t45 86t76.5 61t109.5 23q57 0 101 -20.5t74 -56t45.5 -83.5t15.5 -103v-37h-342zM371 306
q-2 22 -7.5 42.5t-17 36.5t-29 25t-42.5 9t-44 -9.5t-32.5 -25.5t-21 -36t-8.5 -42h202zM100 688h117l54 -71l54 71h117l-109 -134h-124z" />
    <glyph glyph-name="Gcircumflex" unicode="&#x11c;" horiz-adv-x="725" 
d="M517 107v148q0 21 -5 34.5t-17 27.5q-8 10 -4.5 17.5t13.5 7.5h157v-254q0 -22 -23 -41.5t-60.5 -34.5t-85.5 -23.5t-97 -8.5q-181 0 -270 94t-89 275q0 78 20.5 144t63 114.5t107.5 75.5t154 27q66 0 126.5 -12.5t109.5 -35.5v-107q0 -14 -8.5 -17t-19.5 5
q-39 29 -90 46.5t-107 17.5q-59 0 -99.5 -20t-65.5 -54.5t-36 -81.5t-11 -102q0 -128 51 -197t165 -69q33 0 64 6.5t57 17.5zM323 878h124l109 -134h-117l-54 71l-54 -71h-117z" />
    <glyph glyph-name="gcircumflex" unicode="&#x11d;" horiz-adv-x="585" 
d="M503 326q0 -39 -15.5 -73.5t-44.5 -60t-72.5 -40t-98.5 -14.5q-36 0 -67 6q-24 -27 -24 -55q0 -20 11 -30.5t37 -10.5h99q48 0 89 -10.5t70.5 -31t46 -51.5t16.5 -71q0 -86 -68.5 -130.5t-199.5 -44.5q-134 0 -202.5 45t-68.5 121q0 45 22.5 76.5t58.5 53.5
q-33 31 -33 77q0 30 15 56t43 42q-38 26 -57 63.5t-19 82.5q0 39 15.5 73t44.5 59.5t72 40.5t99 15q42 0 76.5 -8.5t61.5 -23.5q23 11 50 16t45 5q21 0 37 -1.5t33 -5.5v-89q0 -7 -5 -10.5t-14 0.5q-11 5 -22.5 7.5t-25.5 2.5q-6 0 -12 -0.5t-11 -1.5q18 -36 18 -79z
M150 -121q0 -37 28.5 -57.5t103.5 -20.5q74 0 101.5 22t27.5 60q0 34 -18 54.5t-69 20.5h-95q-12 0 -23.5 1t-22.5 3q-19 -20 -26 -42t-7 -41zM364 326q0 45 -23.5 70.5t-68.5 25.5t-68.5 -25.5t-23.5 -70.5t23.5 -70.5t68.5 -25.5t68.5 25.5t23.5 70.5zM214 688h124
l109 -134h-117l-54 71l-54 -71h-117z" />
    <glyph glyph-name="Gbreve" unicode="&#x11e;" horiz-adv-x="725" 
d="M517 107v148q0 21 -5 34.5t-17 27.5q-8 10 -4.5 17.5t13.5 7.5h157v-254q0 -22 -23 -41.5t-60.5 -34.5t-85.5 -23.5t-97 -8.5q-181 0 -270 94t-89 275q0 78 20.5 144t63 114.5t107.5 75.5t154 27q66 0 126.5 -12.5t109.5 -35.5v-107q0 -14 -8.5 -17t-19.5 5
q-39 29 -90 46.5t-107 17.5q-59 0 -99.5 -20t-65.5 -54.5t-36 -81.5t-11 -102q0 -128 51 -197t165 -69q33 0 64 6.5t57 17.5zM386 743q-30 0 -56.5 8.5t-47.5 24.5t-34 39t-16 52h104q5 -26 17.5 -41t32.5 -15q18 -1 31.5 14.5t18.5 41.5h104q-3 -29 -16 -52t-34 -39
t-47.5 -24.5t-56.5 -8.5z" />
    <glyph glyph-name="gbreve" unicode="&#x11f;" horiz-adv-x="590" 
d="M503 326q0 -39 -15.5 -73.5t-44.5 -60t-72.5 -40t-98.5 -14.5q-36 0 -67 6q-24 -27 -24 -55q0 -20 11 -30.5t37 -10.5h99q48 0 89 -10.5t70.5 -31t46 -51.5t16.5 -71q0 -86 -68.5 -130.5t-199.5 -44.5q-134 0 -202.5 45t-68.5 121q0 45 22.5 76.5t58.5 53.5
q-33 31 -33 77q0 30 15 56t43 42q-38 26 -57 63.5t-19 82.5q0 39 15.5 73t44.5 59.5t72 40.5t99 15q42 0 76.5 -8.5t61.5 -23.5q23 11 50 16t45 5q21 0 37 -1.5t33 -5.5v-89q0 -7 -5 -10.5t-14 0.5q-11 5 -22.5 7.5t-25.5 2.5q-6 0 -12 -0.5t-11 -1.5q18 -36 18 -79z
M150 -121q0 -37 28.5 -57.5t103.5 -20.5q74 0 101.5 22t27.5 60q0 34 -18 54.5t-69 20.5h-95q-12 0 -23.5 1t-22.5 3q-19 -20 -26 -42t-7 -41zM364 326q0 45 -23.5 70.5t-68.5 25.5t-68.5 -25.5t-23.5 -70.5t23.5 -70.5t68.5 -25.5t68.5 25.5t23.5 70.5zM278 553
q-30 0 -56.5 8.5t-47.5 24.5t-34 39t-16 52h104q5 -26 17.5 -41t32.5 -15q18 -1 31.5 14.5t18.5 41.5h104q-3 -29 -16 -52t-34 -39t-47.5 -24.5t-56.5 -8.5z" />
    <glyph glyph-name="Gdotaccent" unicode="&#x120;" horiz-adv-x="725" 
d="M517 107v148q0 21 -5 34.5t-17 27.5q-8 10 -4.5 17.5t13.5 7.5h157v-254q0 -22 -23 -41.5t-60.5 -34.5t-85.5 -23.5t-97 -8.5q-181 0 -270 94t-89 275q0 78 20.5 144t63 114.5t107.5 75.5t154 27q66 0 126.5 -12.5t109.5 -35.5v-107q0 -14 -8.5 -17t-19.5 5
q-39 29 -90 46.5t-107 17.5q-59 0 -99.5 -20t-65.5 -54.5t-36 -81.5t-11 -102q0 -128 51 -197t165 -69q33 0 64 6.5t57 17.5zM333 810q0 27 17.5 44.5t44.5 17.5q28 0 45.5 -17.5t17.5 -44.5q0 -28 -17.5 -45.5t-45.5 -17.5q-27 0 -44.5 17.5t-17.5 45.5z" />
    <glyph glyph-name="gdotaccent" unicode="&#x121;" horiz-adv-x="590" 
d="M503 326q0 -39 -15.5 -73.5t-44.5 -60t-72.5 -40t-98.5 -14.5q-36 0 -67 6q-24 -27 -24 -55q0 -20 11 -30.5t37 -10.5h99q48 0 89 -10.5t70.5 -31t46 -51.5t16.5 -71q0 -86 -68.5 -130.5t-199.5 -44.5q-134 0 -202.5 45t-68.5 121q0 45 22.5 76.5t58.5 53.5
q-33 31 -33 77q0 30 15 56t43 42q-38 26 -57 63.5t-19 82.5q0 39 15.5 73t44.5 59.5t72 40.5t99 15q42 0 76.5 -8.5t61.5 -23.5q23 11 50 16t45 5q21 0 37 -1.5t33 -5.5v-89q0 -7 -5 -10.5t-14 0.5q-11 5 -22.5 7.5t-25.5 2.5q-6 0 -12 -0.5t-11 -1.5q18 -36 18 -79z
M150 -121q0 -37 28.5 -57.5t103.5 -20.5q74 0 101.5 22t27.5 60q0 34 -18 54.5t-69 20.5h-95q-12 0 -23.5 1t-22.5 3q-19 -20 -26 -42t-7 -41zM364 326q0 45 -23.5 70.5t-68.5 25.5t-68.5 -25.5t-23.5 -70.5t23.5 -70.5t68.5 -25.5t68.5 25.5t23.5 70.5zM219 620
q0 27 17.5 44.5t44.5 17.5q28 0 45.5 -17.5t17.5 -44.5q0 -28 -17.5 -45.5t-45.5 -17.5q-27 0 -44.5 17.5t-17.5 45.5z" />
    <glyph glyph-name="Gcommaaccent" unicode="&#x122;" horiz-adv-x="725" 
d="M517 107v148q0 21 -5 34.5t-17 27.5q-8 10 -4.5 17.5t13.5 7.5h157v-254q0 -22 -23 -41.5t-60.5 -34.5t-85.5 -23.5t-97 -8.5q-181 0 -270 94t-89 275q0 78 20.5 144t63 114.5t107.5 75.5t154 27q66 0 126.5 -12.5t109.5 -35.5v-107q0 -14 -8.5 -17t-19.5 5
q-39 29 -90 46.5t-107 17.5q-59 0 -99.5 -20t-65.5 -54.5t-36 -81.5t-11 -102q0 -128 51 -197t165 -69q33 0 64 6.5t57 17.5zM287 -250q12 11 20 21t13 21.5t7 25.5t2 33v79h102v-79q0 -23 -8 -45t-21 -42t-30 -36.5t-35 -28.5z" />
    <glyph glyph-name="gcommaaccent" unicode="&#x123;" horiz-adv-x="590" 
d="M503 326q0 -39 -15.5 -73.5t-44.5 -60t-72.5 -40t-98.5 -14.5q-36 0 -67 6q-24 -27 -24 -55q0 -20 11 -30.5t37 -10.5h99q48 0 89 -10.5t70.5 -31t46 -51.5t16.5 -71q0 -86 -68.5 -130.5t-199.5 -44.5q-134 0 -202.5 45t-68.5 121q0 45 22.5 76.5t58.5 53.5
q-33 31 -33 77q0 30 15 56t43 42q-38 26 -57 63.5t-19 82.5q0 39 15.5 73t44.5 59.5t72 40.5t99 15q42 0 76.5 -8.5t61.5 -23.5q23 11 50 16t45 5q21 0 37 -1.5t33 -5.5v-89q0 -7 -5 -10.5t-14 0.5q-11 5 -22.5 7.5t-25.5 2.5q-6 0 -12 -0.5t-11 -1.5q18 -36 18 -79z
M150 -121q0 -37 28.5 -57.5t103.5 -20.5q74 0 101.5 22t27.5 60q0 34 -18 54.5t-69 20.5h-95q-12 0 -23.5 1t-22.5 3q-19 -20 -26 -42t-7 -41zM364 326q0 45 -23.5 70.5t-68.5 25.5t-68.5 -25.5t-23.5 -70.5t23.5 -70.5t68.5 -25.5t68.5 25.5t23.5 70.5zM362 733
q-12 -11 -20 -21t-13 -21.5t-7 -25.5t-2 -33v-79h-102v79q0 22 8 44.5t21 42.5t30 36.5t35 28.5z" />
    <glyph glyph-name="Hcircumflex" unicode="&#x124;" horiz-adv-x="685" 
d="M615 690v-690h-144v305h-257v-305h-144v601q0 23 -4.5 36.5t-17.5 27.5q-8 10 -4.5 17.5t13.5 7.5h157v-279h257v279h144zM285 878h124l109 -134h-117l-54 71l-54 -71h-117z" />
    <glyph glyph-name="hcircumflex" unicode="&#x125;" horiz-adv-x="585" 
d="M51 710h152v-247q28 24 62.5 37.5t76.5 13.5t76 -11.5t58 -32.5t37 -50t13 -64v-356h-139v337q0 74 -80 74q-27 0 -52.5 -11t-51.5 -31v-369h-139v621q0 23 -4.5 36.5t-17.5 27.5q-8 10 -4.5 17.5t13.5 7.5zM243 878h124l109 -134h-117l-54 71l-54 -71h-117z" />
    <glyph glyph-name="Hbar" unicode="&#x126;" horiz-adv-x="695" 
d="M5 574h70v27q0 23 -4.5 36.5t-17.5 27.5q-8 10 -4.5 17.5t13.5 7.5h157v-116h257v116h144v-116h70v-68h-70v-506h-144v305h-257v-305h-144v506h-70v68zM476 411v95h-257v-95h257z" />
    <glyph glyph-name="hbar" unicode="&#x127;" horiz-adv-x="625" 
d="M10 639h98q-2 14 -6.5 24.5t-14.5 21.5q-8 10 -4.5 17.5t13.5 7.5h152v-71h137v-66h-137v-110q28 24 62.5 37.5t76.5 13.5t76 -11.5t58 -32.5t37 -50t13 -64v-356h-139v337q0 74 -80 74q-27 0 -52.5 -11t-51.5 -31v-369h-139v573h-99v66z" />
    <glyph glyph-name="Itilde" unicode="&#x128;" horiz-adv-x="335" 
d="M99 0v601q0 23 -4.5 36.5t-17.5 27.5q-8 10 -4.5 17.5t13.5 7.5h157v-690h-144zM162 764q-17 9 -28 13t-25 4q-16 0 -26 -8.5t-19 -23.5l-60 33q12 34 38 58.5t66 24.5q19 0 34 -5.5t32 -14.5l25 -12.5t23 -4.5q16 0 24.5 7t16.5 22l56 -31q-5 -15 -14 -29.5t-20.5 -26
t-26 -19t-30.5 -7.5q-19 0 -34 5.5t-32 14.5z" />
    <glyph glyph-name="itilde" unicode="&#x129;" horiz-adv-x="285" 
d="M215 497v-497h-139v410q0 21 -5 34.5t-17 27.5q-8 10 -4.5 17.5t13.5 7.5h152zM148 584q-17 9 -28 13t-25 4q-16 0 -26 -8.5t-19 -23.5l-60 33q12 34 38 58.5t66 24.5q19 0 34 -5.5t32 -14.5l25 -12.5t23 -4.5q16 0 24.5 7t16.5 22l56 -31q-5 -15 -14 -29.5t-20.5 -26
t-26 -19t-30.5 -7.5q-19 0 -34 5.5t-32 14.5z" />
    <glyph glyph-name="Imacron" unicode="&#x12a;" horiz-adv-x="335" 
d="M99 0v601q0 23 -4.5 36.5t-17.5 27.5q-8 10 -4.5 17.5t13.5 7.5h157v-690h-144zM20 846h285v-82h-285v82z" />
    <glyph glyph-name="imacron" unicode="&#x12b;" horiz-adv-x="285" 
d="M215 497v-497h-139v410q0 21 -5 34.5t-17 27.5q-8 10 -4.5 17.5t13.5 7.5h152zM1 646h285v-82h-285v82z" />
    <glyph glyph-name="Ibreve" unicode="&#x12c;" horiz-adv-x="335" 
d="M99 0v601q0 23 -4.5 36.5t-17.5 27.5q-8 10 -4.5 17.5t13.5 7.5h157v-690h-144zM163 743q-30 0 -56.5 8.5t-47.5 24.5t-34 39t-16 52h104q5 -26 17.5 -41t32.5 -15q18 -1 31.5 14.5t18.5 41.5h104q-3 -29 -16 -52t-34 -39t-47.5 -24.5t-56.5 -8.5z" />
    <glyph glyph-name="ibreve" unicode="&#x12d;" horiz-adv-x="285" 
d="M215 497v-497h-139v410q0 21 -5 34.5t-17 27.5q-8 10 -4.5 17.5t13.5 7.5h152zM143 553q-30 0 -56.5 8.5t-47.5 24.5t-34 39t-16 52h104q5 -26 17.5 -41t32.5 -15q18 -1 31.5 14.5t18.5 41.5h104q-3 -29 -16 -52t-34 -39t-47.5 -24.5t-56.5 -8.5z" />
    <glyph glyph-name="Iogonek" unicode="&#x12e;" horiz-adv-x="335" 
d="M99 0v601q0 23 -4.5 36.5t-17.5 27.5q-8 10 -4.5 17.5t13.5 7.5h157v-690q-29 -23 -44.5 -50.5t-15.5 -46.5q0 -17 12 -23.5t32 -6.5q12 0 25 4t23 7l23 -67q-26 -14 -47.5 -19.5t-53.5 -5.5q-52 0 -83 24.5t-31 65.5q0 30 13.5 61t43.5 57h-41z" />
    <glyph glyph-name="iogonek" unicode="&#x12f;" horiz-adv-x="285" 
d="M209 1q-24 -23 -39 -51t-15 -47q0 -17 12 -23.5t32 -6.5q12 0 25 4t23 7l23 -67q-26 -14 -47.5 -19.5t-53.5 -5.5q-52 0 -83 24.5t-31 65.5q0 30 13.5 61t43.5 57h-42v410q0 21 -5 34.5t-17 27.5q-8 10 -4.5 17.5t13.5 7.5h152v-496zM214 655q0 -36 -23.5 -60t-60.5 -24
t-60.5 24t-23.5 60t23.5 60t60.5 24t60.5 -24t23.5 -60z" />
    <glyph glyph-name="Idotaccent" unicode="&#x130;" horiz-adv-x="335" 
d="M99 0v601q0 23 -4.5 36.5t-17.5 27.5q-8 10 -4.5 17.5t13.5 7.5h157v-690h-144zM100 810q0 27 17.5 44.5t44.5 17.5q28 0 45.5 -17.5t17.5 -44.5q0 -28 -17.5 -45.5t-45.5 -17.5q-27 0 -44.5 17.5t-17.5 45.5z" />
    <glyph glyph-name="dotlessi" unicode="&#x131;" horiz-adv-x="285" 
d="M215 497v-497h-139v410q0 21 -5 34.5t-17 27.5q-8 10 -4.5 17.5t13.5 7.5h152z" />
    <glyph glyph-name="IJ" unicode="&#x132;" horiz-adv-x="735" 
d="M99 0v601q0 23 -4.5 36.5t-17.5 27.5q-8 10 -4.5 17.5t13.5 7.5h157v-690h-144zM355 690h297v-412q0 -75 -22 -132.5t-61.5 -96.5t-94 -59t-118.5 -20q-25 0 -31 20l-21 73q100 8 152 51.5t52 135.5v337h-153v103z" />
    <glyph glyph-name="ij" unicode="&#x133;" horiz-adv-x="540" 
d="M214 655q0 -36 -23.5 -60t-60.5 -24t-60.5 24t-23.5 60t23.5 60t60.5 24t60.5 -24t23.5 -60zM209 497v-497h-139v410q0 21 -5 34.5t-17 27.5q-8 10 -4.5 17.5t13.5 7.5h152zM331 -4v414q0 21 -5 34.5t-17 27.5q-8 10 -4.5 17.5t13.5 7.5h152v-501q0 -59 -20 -111t-48 -88
t-58 -51t-49 1l-46 39q17 16 32 35t26 43.5t17.5 57t6.5 74.5zM309 655q0 36 23.5 60t60.5 24t61 -24t24 -60t-24 -60.5t-61 -24.5t-60.5 24.5t-23.5 60.5z" />
    <glyph glyph-name="Jcircumflex" unicode="&#x134;" horiz-adv-x="445" 
d="M55 690h297v-412q0 -75 -22 -132.5t-61.5 -96.5t-94 -59t-118.5 -20q-25 0 -31 20l-21 73q100 8 152 51.5t52 135.5v337h-153v103zM145 878h124l109 -134h-117l-54 71l-54 -71h-117z" />
    <glyph glyph-name="jcircumflex" unicode="&#x135;" horiz-adv-x="285" 
d="M76 -4v414q0 21 -5 34.5t-17 27.5q-8 10 -4.5 17.5t13.5 7.5h152v-501q0 -59 -20 -111t-48 -88t-58 -51t-49 1l-46 39q17 16 32 35t26 43.5t17.5 57t6.5 74.5zM81 688h124l109 -134h-117l-54 71l-54 -71h-117z" />
    <glyph glyph-name="Kcommaaccent" unicode="&#x136;" horiz-adv-x="635" 
d="M70 0v601q0 23 -4.5 36.5t-17.5 27.5q-8 10 -4.5 17.5t13.5 7.5h157v-287l235 286h163l-245 -301l265 -388h-154l-196 286q-13 18 -24 26t-28 8h-16v-320h-144zM198 -250q12 11 20 21t13 21.5t7 25.5t2 33v79h102v-79q0 -23 -8 -45t-21 -42t-30 -36.5t-35 -28.5z" />
    <glyph glyph-name="kcommaaccent" unicode="&#x137;" horiz-adv-x="555" 
d="M64 0v621q0 23 -4.5 36.5t-17.5 27.5q-8 10 -4.5 17.5t13.5 7.5h152v-407l174 194h159l-188 -212l211 -285h-153l-151 208q-12 17 -19.5 21.5t-20.5 4.5h-12v-234h-139zM173 -250q12 11 20 21t13 21.5t7 25.5t2 33v79h102v-79q0 -23 -8 -45t-21 -42t-30 -36.5t-35 -28.5z
" />
    <glyph glyph-name="kgreenlandic" unicode="&#x138;" horiz-adv-x="561" 
d="M330 285l211 -285h-153l-143 208q-11 17 -19 21.5t-21 4.5h-2v-234h-139v408q0 23 -4.5 36.5t-17.5 27.5q-8 10 -4.5 17.5t13.5 7.5h152v-194l113 151q22 29 49 44t74 15q15 0 28 -1.5t27 -7t31 -14.5t40 -24l-54 -80q-16 10 -30.5 15t-25.5 5q-17 0 -27.5 -7t-26.5 -25z
" />
    <glyph glyph-name="Lacute" unicode="&#x139;" horiz-adv-x="510" 
d="M214 690v-584h272v-106h-416v601q0 23 -4.5 36.5t-17.5 27.5q-8 10 -4.5 17.5t13.5 7.5h157zM151 878h140l-129 -134h-88z" />
    <glyph glyph-name="lacute" unicode="&#x13a;" horiz-adv-x="320" 
d="M219 124q0 -26 11.5 -31t29.5 -5q3 0 9 0.5t9 1.5l11 -78q1 -6 -5.5 -11t-18.5 -8.5t-27.5 -5.5t-33.5 -2q-58 0 -91 30t-33 89v519q0 21 -5 34.5t-17 27.5q-8 10 -4.5 17.5t13.5 7.5h152v-586zM111 878h140l-129 -134h-88z" />
    <glyph glyph-name="Lcommaaccent" unicode="&#x13b;" horiz-adv-x="510" 
d="M214 690v-584h272v-106h-416v601q0 23 -4.5 36.5t-17.5 27.5q-8 10 -4.5 17.5t13.5 7.5h157zM185 -250q12 11 20 21t13 21.5t7 25.5t2 33v79h102v-79q0 -23 -8 -45t-21 -42t-30 -36.5t-35 -28.5z" />
    <glyph glyph-name="lcommaaccent" unicode="&#x13c;" horiz-adv-x="320" 
d="M219 124q0 -26 11.5 -31t29.5 -5q3 0 9 0.5t9 1.5l11 -78q1 -6 -5.5 -11t-18.5 -8.5t-27.5 -5.5t-33.5 -2q-58 0 -91 30t-33 89v519q0 21 -5 34.5t-17 27.5q-8 10 -4.5 17.5t13.5 7.5h152v-586zM68 -250q12 11 20 21t13 21.5t7 25.5t2 33v79h102v-79q0 -23 -8 -45
t-21 -42t-30 -36.5t-35 -28.5z" />
    <glyph glyph-name="Lcaron" unicode="&#x13d;" horiz-adv-x="510" 
d="M214 690v-584h272v-106h-416v601q0 23 -4.5 36.5t-17.5 27.5q-8 10 -4.5 17.5t13.5 7.5h157zM332 510q12 11 20 21t13 21.5t7 25.5t2 33v79h102v-79q0 -23 -8 -45t-21 -42t-30 -36.5t-35 -28.5z" />
    <glyph glyph-name="lcaron" unicode="&#x13e;" horiz-adv-x="330" 
d="M219 124q0 -26 11.5 -31t29.5 -5q3 0 9 0.5t9 1.5l11 -78q1 -6 -5.5 -11t-18.5 -8.5t-27.5 -5.5t-33.5 -2q-58 0 -91 30t-33 89v519q0 21 -5 34.5t-17 27.5q-8 10 -4.5 17.5t13.5 7.5h152v-586zM242 530q12 11 20 21t13 21.5t7 25.5t2 33v79h102v-79q0 -23 -8 -45
t-21 -42t-30 -36.5t-35 -28.5z" />
    <glyph glyph-name="Ldot" unicode="&#x13f;" horiz-adv-x="510" 
d="M214 690v-584h272v-106h-416v601q0 23 -4.5 36.5t-17.5 27.5q-8 10 -4.5 17.5t13.5 7.5h157zM298 370q0 27 17.5 44.5t44.5 17.5q28 0 45.5 -17.5t17.5 -44.5q0 -28 -17.5 -45.5t-45.5 -17.5q-27 0 -44.5 17.5t-17.5 45.5z" />
    <glyph glyph-name="ldot" unicode="&#x140;" horiz-adv-x="330" 
d="M219 124q0 -26 11.5 -31t29.5 -5q3 0 9 0.5t9 1.5l11 -78q1 -6 -5.5 -11t-18.5 -8.5t-27.5 -5.5t-33.5 -2q-58 0 -91 30t-33 89v519q0 21 -5 34.5t-17 27.5q-8 10 -4.5 17.5t13.5 7.5h152v-586zM248 390q0 27 17.5 44.5t44.5 17.5q28 0 45.5 -17.5t17.5 -44.5
q0 -28 -17.5 -45.5t-45.5 -17.5q-27 0 -44.5 17.5t-17.5 45.5z" />
    <glyph glyph-name="Lslash" unicode="&#x141;" horiz-adv-x="550" 
d="M10 281l100 64v256q0 23 -4.5 36.5t-17.5 27.5q-8 10 -4.5 17.5t13.5 7.5h157v-253l116 74v-82l-116 -74v-249h272v-106h-416v263l-100 -64v82z" />
    <glyph glyph-name="lslash" unicode="&#x142;" horiz-adv-x="370" 
d="M249 124q0 -26 11.5 -31t29.5 -5q3 0 9 0.5t9 1.5l11 -78q1 -6 -5.5 -11t-18.5 -8.5t-27.5 -5.5t-33.5 -2q-58 0 -91 30t-33 89v191l-100 -66v82l100 66v246q0 21 -5 34.5t-17 27.5q-8 10 -4.5 17.5t13.5 7.5h152v-240l91 61v-82l-91 -61v-264z" />
    <glyph glyph-name="Nacute" unicode="&#x143;" horiz-adv-x="695" 
d="M70 0v601q0 23 -4.5 36.5t-17.5 27.5q-8 10 -4.5 17.5t13.5 7.5h153l210 -365l70 -129l-9 149v345h144v-690h-142l-213 375l-64 123l8 -153v-345h-144zM323 878h140l-129 -134h-88z" />
    <glyph glyph-name="nacute" unicode="&#x144;" horiz-adv-x="580" 
d="M46 497h148v-48q27 26 61 45.5t81 19.5q40 0 73.5 -11t58.5 -32t39 -52.5t14 -72.5v-346h-139v334q0 42 -18.5 61t-60.5 19q-29 0 -55 -11.5t-50 -32.5v-370h-139v408q0 23 -4.5 36.5t-17.5 27.5q-8 10 -4.5 17.5t13.5 7.5zM266 688h140l-129 -134h-88z" />
    <glyph glyph-name="Ncommaaccent" unicode="&#x145;" horiz-adv-x="695" 
d="M70 0v601q0 23 -4.5 36.5t-17.5 27.5q-8 10 -4.5 17.5t13.5 7.5h153l210 -365l70 -129l-9 149v345h144v-690h-142l-213 375l-64 123l8 -153v-345h-144zM280 -250q12 11 20 21t13 21.5t7 25.5t2 33v79h102v-79q0 -23 -8 -45t-21 -42t-30 -36.5t-35 -28.5z" />
    <glyph glyph-name="ncommaaccent" unicode="&#x146;" horiz-adv-x="580" 
d="M46 497h148v-48q27 26 61 45.5t81 19.5q40 0 73.5 -11t58.5 -32t39 -52.5t14 -72.5v-346h-139v334q0 42 -18.5 61t-60.5 19q-29 0 -55 -11.5t-50 -32.5v-370h-139v408q0 23 -4.5 36.5t-17.5 27.5q-8 10 -4.5 17.5t13.5 7.5zM213 -250q12 11 20 21t13 21.5t7 25.5t2 33v79
h102v-79q0 -23 -8 -45t-21 -42t-30 -36.5t-35 -28.5z" />
    <glyph glyph-name="Ncaron" unicode="&#x147;" horiz-adv-x="695" 
d="M70 0v601q0 23 -4.5 36.5t-17.5 27.5q-8 10 -4.5 17.5t13.5 7.5h153l210 -365l70 -129l-9 149v345h144v-690h-142l-213 375l-64 123l8 -153v-345h-144zM181 878h117l54 -71l54 71h117l-109 -134h-124z" />
    <glyph glyph-name="ncaron" unicode="&#x148;" horiz-adv-x="580" 
d="M46 497h148v-48q27 26 61 45.5t81 19.5q40 0 73.5 -11t58.5 -32t39 -52.5t14 -72.5v-346h-139v334q0 42 -18.5 61t-60.5 19q-29 0 -55 -11.5t-50 -32.5v-370h-139v408q0 23 -4.5 36.5t-17.5 27.5q-8 10 -4.5 17.5t13.5 7.5zM114 688h117l54 -71l54 71h117l-109 -134h-124
z" />
    <glyph glyph-name="napostrophe" unicode="&#x149;" horiz-adv-x="690" 
d="M156 497h148v-48q27 26 61 45.5t81 19.5q40 0 73.5 -11t58.5 -32t39 -52.5t14 -72.5v-346h-139v334q0 42 -18.5 61t-60.5 19q-29 0 -55 -11.5t-50 -32.5v-370h-139v408q0 23 -4.5 36.5t-17.5 27.5q-8 10 -4.5 17.5t13.5 7.5zM2 510q12 11 20 21t13 21.5t7 25.5t2 33v79
h102v-79q0 -23 -8 -45t-21 -42t-30 -36.5t-35 -28.5z" />
    <glyph glyph-name="Eng" unicode="&#x14a;" horiz-adv-x="695" 
d="M70 0v601q0 23 -4.5 36.5t-17.5 27.5q-8 10 -4.5 17.5t13.5 7.5h153l210 -365l70 -129l-9 149v345h144v-694q0 -47 -16 -81.5t-43.5 -59t-64.5 -40t-79 -23.5l-41 101q55 15 78.5 36t23.5 67v4l-213 375l-64 123l8 -153v-345h-144z" />
    <glyph glyph-name="eng" unicode="&#x14b;" horiz-adv-x="580" 
d="M46 497h148v-48q27 26 61 45.5t81 19.5q40 0 73.5 -11t58.5 -32t39 -52.5t14 -72.5v-350q0 -47 -16 -81.5t-43.5 -59t-64.5 -40t-79 -23.5l-41 101q55 15 80 36t25 67v338q0 42 -18.5 61t-60.5 19q-29 0 -55 -11.5t-50 -32.5v-370h-139v408q0 23 -4.5 36.5t-17.5 27.5
q-8 10 -4.5 17.5t13.5 7.5z" />
    <glyph glyph-name="Omacron" unicode="&#x14c;" horiz-adv-x="780" 
d="M247 846h285v-82h-285v82zM744 345q0 -81 -23 -148.5t-68 -115.5t-111 -74.5t-152 -26.5t-152 26.5t-111 74.5t-68 115.5t-23 148.5t23 148.5t68 115.5t111 74.5t152 26.5t152 -26.5t111 -74.5t68 -115.5t23 -148.5zM180 345q0 -127 56.5 -194.5t153.5 -67.5t153.5 67.5
t56.5 194.5t-56.5 194.5t-153.5 67.5t-153.5 -67.5t-56.5 -194.5z" />
    <glyph glyph-name="omacron" unicode="&#x14d;" horiz-adv-x="590" 
d="M152 646h285v-82h-285v82zM427 249q0 79 -35.5 123.5t-96.5 44.5t-96.5 -44.5t-35.5 -123.5t35.5 -123.5t96.5 -44.5t96.5 44.5t35.5 123.5zM566 249q0 -58 -20.5 -106.5t-56.5 -84t-86 -55t-108 -19.5q-59 0 -108.5 19.5t-85.5 55t-56.5 84t-20.5 106.5t20.5 106.5
t56.5 84t85.5 55t108.5 19.5q58 0 108 -19.5t86 -55t56.5 -84t20.5 -106.5z" />
    <glyph glyph-name="Obreve" unicode="&#x14e;" horiz-adv-x="780" 
d="M390 743q-30 0 -56.5 8.5t-47.5 24.5t-34 39t-16 52h104q5 -26 17.5 -41t32.5 -15q18 -1 31.5 14.5t18.5 41.5h104q-3 -29 -16 -52t-34 -39t-47.5 -24.5t-56.5 -8.5zM744 345q0 -81 -23 -148.5t-68 -115.5t-111 -74.5t-152 -26.5t-152 26.5t-111 74.5t-68 115.5
t-23 148.5t23 148.5t68 115.5t111 74.5t152 26.5t152 -26.5t111 -74.5t68 -115.5t23 -148.5zM180 345q0 -127 56.5 -194.5t153.5 -67.5t153.5 67.5t56.5 194.5t-56.5 194.5t-153.5 67.5t-153.5 -67.5t-56.5 -194.5z" />
    <glyph glyph-name="obreve" unicode="&#x14f;" horiz-adv-x="590" 
d="M295 553q-30 0 -56.5 8.5t-47.5 24.5t-34 39t-16 52h104q5 -26 17.5 -41t32.5 -15q18 -1 31.5 14.5t18.5 41.5h104q-3 -29 -16 -52t-34 -39t-47.5 -24.5t-56.5 -8.5zM427 249q0 79 -35.5 123.5t-96.5 44.5t-96.5 -44.5t-35.5 -123.5t35.5 -123.5t96.5 -44.5t96.5 44.5
t35.5 123.5zM566 249q0 -58 -20.5 -106.5t-56.5 -84t-86 -55t-108 -19.5q-59 0 -108.5 19.5t-85.5 55t-56.5 84t-20.5 106.5t20.5 106.5t56.5 84t85.5 55t108.5 19.5q58 0 108 -19.5t86 -55t56.5 -84t20.5 -106.5z" />
    <glyph glyph-name="Ohungarumlaut" unicode="&#x150;" horiz-adv-x="780" 
d="M744 345q0 -81 -23 -148.5t-68 -115.5t-111 -74.5t-152 -26.5t-152 26.5t-111 74.5t-68 115.5t-23 148.5t23 148.5t68 115.5t111 74.5t152 26.5t152 -26.5t111 -74.5t68 -115.5t23 -148.5zM180 345q0 -127 56.5 -194.5t153.5 -67.5t153.5 67.5t56.5 194.5t-56.5 194.5
t-153.5 67.5t-153.5 -67.5t-56.5 -194.5zM491 878h116l-114 -134h-69zM335 878h116l-114 -134h-69z" />
    <glyph glyph-name="ohungarumlaut" unicode="&#x151;" horiz-adv-x="590" 
d="M427 249q0 79 -35.5 123.5t-96.5 44.5t-96.5 -44.5t-35.5 -123.5t35.5 -123.5t96.5 -44.5t96.5 44.5t35.5 123.5zM566 249q0 -58 -20.5 -106.5t-56.5 -84t-86 -55t-108 -19.5q-59 0 -108.5 19.5t-85.5 55t-56.5 84t-20.5 106.5t20.5 106.5t56.5 84t85.5 55t108.5 19.5
q58 0 108 -19.5t86 -55t56.5 -84t20.5 -106.5zM391 688h116l-114 -134h-69zM235 688h116l-114 -134h-69z" />
    <glyph glyph-name="OE" unicode="&#x152;" horiz-adv-x="915" 
d="M390 -20q-86 0 -152 26.5t-111 74.5t-68 115.5t-23 148.5t23 148.5t68 115.5t111 74.5t152 26.5q74 0 134 -20h337v-103h-267v-190h243v-103h-243v-191h287v-103h-357q-60 -20 -134 -20zM390 607q-97 0 -153.5 -67.5t-56.5 -194.5t56.5 -194.5t153.5 -67.5q33 0 60 7v509
q-30 8 -60 8z" />
    <glyph glyph-name="oe" unicode="&#x153;" horiz-adv-x="938" 
d="M567 214q5 -70 39 -102.5t98 -32.5q33 0 72 7t76 30l21 -60q4 -13 -10 -25.5t-40.5 -23t-63 -17t-76.5 -6.5q-28 0 -56.5 5.5t-54 17.5t-47 30t-35.5 43q-29 -45 -82 -70.5t-113 -25.5q-59 0 -108.5 19.5t-85.5 55t-56.5 84t-20.5 106.5t20.5 106.5t56.5 84t85.5 55
t108.5 19.5t113 -26t83 -71q22 44 69.5 70.5t107.5 26.5q57 0 101.5 -20.5t75.5 -56t47.5 -83.5t16.5 -103v-37h-342zM427 249q0 79 -35.5 123.5t-96.5 44.5t-96.5 -44.5t-35.5 -123.5t35.5 -123.5t96.5 -44.5t96.5 44.5t35.5 123.5zM769 306q-2 22 -8.5 42.5t-19 36.5
t-30.5 25t-43 9q-24 0 -42 -9.5t-31 -25.5t-20 -36t-8 -42h202z" />
    <glyph glyph-name="Racute" unicode="&#x154;" horiz-adv-x="600" 
d="M57 690h246q63 0 108 -15.5t73.5 -43t42 -64.5t13.5 -80q0 -75 -31.5 -122t-89.5 -64l194 -301h-151l-176 278q-7 11 -22 11h-50v-289h-144v601q0 23 -4.5 36.5t-17.5 27.5q-8 10 -4.5 17.5t13.5 7.5zM214 387h77q106 0 106 100t-106 100h-77v-200zM293 878h140
l-129 -134h-88z" />
    <glyph glyph-name="racute" unicode="&#x155;" horiz-adv-x="385" 
d="M322 502q11 0 23 -1.5t20 -3.5v-99q0 -14 -6 -15.5t-16 1.5q-13 4 -30 7.5t-37 3.5q-26 0 -45.5 -12t-32.5 -26v-357h-139v410q0 21 -5 34.5t-17 27.5q-8 10 -4.5 17.5t13.5 7.5h149v-79q17 38 48.5 61t78.5 23zM186 688h140l-129 -134h-88z" />
    <glyph glyph-name="Rcommaaccent" unicode="&#x156;" horiz-adv-x="600" 
d="M57 690h246q63 0 108 -15.5t73.5 -43t42 -64.5t13.5 -80q0 -75 -31.5 -122t-89.5 -64l194 -301h-151l-176 278q-7 11 -22 11h-50v-289h-144v601q0 23 -4.5 36.5t-17.5 27.5q-8 10 -4.5 17.5t13.5 7.5zM214 387h77q106 0 106 100t-106 100h-77v-200zM210 -250q12 11 20 21
t13 21.5t7 25.5t2 33v79h102v-79q0 -23 -8 -45t-21 -42t-30 -36.5t-35 -28.5z" />
    <glyph glyph-name="rcommaaccent" unicode="&#x157;" horiz-adv-x="385" 
d="M322 502q11 0 23 -1.5t20 -3.5v-99q0 -14 -6 -15.5t-16 1.5q-13 4 -30 7.5t-37 3.5q-26 0 -45.5 -12t-32.5 -26v-357h-139v410q0 21 -5 34.5t-17 27.5q-8 10 -4.5 17.5t13.5 7.5h149v-79q17 38 48.5 61t78.5 23zM33 -250q12 11 20 21t13 21.5t7 25.5t2 33v79h102v-79
q0 -23 -8 -45t-21 -42t-30 -36.5t-35 -28.5z" />
    <glyph glyph-name="Rcaron" unicode="&#x158;" horiz-adv-x="600" 
d="M57 690h246q63 0 108 -15.5t73.5 -43t42 -64.5t13.5 -80q0 -75 -31.5 -122t-89.5 -64l194 -301h-151l-176 278q-7 11 -22 11h-50v-289h-144v601q0 23 -4.5 36.5t-17.5 27.5q-8 10 -4.5 17.5t13.5 7.5zM214 387h77q106 0 106 100t-106 100h-77v-200zM104 878h117l54 -71
l54 71h117l-109 -134h-124z" />
    <glyph glyph-name="rcaron" unicode="&#x159;" horiz-adv-x="385" 
d="M322 502q11 0 23 -1.5t20 -3.5v-99q0 -14 -6 -15.5t-16 1.5q-13 4 -30 7.5t-37 3.5q-26 0 -45.5 -12t-32.5 -26v-357h-139v410q0 21 -5 34.5t-17 27.5q-8 10 -4.5 17.5t13.5 7.5h149v-79q17 38 48.5 61t78.5 23zM24 688h117l54 -71l54 71h117l-109 -134h-124z" />
    <glyph glyph-name="Sacute" unicode="&#x15a;" 
d="M56 147q20 -16 44.5 -29t51 -22t52 -13.5t47.5 -4.5q54 0 84.5 22.5t30.5 67.5q0 34 -16.5 58t-60.5 47q-50 25 -92.5 45.5t-80.5 53.5q-35 30 -57 69t-22 94q0 39 15.5 71t44.5 55t71.5 36t95.5 13q59 0 108.5 -9.5t95.5 -29.5v-109q0 -12 -9 -15.5t-18 4.5
q-38 32 -76.5 46.5t-83.5 14.5q-47 0 -72.5 -20.5t-25.5 -56.5q0 -26 9.5 -44.5t26.5 -32.5q33 -27 72 -47.5t75 -37.5q34 -17 61.5 -35.5t46 -42t28.5 -54.5t10 -71q0 -51 -20 -87t-55 -59t-82.5 -33.5t-101.5 -10.5q-40 0 -82.5 8.5t-76.5 22.5t-53 30.5t-13 33.5z
M263 878h140l-129 -134h-88z" />
    <glyph glyph-name="sacute" unicode="&#x15b;" horiz-adv-x="435" 
d="M47 122q16 -11 36.5 -18.5t42.5 -13t42.5 -8t35.5 -2.5q67 0 67 45q0 17 -11 29t-42 28q-35 18 -67 37t-63 45q-20 17 -36.5 40.5t-16.5 63.5q0 29 12.5 55.5t35.5 46.5t57 32t77 12q37 0 81.5 -8t78.5 -22v-97q0 -14 -8 -16.5t-21 6.5q-26 18 -58 29.5t-64 11.5
q-28 0 -42.5 -13.5t-14.5 -33.5q0 -14 7.5 -25.5t21.5 -22.5q21 -17 54.5 -34.5t58.5 -31.5q24 -13 41.5 -26t29.5 -29t17.5 -36.5t5.5 -47.5q0 -60 -50.5 -97t-140.5 -37q-34 0 -69 6t-63 16t-44.5 22.5t-12.5 24.5zM201 688h140l-129 -134h-88z" />
    <glyph glyph-name="Scircumflex" unicode="&#x15c;" 
d="M56 147q20 -16 44.5 -29t51 -22t52 -13.5t47.5 -4.5q54 0 84.5 22.5t30.5 67.5q0 34 -16.5 58t-60.5 47q-50 25 -92.5 45.5t-80.5 53.5q-35 30 -57 69t-22 94q0 39 15.5 71t44.5 55t71.5 36t95.5 13q59 0 108.5 -9.5t95.5 -29.5v-109q0 -12 -9 -15.5t-18 4.5
q-38 32 -76.5 46.5t-83.5 14.5q-47 0 -72.5 -20.5t-25.5 -56.5q0 -26 9.5 -44.5t26.5 -32.5q33 -27 72 -47.5t75 -37.5q34 -17 61.5 -35.5t46 -42t28.5 -54.5t10 -71q0 -51 -20 -87t-55 -59t-82.5 -33.5t-101.5 -10.5q-40 0 -82.5 8.5t-76.5 22.5t-53 30.5t-13 33.5z
M200 878h124l109 -134h-117l-54 71l-54 -71h-117z" />
    <glyph glyph-name="scircumflex" unicode="&#x15d;" horiz-adv-x="435" 
d="M47 122q16 -11 36.5 -18.5t42.5 -13t42.5 -8t35.5 -2.5q67 0 67 45q0 17 -11 29t-42 28q-35 18 -67 37t-63 45q-20 17 -36.5 40.5t-16.5 63.5q0 29 12.5 55.5t35.5 46.5t57 32t77 12q37 0 81.5 -8t78.5 -22v-97q0 -14 -8 -16.5t-21 6.5q-26 18 -58 29.5t-64 11.5
q-28 0 -42.5 -13.5t-14.5 -33.5q0 -14 7.5 -25.5t21.5 -22.5q21 -17 54.5 -34.5t58.5 -31.5q24 -13 41.5 -26t29.5 -29t17.5 -36.5t5.5 -47.5q0 -60 -50.5 -97t-140.5 -37q-34 0 -69 6t-63 16t-44.5 22.5t-12.5 24.5zM158 688h124l109 -134h-117l-54 71l-54 -71h-117z" />
    <glyph glyph-name="Scedilla" unicode="&#x15e;" 
d="M56 147q20 -16 44.5 -29t51 -22t52 -13.5t47.5 -4.5q54 0 84.5 22.5t30.5 67.5q0 34 -16.5 58t-60.5 47q-50 25 -92.5 45.5t-80.5 53.5q-35 30 -57 69t-22 94q0 39 15.5 71t44.5 55t71.5 36t95.5 13q59 0 108.5 -9.5t95.5 -29.5v-109q0 -12 -9 -15.5t-18 4.5
q-38 32 -76.5 46.5t-83.5 14.5q-47 0 -72.5 -20.5t-25.5 -56.5q0 -26 9.5 -44.5t26.5 -32.5q33 -27 72 -47.5t75 -37.5q34 -17 61.5 -35.5t46 -42t28.5 -54.5t10 -71q0 -44 -15 -76.5t-41 -55t-62.5 -36t-79.5 -18.5l-16 -31q34 -10 48.5 -30.5t14.5 -52.5
q0 -45 -31.5 -70.5t-94.5 -25.5q-27 0 -56 7.5t-48 18.5l27 59q17 -9 32 -13.5t32 -4.5q20 0 29.5 9t9.5 22q0 7 -3 15t-13 14.5t-27.5 11.5t-46.5 5l30 66q-35 4 -68.5 14t-58.5 22.5t-38.5 26.5t-7.5 28z" />
    <glyph glyph-name="scedilla" unicode="&#x15f;" horiz-adv-x="435" 
d="M47 122q16 -11 36.5 -18.5t42.5 -13t42.5 -8t35.5 -2.5q67 0 67 45q0 17 -11 29t-42 28q-35 18 -67 37t-63 45q-20 17 -36.5 40.5t-16.5 63.5q0 29 12.5 55.5t35.5 46.5t57 32t77 12q37 0 81.5 -8t78.5 -22v-97q0 -14 -8 -16.5t-21 6.5q-26 18 -58 29.5t-64 11.5
q-28 0 -42.5 -13.5t-14.5 -33.5q0 -14 7.5 -25.5t21.5 -22.5q21 -17 54.5 -34.5t58.5 -31.5q24 -13 41.5 -26t29.5 -29t17.5 -36.5t5.5 -47.5q0 -51 -36.5 -85.5t-102.5 -44.5l-18 -35q34 -10 48.5 -30.5t14.5 -52.5q0 -45 -31.5 -70.5t-94.5 -25.5q-27 0 -56 7.5t-48 18.5
l27 59q17 -9 32 -13.5t32 -4.5q20 0 29.5 9t9.5 22q0 7 -3 15t-13 14.5t-27.5 11.5t-46.5 5l33 71q-27 4 -52 11t-43 15.5t-27.5 18t-6.5 19.5z" />
    <glyph glyph-name="Scaron" unicode="&#x160;" 
d="M56 147q20 -16 44.5 -29t51 -22t52 -13.5t47.5 -4.5q54 0 84.5 22.5t30.5 67.5q0 34 -16.5 58t-60.5 47q-50 25 -92.5 45.5t-80.5 53.5q-35 30 -57 69t-22 94q0 39 15.5 71t44.5 55t71.5 36t95.5 13q59 0 108.5 -9.5t95.5 -29.5v-109q0 -12 -9 -15.5t-18 4.5
q-38 32 -76.5 46.5t-83.5 14.5q-47 0 -72.5 -20.5t-25.5 -56.5q0 -26 9.5 -44.5t26.5 -32.5q33 -27 72 -47.5t75 -37.5q34 -17 61.5 -35.5t46 -42t28.5 -54.5t10 -71q0 -51 -20 -87t-55 -59t-82.5 -33.5t-101.5 -10.5q-40 0 -82.5 8.5t-76.5 22.5t-53 30.5t-13 33.5z
M104 878h117l54 -71l54 71h117l-109 -134h-124z" />
    <glyph glyph-name="scaron" unicode="&#x161;" horiz-adv-x="435" 
d="M47 122q16 -11 36.5 -18.5t42.5 -13t42.5 -8t35.5 -2.5q67 0 67 45q0 17 -11 29t-42 28q-35 18 -67 37t-63 45q-20 17 -36.5 40.5t-16.5 63.5q0 29 12.5 55.5t35.5 46.5t57 32t77 12q37 0 81.5 -8t78.5 -22v-97q0 -14 -8 -16.5t-21 6.5q-26 18 -58 29.5t-64 11.5
q-28 0 -42.5 -13.5t-14.5 -33.5q0 -14 7.5 -25.5t21.5 -22.5q21 -17 54.5 -34.5t58.5 -31.5q24 -13 41.5 -26t29.5 -29t17.5 -36.5t5.5 -47.5q0 -60 -50.5 -97t-140.5 -37q-34 0 -69 6t-63 16t-44.5 22.5t-12.5 24.5zM40 688h117l54 -71l54 71h117l-109 -134h-124z" />
    <glyph glyph-name="Tcommaaccent" unicode="&#x162;" horiz-adv-x="550" 
d="M23 690h503v-106h-179v-584h-1l-24 -47q34 -10 48.5 -30.5t14.5 -52.5q0 -45 -31.5 -70.5t-94.5 -25.5q-27 0 -56 7.5t-48 18.5l27 59q17 -9 32 -13.5t32 -4.5q20 0 29.5 9t9.5 22q0 7 -3 15t-13 14.5t-27.5 11.5t-46.5 5l38 82h-30v584h-180v106z" />
    <glyph glyph-name="tcommaaccent" unicode="&#x163;" horiz-adv-x="380" 
d="M239 656v-159h117v-97h-117v-279q0 -26 13 -33t31 -7q17 0 38.5 6.5t41.5 16.5l16 -72q2 -11 -14.5 -20.5t-42.5 -16.5q-8 -2 -14.5 -3.5t-14.5 -2.5l-18 -36q34 -10 48.5 -30.5t14.5 -52.5q0 -45 -31.5 -70.5t-94.5 -25.5q-27 0 -56 7.5t-48 18.5l27 59q17 -9 32 -13.5
t32 -4.5q20 0 29.5 9t9.5 22q0 7 -3 15t-13 14.5t-27.5 11.5t-46.5 5l34 73q-38 10 -60 37t-22 72v300h-84v97h84v159h139z" />
    <glyph glyph-name="Tcaron" unicode="&#x164;" horiz-adv-x="550" 
d="M23 690h503v-106h-179v-584h-144v584h-180v106zM99 878h117l54 -71l54 71h117l-109 -134h-124z" />
    <glyph glyph-name="tcaron" unicode="&#x165;" horiz-adv-x="496" 
d="M239 656v-159h117v-97h-117v-279q0 -26 13 -33t31 -7q17 0 38.5 6.5t41.5 16.5l16 -72q2 -11 -14.5 -20.5t-42.5 -16.5q-20 -5 -41 -8t-48 -3q-58 0 -95.5 28.5t-37.5 87.5v300h-84v97h84v159h139zM352 510q12 11 20 21t13 21.5t7 25.5t2 33v79h102v-79q0 -23 -8 -45
t-21 -42t-30 -36.5t-35 -28.5z" />
    <glyph glyph-name="Tbar" unicode="&#x166;" horiz-adv-x="550" 
d="M128 376h75v208h-180v106h503v-106h-179v-208h66v-82h-66v-294h-144v294h-75v82z" />
    <glyph glyph-name="tbar" unicode="&#x167;" horiz-adv-x="380" 
d="M16 339h84v61h-84v97h84v159h139v-159h117v-97h-117v-61h117v-72h-117v-146q0 -26 13 -33t31 -7q17 0 38.5 6.5t41.5 16.5l16 -72q2 -11 -14.5 -20.5t-42.5 -16.5q-20 -5 -41 -8t-48 -3q-58 0 -95.5 28.5t-37.5 87.5v167h-84v72z" />
    <glyph glyph-name="Utilde" unicode="&#x168;" horiz-adv-x="724" 
d="M70 601q0 23 -4.5 36.5t-17.5 27.5q-8 10 -4.5 17.5t13.5 7.5h157v-442q0 -76 35.5 -119t112.5 -43q76 0 112 43t36 119v442h144v-454q0 -65 -22 -113.5t-61 -80t-92.5 -47t-116.5 -15.5t-116.5 15.5t-92.5 47t-61 80t-22 113.5v365zM367 764q-17 9 -28 13t-25 4
q-16 0 -26 -8.5t-19 -23.5l-60 33q12 34 38 58.5t66 24.5q19 0 34 -5.5t32 -14.5l25 -12.5t23 -4.5q16 0 24.5 7t16.5 22l56 -31q-5 -15 -14 -29.5t-20.5 -26t-26 -19t-30.5 -7.5q-19 0 -34 5.5t-32 14.5z" />
    <glyph glyph-name="utilde" unicode="&#x169;" horiz-adv-x="575" 
d="M60 157v253q0 21 -5 34.5t-17 27.5q-8 10 -4.5 17.5t13.5 7.5h152v-334q0 -39 13 -59t54 -20q32 0 60 13.5t49 36.5v363h139v-497h-136v52q-22 -32 -61.5 -50t-78.5 -18q-84 0 -131 45.5t-47 127.5zM292 574q-17 9 -28 13t-25 4q-16 0 -26 -8.5t-19 -23.5l-60 33
q12 34 38 58.5t66 24.5q19 0 34 -5.5t32 -14.5l25 -12.5t23 -4.5q16 0 24.5 7t16.5 22l56 -31q-5 -15 -14 -29.5t-20.5 -26t-26 -19t-30.5 -7.5q-19 0 -34 5.5t-32 14.5z" />
    <glyph glyph-name="Umacron" unicode="&#x16a;" horiz-adv-x="724" 
d="M70 601q0 23 -4.5 36.5t-17.5 27.5q-8 10 -4.5 17.5t13.5 7.5h157v-442q0 -76 35.5 -119t112.5 -43q76 0 112 43t36 119v442h144v-454q0 -65 -22 -113.5t-61 -80t-92.5 -47t-116.5 -15.5t-116.5 15.5t-92.5 47t-61 80t-22 113.5v365zM220 846h285v-82h-285v82z" />
    <glyph glyph-name="umacron" unicode="&#x16b;" horiz-adv-x="575" 
d="M60 157v253q0 21 -5 34.5t-17 27.5q-8 10 -4.5 17.5t13.5 7.5h152v-334q0 -39 13 -59t54 -20q32 0 60 13.5t49 36.5v363h139v-497h-136v52q-22 -32 -61.5 -50t-78.5 -18q-84 0 -131 45.5t-47 127.5zM150 646h285v-82h-285v82z" />
    <glyph glyph-name="Ubreve" unicode="&#x16c;" horiz-adv-x="724" 
d="M70 601q0 23 -4.5 36.5t-17.5 27.5q-8 10 -4.5 17.5t13.5 7.5h157v-442q0 -76 35.5 -119t112.5 -43q76 0 112 43t36 119v442h144v-454q0 -65 -22 -113.5t-61 -80t-92.5 -47t-116.5 -15.5t-116.5 15.5t-92.5 47t-61 80t-22 113.5v365zM372 743q-30 0 -56.5 8.5t-47.5 24.5
t-34 39t-16 52h104q5 -26 17.5 -41t32.5 -15q18 -1 31.5 14.5t18.5 41.5h104q-3 -29 -16 -52t-34 -39t-47.5 -24.5t-56.5 -8.5z" />
    <glyph glyph-name="ubreve" unicode="&#x16d;" horiz-adv-x="575" 
d="M60 157v253q0 21 -5 34.5t-17 27.5q-8 10 -4.5 17.5t13.5 7.5h152v-334q0 -39 13 -59t54 -20q32 0 60 13.5t49 36.5v363h139v-497h-136v52q-22 -32 -61.5 -50t-78.5 -18q-84 0 -131 45.5t-47 127.5zM283 553q-30 0 -56.5 8.5t-47.5 24.5t-34 39t-16 52h104
q5 -26 17.5 -41t32.5 -15q18 -1 31.5 14.5t18.5 41.5h104q-3 -29 -16 -52t-34 -39t-47.5 -24.5t-56.5 -8.5z" />
    <glyph glyph-name="Uring" unicode="&#x16e;" horiz-adv-x="724" 
d="M70 601q0 23 -4.5 36.5t-17.5 27.5q-8 10 -4.5 17.5t13.5 7.5h157v-442q0 -76 35.5 -119t112.5 -43q76 0 112 43t36 119v442h144v-454q0 -65 -22 -113.5t-61 -80t-92.5 -47t-116.5 -15.5t-116.5 15.5t-92.5 47t-61 80t-22 113.5v365zM403 815q0 16 -9.5 26t-26.5 10
t-26.5 -10t-9.5 -26t9.5 -26t26.5 -10t26.5 10t9.5 26zM471 815q0 -43 -30.5 -69.5t-73.5 -26.5t-73.5 26.5t-30.5 69.5t30.5 69.5t73.5 26.5t73.5 -26.5t30.5 -69.5z" />
    <glyph glyph-name="uring" unicode="&#x16f;" horiz-adv-x="575" 
d="M60 157v253q0 21 -5 34.5t-17 27.5q-8 10 -4.5 17.5t13.5 7.5h152v-334q0 -39 13 -59t54 -20q32 0 60 13.5t49 36.5v363h139v-497h-136v52q-22 -32 -61.5 -50t-78.5 -18q-84 0 -131 45.5t-47 127.5zM323 615q0 16 -9.5 26t-26.5 10t-26.5 -10t-9.5 -26t9.5 -26t26.5 -10
t26.5 10t9.5 26zM391 615q0 -43 -30.5 -69.5t-73.5 -26.5t-73.5 26.5t-30.5 69.5t30.5 69.5t73.5 26.5t73.5 -26.5t30.5 -69.5z" />
    <glyph glyph-name="Uhungarumlaut" unicode="&#x170;" horiz-adv-x="724" 
d="M70 601q0 23 -4.5 36.5t-17.5 27.5q-8 10 -4.5 17.5t13.5 7.5h157v-442q0 -76 35.5 -119t112.5 -43q76 0 112 43t36 119v442h144v-454q0 -65 -22 -113.5t-61 -80t-92.5 -47t-116.5 -15.5t-116.5 15.5t-92.5 47t-61 80t-22 113.5v365zM451 878h116l-114 -134h-69zM295 878
h116l-114 -134h-69z" />
    <glyph glyph-name="uhungarumlaut" unicode="&#x171;" horiz-adv-x="575" 
d="M60 157v253q0 21 -5 34.5t-17 27.5q-8 10 -4.5 17.5t13.5 7.5h152v-334q0 -39 13 -59t54 -20q32 0 60 13.5t49 36.5v363h139v-497h-136v52q-22 -32 -61.5 -50t-78.5 -18q-84 0 -131 45.5t-47 127.5zM371 688h116l-114 -134h-69zM215 688h116l-114 -134h-69z" />
    <glyph glyph-name="Uogonek" unicode="&#x172;" horiz-adv-x="724" 
d="M70 601q0 23 -4.5 36.5t-17.5 27.5q-8 10 -4.5 17.5t13.5 7.5h157v-442q0 -76 35.5 -119t112.5 -43q76 0 112 43t36 119v442h144v-454q0 -60 -18.5 -105.5t-52 -77t-79.5 -49t-101 -22.5q-20 -20 -30 -42t-10 -38q0 -17 12 -23.5t32 -6.5q12 0 25 4t23 7l23 -67
q-26 -14 -47.5 -19.5t-53.5 -5.5q-52 0 -83 24.5t-31 65.5q0 26 9.5 52.5t31.5 50.5q-52 6 -95 24.5t-74 50t-48 75.5t-17 102v365z" />
    <glyph glyph-name="uogonek" unicode="&#x173;" horiz-adv-x="575" 
d="M480 0q-29 -23 -44.5 -51t-15.5 -47q0 -17 12 -23.5t32 -6.5q12 0 25 4t23 7l23 -67q-26 -14 -47.5 -19.5t-53.5 -5.5q-52 0 -83 24.5t-31 65.5q0 30 13.5 61.5t44.5 57.5v52q-22 -32 -61.5 -50t-78.5 -18q-84 0 -131 45.5t-47 127.5v253q0 21 -5 34.5t-17 27.5
q-8 10 -4.5 17.5t13.5 7.5h152v-334q0 -39 13 -59t54 -20q32 0 60 13.5t49 36.5v363h139v-497h-34z" />
    <glyph glyph-name="Wcircumflex" unicode="&#x174;" horiz-adv-x="900" 
d="M45 604q-5 23 -14 36t-19 23t-7.5 18.5t12.5 8.5h159l74 -381l19 -130l25 127l95 369h123l95 -368l25 -127l18 127l76 383h150l-157 -690h-152l-93 364l-23 106l-24 -107l-93 -363h-152zM389 878h124l109 -134h-117l-54 71l-54 -71h-117z" />
    <glyph glyph-name="wcircumflex" unicode="&#x175;" horiz-adv-x="805" 
d="M56 411q-8 24 -15.5 36.5t-17.5 22.5t-7.5 18.5t12.5 8.5h146l76 -286l18 -80l18 80l75 256h101l76 -257l17 -79l18 80l78 286h138l-151 -497h-135l-76 240l-15 59l-15 -59l-74 -240h-142zM348 688h124l109 -134h-117l-54 71l-54 -71h-117z" />
    <glyph glyph-name="Ycircumflex" unicode="&#x176;" horiz-adv-x="650" 
d="M328 387l160 303h155l-242 -434v-256h-146v255l-192 346q-12 23 -24.5 37.5t-23.5 24.5t-8 18.5t13 8.5h148zM266 878h124l109 -134h-117l-54 71l-54 -71h-117z" />
    <glyph glyph-name="ycircumflex" unicode="&#x177;" horiz-adv-x="595" 
d="M142 -264l92 246q-17 4 -28.5 15t-18.5 28l-131 393q-12 31 -33 52q-10 10 -7.5 18.5t12.5 8.5h142l80 -248l34 -120l36 120l80 248h140l-266 -761h-132zM244 688h124l109 -134h-117l-54 71l-54 -71h-117z" />
    <glyph glyph-name="Ydieresis" unicode="&#x178;" horiz-adv-x="650" 
d="M328 387l160 303h155l-242 -434v-256h-146v255l-192 346q-12 23 -24.5 37.5t-23.5 24.5t-8 18.5t13 8.5h148zM175 810q0 26 16.5 42.5t42.5 16.5t43 -16.5t17 -42.5t-17 -43t-43 -17t-42.5 17t-16.5 43zM365 810q0 26 16.5 42.5t42.5 16.5t43 -16.5t17 -42.5t-17 -43
t-43 -17t-42.5 17t-16.5 43z" />
    <glyph glyph-name="Zacute" unicode="&#x179;" horiz-adv-x="530" 
d="M207 103h294v-103h-474v74l299 513h-285v103h454v-76q0 -19 -6 -31.5t-12 -23.5zM273 878h140l-129 -134h-88z" />
    <glyph glyph-name="zacute" unicode="&#x17a;" horiz-adv-x="420" 
d="M195 97h200v-97h-375v53l205 347h-193v97h359v-55q0 -14 -4 -23t-9 -17zM201 688h140l-129 -134h-88z" />
    <glyph glyph-name="Zdotaccent" unicode="&#x17b;" horiz-adv-x="530" 
d="M207 103h294v-103h-474v74l299 513h-285v103h454v-76q0 -19 -6 -31.5t-12 -23.5zM208 810q0 27 17.5 44.5t44.5 17.5q28 0 45.5 -17.5t17.5 -44.5q0 -28 -17.5 -45.5t-45.5 -17.5q-27 0 -44.5 17.5t-17.5 45.5z" />
    <glyph glyph-name="zdotaccent" unicode="&#x17c;" horiz-adv-x="420" 
d="M195 97h200v-97h-375v53l205 347h-193v97h359v-55q0 -14 -4 -23t-9 -17zM153 620q0 27 17.5 44.5t44.5 17.5q28 0 45.5 -17.5t17.5 -44.5q0 -28 -17.5 -45.5t-45.5 -17.5q-27 0 -44.5 17.5t-17.5 45.5z" />
    <glyph glyph-name="longs" unicode="&#x17f;" horiz-adv-x="380" 
d="M93 618q0 59 42 95t111 36q29 0 53 -2.5t56 -10.5v-98q0 -10 -7.5 -11.5t-13.5 3.5q-14 12 -27.5 17t-30.5 5q-20 0 -32 -12t-12 -38v-602h-139v420h-87v97h87v101z" />
    <glyph glyph-name="uni0180" unicode="&#x180;" horiz-adv-x="635" 
d="M359 514q56 0 101.5 -18t78 -52.5t50 -83.5t17.5 -112q0 -58 -17 -106.5t-47.5 -83.5t-72.5 -54.5t-93 -19.5q-40 0 -77.5 16.5t-63.5 50.5v-51h-136v562h-89v68h89q-1 18 -6 30t-16 25q-8 10 -4.5 17.5t13.5 7.5h152v-80h107v-68h-107v-82q21 14 52 24t69 10zM337 417
q-29 0 -55.5 -11t-43.5 -25v-242q19 -25 47 -41.5t62 -16.5q23 0 45 9t38.5 29.5t26.5 52t10 76.5q0 169 -130 169z" />
    <glyph glyph-name="uni0181" unicode="&#x181;" horiz-adv-x="715" 
d="M410 690q54 0 98 -12t75 -34.5t47.5 -54.5t16.5 -72q0 -102 -78 -148q54 -20 84.5 -61.5t30.5 -110.5q0 -49 -19 -86t-53.5 -61.5t-83 -37t-107.5 -12.5h-241v592h-31q-22 0 -30 -10.5t-8 -28.5v-32h-111v32q0 69 41.5 103t112.5 34h256zM536 205q0 56 -30.5 81t-93.5 25
h-88v-213h89q63 0 93 25.5t30 81.5zM324 409h76q51 0 77 20.5t26 70.5q0 51 -26.5 71.5t-78.5 20.5h-74v-183z" />
    <glyph glyph-name="uni0182" unicode="&#x182;" horiz-adv-x="595" 
d="M190 695h285v-82h-261v-177h124q110 0 169 -59.5t59 -158.5q0 -49 -15 -89.5t-44 -69t-71.5 -44t-97.5 -15.5h-268v603q0 21 -5 34.5t-17 27.5q-8 10 -4.5 17.5t13.5 7.5h133v5zM214 103h88q57 0 88.5 28t31.5 87t-31.5 87t-88.5 28h-88v-230z" />
    <glyph glyph-name="uni0183" unicode="&#x183;" horiz-adv-x="600" 
d="M172 715h285v-82h-254v-173q21 14 52 24t69 10q56 0 101.5 -17.5t78 -50.5t50 -80.5t17.5 -107.5q0 -56 -17 -102.5t-47.5 -80t-72.5 -52.5t-93 -19q-40 0 -77.5 16.5t-63.5 50.5v-51h-136v621q0 23 -4.5 36.5t-17.5 27.5q-8 10 -4.5 17.5t13.5 7.5h121v5zM302 397
q-29 0 -55.5 -11t-43.5 -25v-222q19 -25 47 -41.5t62 -16.5q23 0 45 8.5t38.5 27.5t26.5 49t10 72q0 159 -130 159z" />
    <glyph glyph-name="uni0184" unicode="&#x184;" horiz-adv-x="635" 
d="M70 0v603q0 21 -5 34.5t-17 27.5q-8 10 -4.5 17.5t13.5 7.5h157v-254h164q110 0 169 -59.5t59 -158.5q0 -49 -15 -89.5t-44 -69t-71.5 -44t-97.5 -15.5h-308zM214 103h128q57 0 88.5 28t31.5 87t-31.5 87t-88.5 28h-128v-230z" />
    <glyph glyph-name="uni0185" unicode="&#x185;" horiz-adv-x="600" 
d="M324 514q56 0 101.5 -18t78 -52.5t50 -83.5t17.5 -112q0 -58 -14 -106.5t-45 -83.5t-79 -54.5t-116 -19.5q-56 0 -102.5 15.5t-80 47t-52 79t-18.5 111.5v384q0 23 -4.5 36.5t-17.5 27.5q-8 10 -4.5 17.5t13.5 7.5h152v-230q21 14 52 24t69 10zM302 417q-29 0 -55.5 -11
t-43.5 -25v-131q0 -87 32 -128t82 -41q23 0 44 9t36.5 29.5t25 52t9.5 76.5q0 169 -130 169z" />
    <glyph glyph-name="uni0186" unicode="&#x186;" horiz-adv-x="650" 
d="M272 83q50 0 87 19t61 53.5t36 82.5t12 106q0 128 -53 195.5t-148 67.5q-49 0 -95.5 -14.5t-97.5 -52.5l-33 68q-5 11 9.5 28t45 33.5t76.5 28.5t104 12q82 0 145 -26t106 -74t65 -115.5t22 -150.5q0 -82 -22 -149t-64 -115t-103.5 -74t-141.5 -26q-129 0 -223 47v109
q0 14 8.5 17t19.5 -5q41 -29 84 -47t100 -18z" />
    <glyph glyph-name="uni0187" unicode="&#x187;" horiz-adv-x="668" 
d="M378 607q-50 0 -87 -19t-61 -53.5t-36 -82.5t-12 -106q0 -128 53 -195.5t148 -67.5q49 0 95.5 14.5t97.5 52.5l33 -68q5 -11 -9.5 -28t-45 -33.5t-76.5 -28.5t-104 -12q-82 0 -145 26t-106 74t-65 115.5t-22 150.5q0 82 22 149t64 115t103.5 74t141.5 26q60 0 115 -11
q11 64 55.5 95.5t113.5 31.5h17v-98h-18q-32 0 -46 -17.5t-14 -52.5v-104q0 -14 -8.5 -17t-19.5 5q-41 29 -84 47t-100 18z" />
    <glyph glyph-name="uni0188" unicode="&#x188;" 
d="M301 417q-33 0 -58 -13t-41.5 -35.5t-25 -53t-8.5 -65.5q0 -76 34 -122.5t100 -46.5q38 0 72.5 9t67.5 31l28 -68q4 -10 -9.5 -22t-38 -22.5t-57 -17.5t-66.5 -7q-64 0 -114 20t-84.5 55.5t-53 84.5t-18.5 106q0 58 19.5 106.5t54.5 83.5t84.5 54.5t109.5 19.5
q24 0 45 -3q15 54 58 78t108 24h12v-98h-12q-25 0 -41 -9t-16 -29v-88q0 -14 -7.5 -16t-18.5 5q-31 20 -60 29.5t-64 9.5z" />
    <glyph glyph-name="uni0189" unicode="&#x189;" horiz-adv-x="755" 
d="M10 380h110v221q0 23 -4.5 36.5t-17.5 27.5q-8 10 -4.5 17.5t13.5 7.5h265q72 0 135 -20.5t110.5 -62.5t74.5 -107t27 -155t-27 -155t-74.5 -107t-110.5 -62.5t-135 -20.5h-252v312h-110v68zM350 103q66 0 109 17.5t69 49.5t36.5 76.5t10.5 98.5t-10.5 98.5t-36.5 76.5
t-69 49.5t-109 17.5h-86v-207h146v-68h-146v-209h86z" />
    <glyph glyph-name="uni018A" unicode="&#x18a;" horiz-adv-x="815" 
d="M0 521v32q0 69 41.5 103t112.5 34h278q72 0 135 -20.5t110.5 -62.5t74.5 -107t27 -155t-27 -155t-74.5 -107t-110.5 -62.5t-135 -20.5h-252v592h-31q-22 0 -30 -10.5t-8 -28.5v-32h-111zM410 103q66 0 109 17.5t69 49.5t36.5 76.5t10.5 98.5t-10.5 98.5t-36.5 76.5
t-69 49.5t-109 17.5h-86v-484h86z" />
    <glyph glyph-name="uni018B" unicode="&#x18b;" horiz-adv-x="590" 
d="M91 695h327v-5h102v-690h-268q-111 0 -169.5 54.5t-58.5 149.5q0 96 58.5 150t169.5 54h124v205h-285v82zM376 305h-88q-57 0 -88.5 -22t-31.5 -79t31.5 -79t88.5 -22h88v202z" />
    <glyph glyph-name="uni018C" unicode="&#x18c;" horiz-adv-x="600" 
d="M87 715h343v-5h101v-710h-136v51q-26 -34 -63.5 -50.5t-77.5 -16.5q-51 0 -93 20.5t-72.5 56t-47.5 83.5t-17 104q0 60 17.5 109.5t50 84t78 53.5t101.5 19q38 0 69 -10t52 -24v154h-305v81zM293 417q-66 0 -98 -44.5t-32 -124.5q0 -42 10 -73.5t26.5 -52.5t38.5 -31
t45 -10q34 0 62 16.5t47 41.5v242q-17 14 -43.5 25t-55.5 11z" />
    <glyph glyph-name="uni018D" unicode="&#x18d;" horiz-adv-x="590" 
d="M566 449q0 -91 -47 -156t-124 -93q26 -16 43 -38.5t17 -57.5q0 -63 -43.5 -93.5t-116.5 -30.5q-46 0 -89.5 19.5t-88.5 54.5l52 80q39 -31 69 -43t57 -12q20 0 30 9t10 20q0 26 -52 45q-54 20 -92 40.5t-69 46.5q-46 35 -72 89t-26 120q0 58 20.5 106.5t56.5 84t85.5 55
t108.5 19.5q58 0 108 -19.5t86 -55t56.5 -84t20.5 -106.5zM427 449q0 79 -35.5 123.5t-96.5 44.5t-96.5 -44.5t-35.5 -123.5t35.5 -123.5t96.5 -44.5t96.5 44.5t35.5 123.5z" />
    <glyph glyph-name="uni018E" unicode="&#x18e;" 
d="M34 0v103h287v191h-243v103h243v190h-267v103h424q10 0 13.5 -7.5t-4.5 -17.5q-13 -14 -17.5 -27.5t-4.5 -36.5v-601h-431z" />
    <glyph glyph-name="uni018F" unicode="&#x18f;" horiz-adv-x="780" 
d="M36 412h559q-4 54 -23.5 91.5t-51 60.5t-72.5 33.5t-88 10.5q-30 0 -60.5 -7t-58 -19t-52 -27t-43.5 -31l-37 76q-5 9 11.5 27.5t50 36.5t82 32t107.5 14q195 0 289.5 -89.5t94.5 -275.5q0 -81 -23 -148.5t-68 -115.5t-111 -74.5t-152 -26.5t-152 26.5t-111 74.5
t-68 115.5t-23 148.5v67zM390 82q89 0 143.5 57t64.5 165h-416q9 -108 64 -165t144 -57z" />
    <glyph glyph-name="uni0190" unicode="&#x190;" horiz-adv-x="550" 
d="M311 611q-48 0 -77 -24.5t-29 -63.5q0 -53 33.5 -83t90.5 -30h83v-99h-79q-28 0 -56 -5.5t-50 -19t-36 -36.5t-14 -59q0 -61 37 -86.5t94 -25.5q42 0 85.5 14.5t88.5 46.5l28 -74q5 -14 -7.5 -24.5t-41.5 -25.5q-26 -14 -67 -25t-86 -11q-138 0 -204 55.5t-66 155.5
q0 60 31 108.5t88 71.5q-40 20 -65.5 61.5t-25.5 90.5q0 44 16.5 79t46 59t71 36.5t91.5 12.5q53 -2 95 -13t69 -22l17 -93q3 -15 -7 -18.5t-20 2.5q-33 20 -66.5 32.5t-67.5 12.5z" />
    <glyph glyph-name="uni0191" unicode="&#x191;" horiz-adv-x="505" 
d="M10 -132q17 -7 35 -7q13 0 19 7.5t6 31.5v701q0 23 -4.5 36.5t-17.5 27.5q-8 10 -4.5 17.5t13.5 7.5h424v-103h-267v-190h243v-103h-243v-396q0 -75 -33.5 -110t-115.5 -35q-21 0 -40.5 3.5t-35.5 8.5z" />
    <glyph glyph-name="florin" unicode="&#x192;" horiz-adv-x="498" 
d="M222 618q8 58 43.5 94.5t99.5 36.5q26 0 53 -2.5t56 -10.5l-10 -88q0 -10 -7 -13t-16 2q-20 15 -46 15q-38 0 -45 -49l-14 -95h116l-11 -77h-116l-80 -559q-9 -58 -36 -88.5t-85 -30.5q-25 0 -49.5 4.5t-50.5 17.5q-8 4 -13 9t-2 17l23 67q12 -7 27.5 -10.5t28.5 -3.5
q10 0 20.5 6.5t14.5 32.5l73 538h-72l10 77h73z" />
    <glyph glyph-name="uni0193" unicode="&#x193;" horiz-adv-x="725" 
d="M517 107v148q0 21 -5 34.5t-17 27.5q-8 10 -4.5 17.5t13.5 7.5h157v-254q0 -22 -23 -41.5t-60.5 -34.5t-85.5 -23.5t-97 -8.5q-181 0 -270 94t-89 275q0 78 20.5 144t63 114.5t107.5 75.5t154 27q33 0 65 -3.5t63 -9.5q11 65 55.5 97t113.5 32h17v-98h-18q-31 0 -45 -17
t-15 -49v-107q0 -14 -8.5 -17t-19.5 5q-39 29 -90 46.5t-107 17.5q-59 0 -99.5 -20t-65.5 -54.5t-36 -81.5t-11 -102q0 -128 51 -197t165 -69q33 0 64 6.5t57 17.5z" />
    <glyph glyph-name="uni0194" unicode="&#x194;" horiz-adv-x="700" 
d="M352 241l173 449h148l-237 -581q31 -48 52.5 -102.5t21.5 -101.5q0 -29 -10 -54.5t-29.5 -44t-49.5 -29t-69 -10.5t-69 10.5t-49.5 29t-29.5 44t-10 54.5q0 46 21 99.5t51 101.5l-209 505q-13 32 -33 52q-10 10 -7.5 18.5t12.5 8.5h149zM377 -88q0 9 -2.5 22t-6.5 26
t-9 24.5t-9 19.5q-5 -8 -10 -19.5t-9.5 -24.5t-7 -26t-2.5 -22q0 -18 8.5 -27t20.5 -9q11 0 19 9t8 27z" />
    <glyph glyph-name="uni0195" unicode="&#x195;" horiz-adv-x="850" 
d="M51 710h152v-247q26 24 58.5 37.5t71.5 13.5q79 0 127 -42t48 -113v-200q0 -40 15 -57.5t57 -17.5t57 17.5t15 57.5v338h139v-340q0 -82 -52.5 -127.5t-158.5 -45.5t-158.5 45.5t-52.5 127.5v183q0 74 -71 74q-25 0 -48 -11t-47 -31v-372h-139v621q0 23 -4.5 36.5
t-17.5 27.5q-8 10 -4.5 17.5t13.5 7.5z" />
    <glyph glyph-name="uni0196" unicode="&#x196;" horiz-adv-x="320" 
d="M219 124q0 -26 11.5 -31t29.5 -5q3 0 9 0.5t9 1.5l11 -78q1 -6 -5.5 -11t-18.5 -8.5t-27.5 -5.5t-33.5 -2q-58 0 -91 30t-33 89v519q0 21 -5 34.5t-17 27.5q-8 10 -4.5 17.5t13.5 7.5h152v-586z" />
    <glyph glyph-name="uni0197" unicode="&#x197;" horiz-adv-x="335" 
d="M99 0v327h-82v92h82v182q0 23 -4.5 36.5t-17.5 27.5q-8 10 -4.5 17.5t13.5 7.5h157v-271h79v-92h-79v-327h-144z" />
    <glyph glyph-name="uni0198" unicode="&#x198;" horiz-adv-x="635" 
d="M596 596q-10 5 -18.5 7t-20.5 2q-20 0 -36 -17t-32 -38l-123 -162l266 -388h-154l-196 286q-13 18 -24 26t-28 8h-16v-320h-144v601q0 23 -4.5 36.5t-17.5 27.5q-8 10 -4.5 17.5t13.5 7.5h157v-287l172 228q19 25 35.5 40.5t33 24t34 11.5t38.5 3q30 0 55.5 -8t48.5 -20z
" />
    <glyph glyph-name="uni0199" unicode="&#x199;" horiz-adv-x="555" 
d="M275 641h-29q-43 0 -43 -46v-292l174 194h159l-188 -212l211 -285h-153l-151 208q-13 16 -20 21t-20 5h-12v-234h-139v586q0 78 36.5 120.5t128.5 42.5h46v-108z" />
    <glyph glyph-name="uni019A" unicode="&#x19a;" horiz-adv-x="300" 
d="M203 124q0 -26 11.5 -31t29.5 -5q3 0 9 0.5t9 1.5l11 -78q1 -6 -5.5 -11t-18.5 -8.5t-27.5 -5.5t-33.5 -2q-58 0 -91 30t-33 89v224h-69v92h69v203q0 21 -5 34.5t-17 27.5q-8 10 -4.5 17.5t13.5 7.5h152v-290h82v-92h-82v-204z" />
    <glyph glyph-name="uni019B" unicode="&#x19b;" horiz-adv-x="602" 
d="M433 662l23 -63l-92 -35l160 -421q13 -35 24 -48.5t32 -13.5q14 0 25.5 3t25.5 10l18 -85q-39 -25 -93 -25t-92.5 27t-59.5 84l-97 261l-137 -356h-147l189 472q5 13 18 18.5t28 6.5l-9 24l-95 -35l-23 61l89 34q-21 26 -65 26q-24 0 -48 -10l-22 97q28 11 52.5 14
t45.5 3q63 0 98 -23.5t57 -61.5z" />
    <glyph glyph-name="uni019C" unicode="&#x19c;" horiz-adv-x="945" 
d="M214 690v-538q0 -34 15 -51.5t61 -17.5q48 0 114 46v561h137v-538q0 -34 14.5 -51.5t60.5 -17.5q29 0 58 12.5t57 31.5v563h144v-690h-140v49q-24 -27 -65 -46.5t-89 -19.5q-54 0 -92 17t-59 47q-39 -31 -81.5 -47.5t-88.5 -16.5q-89 0 -139.5 41.5t-50.5 116.5v460
q0 23 -4.5 36.5t-17.5 27.5q-8 10 -4.5 17.5t13.5 7.5h157z" />
    <glyph glyph-name="uni019D" unicode="&#x19d;" horiz-adv-x="695" 
d="M214 348v-450q0 -75 -33.5 -110t-115.5 -35q-21 0 -40.5 3.5t-35.5 8.5l21 103q17 -7 35 -7q13 0 19 7.5t6 31.5v705q0 15 -4 22t-14 12q-10 4 -14 13t-3 17t8 14.5t19 6.5h151l213 -365l64 -129l-9 149v345h144v-690h-142l-219 378l-58 123z" />
    <glyph glyph-name="uni019E" unicode="&#x19e;" horiz-adv-x="590" 
d="M46 497h148v-48q27 26 61 45.5t81 19.5q40 0 73.5 -11t58.5 -32t39 -52.5t14 -72.5v-592h-139v580q0 42 -18.5 61t-60.5 19q-29 0 -55 -11.5t-50 -32.5v-370h-139v408q0 23 -4.5 36.5t-17.5 27.5q-8 10 -4.5 17.5t13.5 7.5z" />
    <glyph glyph-name="uni019F" unicode="&#x19f;" horiz-adv-x="780" 
d="M744 345q0 -81 -23 -148.5t-68 -115.5t-111 -74.5t-152 -26.5t-152 26.5t-111 74.5t-68 115.5t-23 148.5t23 148.5t68 115.5t111 74.5t152 26.5t152 -26.5t111 -74.5t68 -115.5t23 -148.5zM390 83q91 0 146.5 60t62.5 173h-418q7 -113 62 -173t147 -60zM390 607
q-89 0 -143.5 -56.5t-64.5 -162.5h416q-10 106 -65 162.5t-143 56.5z" />
    <glyph glyph-name="Ohorn" unicode="&#x1a0;" horiz-adv-x="790" 
d="M744 345q0 -81 -23 -148.5t-68 -115.5t-111 -74.5t-152 -26.5t-152 26.5t-111 74.5t-68 115.5t-23 148.5t23 148.5t68 115.5t111 74.5t152 26.5q95 0 165.5 -32t115.5 -90q9 14 13 30.5t4 42.5v79h102v-79q0 -41 -23.5 -79t-55.5 -63q33 -75 33 -174zM180 345
q0 -127 56.5 -194.5t153.5 -67.5t153.5 67.5t56.5 194.5t-56.5 194.5t-153.5 67.5t-153.5 -67.5t-56.5 -194.5z" />
    <glyph glyph-name="ohorn" unicode="&#x1a1;" horiz-adv-x="600" 
d="M566 249q0 -58 -20.5 -106.5t-56.5 -84t-86 -55t-108 -19.5q-59 0 -108.5 19.5t-85.5 55t-56.5 84t-20.5 106.5t20.5 106.5t56.5 84t85.5 55t108.5 19.5t108.5 -20t86.5 -56q4 11 6 24t2 31v79h102v-79q0 -35 -17.5 -67.5t-42.5 -57.5q26 -54 26 -119zM427 249
q0 79 -35.5 123.5t-96.5 44.5t-96.5 -44.5t-35.5 -123.5t35.5 -123.5t96.5 -44.5t96.5 44.5t35.5 123.5z" />
    <glyph glyph-name="uni01A2" unicode="&#x1a2;" horiz-adv-x="925" 
d="M855 690v-937h-134v835h-100v-480q-41 -47 -83.5 -73t-81.5 -38t-72.5 -14.5t-54.5 -2.5q-66 0 -120 26t-92.5 74t-59.5 115t-21 149q0 91 22 160t62.5 114.5t98 68.5t128.5 23q17 0 43 -2.5t57.5 -9t66 -16.5t68.5 -25l160 33h113zM347 607q-83 0 -125 -62.5t-42 -200.5
q0 -71 11.5 -121t33.5 -81t52.5 -45t69.5 -14q57 0 94 17t63 42v435q-37 14 -74.5 22t-82.5 8z" />
    <glyph glyph-name="uni01A3" unicode="&#x1a3;" horiz-adv-x="760" 
d="M696 497v-744h-124v652h-73v-313q-44 -57 -100.5 -82.5t-131.5 -25.5q-55 0 -99.5 18t-76.5 51t-49.5 80.5t-17.5 107.5q0 65 18.5 116t52 86t82 53t108.5 18q47 0 90 -12.5t95 -31.5l123 27h103zM285 417q-66 0 -94 -45.5t-28 -130.5q0 -83 34 -121.5t88 -38.5
q34 0 52 7.5t35 19.5v288q-23 12 -43.5 16.5t-43.5 4.5z" />
    <glyph glyph-name="uni01A4" unicode="&#x1a4;" horiz-adv-x="700" 
d="M0 521v32q0 69 41.5 103t112.5 34h294q55 0 97.5 -15.5t71.5 -44t44 -69t15 -89.5q0 -99 -59 -158.5t-169 -59.5h-124v-254h-144v592h-31q-22 0 -30 -10.5t-8 -28.5v-32h-111zM324 357h88q57 0 88.5 28t31.5 87t-31.5 87t-88.5 28h-88v-230z" />
    <glyph glyph-name="uni01A5" unicode="&#x1a5;" horiz-adv-x="595" 
d="M64 618q0 59 42 95t111 36q29 0 53 -3.5t56 -12.5v-84q0 -14 -8.5 -15t-14.5 3q-13 8 -26.5 11.5t-30.5 3.5q-19 0 -31 -12t-12 -38v-159q23 21 55 37.5t73 16.5q55 0 99 -17.5t75.5 -50.5t48.5 -80t17 -107q0 -131 -69 -194.5t-189 -63.5q-26 0 -57.5 8t-52.5 22v-261
h-139v865zM304 81q68 0 98 38t30 123q0 45 -10 75.5t-26.5 48.5t-38 26t-44.5 8q-38 0 -64.5 -16t-45.5 -41v-226q39 -36 101 -36z" />
    <glyph glyph-name="uni01A6" unicode="&#x1a6;" horiz-adv-x="620" 
d="M303 620q63 0 108 -16t73.5 -43t42 -63t13.5 -76q0 -38 -11 -69t-30.5 -55.5t-45 -41.5t-54.5 -25l234 -338h-151l-216 315q-7 11 -22 11h-30v-219h-144v601q0 23 -4.5 36.5t-17.5 27.5q-8 10 -4.5 17.5t13.5 7.5h157v-70h89zM291 317q52 0 79 27t27 78q0 43 -27 69
t-79 26h-77v-200h77z" />
    <glyph glyph-name="uni01A7" unicode="&#x1a7;" 
d="M507 75q6 -17 -13 -33.5t-53 -30.5t-76.5 -22.5t-82.5 -8.5q-54 0 -101.5 10.5t-82.5 33.5t-55 59t-20 87q0 40 10 71t28.5 54.5t45.5 42t62 35.5q36 17 75 37.5t72 47.5q17 14 26.5 32.5t9.5 44.5q0 36 -25.5 56.5t-72.5 20.5q-45 0 -83.5 -14.5t-76.5 -46.5
q-9 -8 -18 -4.5t-9 15.5v109q46 20 95.5 29.5t108.5 9.5q53 0 95 -13t71.5 -36t45 -55t15.5 -71q0 -55 -22 -94t-57 -69q-38 -33 -80.5 -53.5t-92.5 -45.5q-44 -23 -60.5 -47t-16.5 -58q0 -45 30.5 -67.5t84.5 -22.5q22 0 47.5 4.5t52 13.5t51 22t44.5 29z" />
    <glyph glyph-name="uni01A8" unicode="&#x1a8;" horiz-adv-x="435" 
d="M404 53q4 -12 -12.5 -24.5t-44.5 -22.5t-63 -16t-69 -6q-90 0 -140.5 37t-50.5 97q0 27 5.5 47.5t17.5 36.5t29.5 29t41.5 26q25 14 58.5 31.5t54.5 34.5q14 11 21.5 22.5t7.5 25.5q0 20 -14.5 33.5t-42.5 13.5q-32 0 -64 -11.5t-58 -29.5q-13 -9 -21 -6.5t-8 16.5v97
q34 14 78.5 22t81.5 8q43 0 77 -12t57 -32t35.5 -46.5t12.5 -55.5q0 -40 -16.5 -63.5t-36.5 -40.5q-31 -26 -63 -45t-67 -37q-31 -16 -42 -28t-11 -29q0 -45 67 -45q15 0 35.5 2.5t42 8t42.5 13t37 18.5z" />
    <glyph glyph-name="uni01A9" unicode="&#x1a9;" horiz-adv-x="575" 
d="M388 381v-72l-183 -207h350v-102h-514v108l202 237l-202 227v118h494v-102h-330z" />
    <glyph glyph-name="uni01AA" unicode="&#x1aa;" horiz-adv-x="450" 
d="M13 626q0 48 35 78.5t95 30.5q34 0 65 -10.5t54.5 -31.5t37.5 -51.5t14 -70.5v-679q0 -39 34 -39q15 0 35.5 1.5t40.5 6.5v-95q-9 -3 -23.5 -5.5t-29.5 -4t-29 -2.5t-23 -1q-75 0 -109.5 36.5t-34.5 102.5v631q-9 -5 -18.5 -7t-23.5 -2q-57 0 -88.5 32t-31.5 80zM92 625
q0 -18 12 -29.5t30 -11.5t30 11.5t12 29.5t-12 29.5t-30 11.5t-30 -11.5t-12 -29.5z" />
    <glyph glyph-name="uni01AB" unicode="&#x1ab;" horiz-adv-x="400" 
d="M239 656v-159h117v-97h-117v-279q0 -26 13 -33t31 -7q17 0 38.5 6.5t41.5 16.5l16 -72v-134q0 -75 -31 -110t-108 -35q-21 0 -40.5 3.5t-35.5 8.5l21 95q17 -7 35 -7t26.5 7.5t8.5 31.5v93q-5 -1 -11 -1h-11q-58 0 -95.5 28.5t-37.5 87.5v300h-84v97h84v159h139z" />
    <glyph glyph-name="uni01AC" unicode="&#x1ac;" horiz-adv-x="565" 
d="M0 521v32q0 69 36.5 103t107.5 34h397v-106h-169v-584h-144v584h-83q-18 0 -26 -6.5t-8 -24.5v-32h-111z" />
    <glyph glyph-name="uni01AD" unicode="&#x1ad;" horiz-adv-x="405" 
d="M100 497v121q0 59 42 95t111 36q29 0 53 -3.5t56 -12.5v-84q0 -14 -8.5 -15t-14.5 3q-13 8 -26.5 11.5t-30.5 3.5q-19 0 -31 -12t-12 -38v-105h117v-97h-117v-279q0 -26 13 -33t31 -7q17 0 38.5 6.5t41.5 16.5l16 -72q3 -12 -2 -17.5t-13 -8.5q-34 -13 -66 -17.5
t-67 -4.5q-58 0 -94.5 30t-36.5 89v297h-84v97h84z" />
    <glyph glyph-name="uni01AE" unicode="&#x1ae;" horiz-adv-x="550" 
d="M347 582v-690q0 -39 34 -39q15 0 35.5 1.5t40.5 6.5v-95q-19 -6 -47.5 -9.5t-47.5 -3.5q-75 0 -117 36.5t-42 102.5v690h-180v108h503v-108h-179z" />
    <glyph glyph-name="Uhorn" unicode="&#x1af;" horiz-adv-x="810" 
d="M70 601q0 23 -4.5 36.5t-17.5 27.5q-8 10 -4.5 17.5t13.5 7.5h157v-442q0 -76 35.5 -119t112.5 -43q76 0 112 43t36 119v442h144v-124q33 20 43.5 49t10.5 66v59h102v-59q0 -38 -12 -71t-33 -58.5t-49.5 -42.5t-61.5 -24v-249q0 -65 -22 -113.5t-61 -80t-92.5 -47
t-116.5 -15.5t-116.5 15.5t-92.5 47t-61 80t-22 113.5v365z" />
    <glyph glyph-name="uhorn" unicode="&#x1b0;" horiz-adv-x="670" 
d="M60 157v253q0 21 -5 34.5t-17 27.5q-8 10 -4.5 17.5t13.5 7.5h152v-334q0 -39 13 -59t54 -20q32 0 60 13.5t49 36.5v363h139v-99q33 20 43.5 49t10.5 66v59h102v-59q0 -38 -12 -71t-33 -58.5t-49.5 -42.5t-61.5 -24v-317h-136v52q-22 -32 -61.5 -50t-78.5 -18
q-84 0 -131 45.5t-47 127.5z" />
    <glyph glyph-name="uni01B1" unicode="&#x1b1;" horiz-adv-x="754" 
d="M23 690h256q-35 -108 -57.5 -194t-22.5 -159q0 -126 42 -190t136 -64t136 64t42 190q0 73 -22.5 159t-57.5 194h249v-108h-78q21 -62 37 -119t16 -125q0 -78 -15.5 -143.5t-53 -113.5t-99.5 -74.5t-154 -26.5t-154 26.5t-99.5 74.5t-53 113.5t-15.5 143.5q0 68 16 125
t36 119h-84v108z" />
    <glyph glyph-name="uni01B2" unicode="&#x1b2;" horiz-adv-x="650" 
d="M427 374q22 63 33.5 107t11.5 67q0 19 -11 32t-41 13h-37v97h85q72 0 110 -35t38 -83q0 -35 -15.5 -92.5t-43.5 -138.5l-118 -341h-175l-207 611q-5 16 -14 29t-19 23t-7.5 18.5t12.5 8.5h149l146 -444l28 -100z" />
    <glyph glyph-name="uni01B3" unicode="&#x1b3;" horiz-adv-x="700" 
d="M673 594q-24 14 -46 14q-20 0 -30 -11.5t-20 -28.5l-176 -312v-256h-146v255l-192 346q-12 23 -24.5 37.5t-23.5 24.5t-8 18.5t13 8.5h148l160 -303l130 231q29 51 65.5 71.5t88.5 20.5q32 0 57.5 -8t46.5 -22z" />
    <glyph glyph-name="uni01B4" unicode="&#x1b4;" horiz-adv-x="650" 
d="M56 418q-12 31 -33 52q-10 10 -7.5 18.5t12.5 8.5h142l134 -366l90 243q13 35 27.5 61.5t34 44t45 26t60.5 8.5q32 0 61.5 -8t50.5 -22l-41 -81q-13 8 -27 10.5t-24 2.5q-23 0 -35 -18.5t-24 -50.5l-227 -594h-133l87 227q-13 2 -22.5 7.5t-14.5 17.5z" />
    <glyph glyph-name="uni01B5" unicode="&#x1b5;" horiz-adv-x="530" 
d="M207 103h294v-103h-474v74l138 238h-90v68h130l121 207h-285v103h454v-76q0 -19 -6 -31.5t-12 -23.5l-106 -179h86v-68h-127z" />
    <glyph glyph-name="uni01B6" unicode="&#x1b6;" horiz-adv-x="420" 
d="M195 97h200v-97h-375v53l92 156h-68v67h107l74 124h-193v97h359v-55q0 -14 -4 -23t-9 -17l-76 -126h81v-67h-121z" />
    <glyph glyph-name="uni01B7" unicode="&#x1b7;" 
d="M486 191q0 -100 -66 -155.5t-204 -55.5q-45 0 -86 11t-67 25q-29 15 -41.5 25.5t-7.5 24.5l28 74q45 -32 88.5 -46.5t85.5 -14.5q57 0 94 25.5t37 86.5q0 39 -8.5 67t-26 48.5t-44 34.5t-62.5 25l135 221h-285v103h434v-76q0 -19 -6 -31.5t-12 -23.5l-114 -158
q22 -10 44.5 -27t41 -42t30.5 -60t12 -81z" />
    <glyph glyph-name="uni01B8" unicode="&#x1b8;" 
d="M49 191q0 46 12 81t30.5 60t41 42t44.5 27l-114 158q-6 11 -12 23.5t-6 31.5v76h434v-103h-285l135 -221q-36 -11 -62.5 -25t-44 -34.5t-26 -48.5t-8.5 -67q0 -61 37 -86.5t94 -25.5q42 0 85.5 14.5t88.5 46.5l28 -74q5 -14 -7.5 -24.5t-41.5 -25.5q-26 -14 -67 -25
t-86 -11q-138 0 -204 55.5t-66 155.5z" />
    <glyph glyph-name="uni01B9" unicode="&#x1b9;" horiz-adv-x="465" 
d="M39 -19q0 27 6 56.5t20 59.5t36.5 58t55.5 52l-94 159q-7 11 -12.5 23.5t-5.5 31.5v76h359v-103h-220l125 -219q-38 -19 -63 -42.5t-40 -49t-21.5 -51.5t-6.5 -51q0 -69 28 -99t72 -30q32 0 57.5 8.5t57.5 32.5l27 -59q7 -13 1.5 -25.5t-28.5 -24.5q-19 -10 -50 -20.5
t-69 -10.5q-58 0 -102 16.5t-73.5 46.5t-44.5 72t-15 93z" />
    <glyph glyph-name="uni01BA" unicode="&#x1ba;" horiz-adv-x="420" 
d="M213 -49q-29 -18 -41 -32.5t-12 -31.5q0 -21 14 -29.5t43 -8.5q11 0 26.5 2.5t32 8t32 13t26.5 18.5l22 -69q3 -12 -10 -24.5t-35 -22.5t-50 -16t-54 -6q-85 0 -133 35t-48 95q0 25 6 44.5t18 36.5t29.5 32t40.5 30q27 18 50 34t39 31t25 31.5t9 36.5q0 37 -33 59.5
t-94 39.5l103 136h-178v103h324v-66q0 -20 -4.5 -32.5t-12.5 -21.5l-68 -88q46 -17 72 -49t26 -82q0 -36 -13.5 -65.5t-36.5 -54t-52.5 -46t-62.5 -41.5z" />
    <glyph glyph-name="uni01BB" unicode="&#x1bb;" horiz-adv-x="550" 
d="M77 380h237q23 35 32.5 66t9.5 62q0 54 -30.5 78.5t-84.5 24.5q-38 0 -77.5 -14t-77.5 -46q-9 -8 -19 -4.5t-8 15.5l20 113q27 11 69 22t95 13q120 0 186 -54t66 -148q0 -67 -26 -128h73v-68h-110q-43 -65 -119 -138l-78 -75h267v-99h-457v64q0 14 5 24.5t19 25.5
l126 127q19 20 35.5 37t30.5 34h-184v68z" />
    <glyph glyph-name="uni01BC" unicode="&#x1bc;" horiz-adv-x="533" 
d="M79 131q37 -23 73.5 -37.5t74.5 -14.5q65 0 98 36t33 102q0 36 -12 61t-32.5 40.5t-46.5 23t-54 7.5h-137v242h-76v99h446v-99h-230v-145h46q47 0 89.5 -16t75 -46t51.5 -72.5t19 -94.5q0 -53 -16.5 -96.5t-50 -74.5t-84 -48.5t-117.5 -17.5q-110 0 -198 63z" />
    <glyph glyph-name="uni01BD" unicode="&#x1bd;" horiz-adv-x="421" 
d="M74 111q28 -14 56 -23t57 -9q81 0 81 68q0 17 -8.5 29t-23 19.5t-33.5 10.5t-40 3h-87v189h-76v99h346v-99h-140v-92h16q36 0 68 -11t55.5 -31.5t37.5 -50t14 -66.5q0 -74 -52 -120.5t-156 -46.5q-86 0 -158 43z" />
    <glyph glyph-name="uni01BE" unicode="&#x1be;" horiz-adv-x="450" 
d="M110 411v59h-84v97h84v123h139v-123h117v-97h-117v-59q0 -19 9.5 -36t22.5 -32t26.5 -26t21.5 -18q23 -20 41 -37t30.5 -36t19 -42t6.5 -54q0 -69 -51 -107.5t-141 -38.5q-38 0 -79.5 8t-72.5 20q-23 9 -37 20.5t-9 22.5l31 71q20 -12 42.5 -21t44.5 -14.5t42 -8t35 -2.5
q26 0 43.5 13t17.5 42q0 24 -11.5 41t-42.5 44q-20 17 -42 36t-41 42t-31.5 50.5t-13.5 62.5z" />
    <glyph glyph-name="uni01BF" unicode="&#x1bf;" horiz-adv-x="525" 
d="M203 -39v-208h-139v657q0 20 -5 34t-17 28q-8 10 -4.5 17.5t13.5 7.5h149v-50q24 34 59 50.5t72 16.5t68.5 -12.5t54 -36t35 -58t12.5 -77.5q0 -48 -19.5 -99t-57 -99.5t-93 -92.5t-128.5 -78zM203 104q81 48 120 104.5t39 121.5q0 48 -18 67.5t-42 19.5
q-31 0 -56.5 -16.5t-42.5 -41.5v-255z" />
    <glyph glyph-name="uni01C0" unicode="&#x1c0;" horiz-adv-x="325" 
d="M99 0v690h134v-690h-134z" />
    <glyph glyph-name="uni01C1" unicode="&#x1c1;" horiz-adv-x="552" 
d="M79 0v690h134v-690h-134zM339 0v690h134v-690h-134z" />
    <glyph glyph-name="uni01C2" unicode="&#x1c2;" horiz-adv-x="460" 
d="M164 0v213h-147v101h147v118h-147v101h147v157h134v-157h145v-101h-145v-118h145v-101h-145v-213h-134z" />
    <glyph glyph-name="uni01C3" unicode="&#x1c3;" horiz-adv-x="300" 
d="M82 659q-1 20 6.5 28t24.5 8h105l-24 -480h-89zM65 50q0 36 23.5 60t60.5 24t61 -24t24 -60t-24 -60.5t-61 -24.5t-60.5 24.5t-23.5 60.5z" />
    <glyph glyph-name="uni01C4" unicode="&#x1c4;" horiz-adv-x="1180" 
d="M57 690h265q72 0 135 -20.5t110.5 -62.5t74.5 -107t27 -155t-27 -155t-74.5 -107t-110.5 -62.5t-135 -20.5h-252v601q0 23 -4.5 36.5t-17.5 27.5q-8 10 -4.5 17.5t13.5 7.5zM300 103q66 0 109 17.5t69 49.5t36.5 76.5t10.5 98.5t-10.5 98.5t-36.5 76.5t-69 49.5
t-109 17.5h-86v-484h86zM857 103h294v-103h-474v74l299 513h-285v103h454v-76q0 -19 -6 -31.5t-12 -23.5zM744 878h117l54 -71l54 71h117l-109 -134h-124z" />
    <glyph glyph-name="uni01C5" unicode="&#x1c5;" horiz-adv-x="1090" 
d="M57 690h265q72 0 135 -20.5t110.5 -62.5t74.5 -107t27 -155t-27 -155t-74.5 -107t-110.5 -62.5t-135 -20.5h-252v601q0 23 -4.5 36.5t-17.5 27.5q-8 10 -4.5 17.5t13.5 7.5zM300 103q66 0 109 17.5t69 49.5t36.5 76.5t10.5 98.5t-10.5 98.5t-36.5 76.5t-69 49.5
t-109 17.5h-86v-484h86zM865 97h200v-97h-375v53l205 347h-193v97h359v-55q0 -14 -4 -23t-9 -17zM714 688h117l54 -71l54 71h117l-109 -134h-124z" />
    <glyph glyph-name="uni01C6" unicode="&#x1c6;" horiz-adv-x="980" 
d="M536 709v-709h-136v51q-26 -34 -63.5 -50.5t-77.5 -16.5q-51 0 -93 19.5t-72.5 54.5t-47.5 83.5t-17 106.5q0 63 17.5 112t50 83.5t78 52.5t101.5 18q38 0 69 -10t52 -24v140q0 23 -4.5 36.5t-17.5 27.5q-8 10 -4.5 17.5t13.5 7.5h152zM298 417q-130 0 -130 -169
q0 -45 10 -76.5t26.5 -52t38.5 -29.5t45 -9q34 0 62 16.5t47 41.5v242q-17 14 -43.5 25t-55.5 11zM755 97h200v-97h-375v53l205 347h-193v97h359v-55q0 -14 -4 -23t-9 -17zM604 688h117l54 -71l54 71h117l-109 -134h-124z" />
    <glyph glyph-name="uni01C7" unicode="&#x1c7;" horiz-adv-x="945" 
d="M214 690v-584h272v-106h-416v601q0 23 -4.5 36.5t-17.5 27.5q-8 10 -4.5 17.5t13.5 7.5h157zM555 690h297v-412q0 -75 -22 -132.5t-61.5 -96.5t-94 -59t-118.5 -20q-25 0 -31 20l-21 73q100 8 152 51.5t52 135.5v337h-153v103z" />
    <glyph glyph-name="uni01C8" unicode="&#x1c8;" horiz-adv-x="765" 
d="M214 690v-584h272v-106h-416v601q0 23 -4.5 36.5t-17.5 27.5q-8 10 -4.5 17.5t13.5 7.5h157zM556 -4v414q0 21 -5 34.5t-17 27.5q-8 10 -4.5 17.5t13.5 7.5h152v-501q0 -59 -20 -111t-48 -88t-58 -51t-49 1l-46 39q17 16 32 35t26 43.5t17.5 57t6.5 74.5zM534 655
q0 36 23.5 60t60.5 24t61 -24t24 -60t-24 -60.5t-61 -24.5t-60.5 24.5t-23.5 60.5z" />
    <glyph glyph-name="uni01C9" unicode="&#x1c9;" horiz-adv-x="550" 
d="M219 124q0 -26 11.5 -31t29.5 -5q3 0 9 0.5t9 1.5l11 -78q1 -6 -5.5 -11t-18.5 -8.5t-27.5 -5.5t-33.5 -2q-58 0 -91 30t-33 89v519q0 21 -5 34.5t-17 27.5q-8 10 -4.5 17.5t13.5 7.5h152v-586zM351 -4v414q0 21 -5 34.5t-17 27.5q-8 10 -4.5 17.5t13.5 7.5h152v-501
q0 -59 -20 -111t-48 -88t-58 -51t-49 1l-46 39q17 16 32 35t26 43.5t17.5 57t6.5 74.5zM329 655q0 36 23.5 60t60.5 24t61 -24t24 -60t-24 -60.5t-61 -24.5t-60.5 24.5t-23.5 60.5z" />
    <glyph glyph-name="uni01CA" unicode="&#x1ca;" horiz-adv-x="1085" 
d="M70 0v601q0 23 -4.5 36.5t-17.5 27.5q-8 10 -4.5 17.5t13.5 7.5h153l210 -365l70 -129l-9 149v345h144v-690h-142l-213 375l-64 123l8 -153v-345h-144zM695 690h297v-412q0 -75 -22 -132.5t-61.5 -96.5t-94 -59t-118.5 -20q-25 0 -31 20l-21 73q100 8 152 51.5t52 135.5
v337h-153v103z" />
    <glyph glyph-name="uni01CB" unicode="&#x1cb;" horiz-adv-x="935" 
d="M70 0v601q0 23 -4.5 36.5t-17.5 27.5q-8 10 -4.5 17.5t13.5 7.5h153l210 -365l70 -129l-9 149v345h144v-690h-142l-213 375l-64 123l8 -153v-345h-144zM726 -4v414q0 21 -5 34.5t-17 27.5q-8 10 -4.5 17.5t13.5 7.5h152v-501q0 -59 -20 -111t-48 -88t-58 -51t-49 1
l-46 39q17 16 32 35t26 43.5t17.5 57t6.5 74.5zM704 655q0 36 23.5 60t60.5 24t61 -24t24 -60t-24 -60.5t-61 -24.5t-60.5 24.5t-23.5 60.5z" />
    <glyph glyph-name="uni01CC" unicode="&#x1cc;" horiz-adv-x="815" 
d="M46 497h148v-48q27 26 61 45.5t81 19.5q40 0 73.5 -11t58.5 -32t39 -52.5t14 -72.5v-346h-139v334q0 42 -18.5 61t-60.5 19q-29 0 -55 -11.5t-50 -32.5v-370h-139v408q0 23 -4.5 36.5t-17.5 27.5q-8 10 -4.5 17.5t13.5 7.5zM606 -4v414q0 21 -5 34.5t-17 27.5
q-8 10 -4.5 17.5t13.5 7.5h152v-501q0 -59 -20 -111t-48 -88t-58 -51t-49 1l-46 39q17 16 32 35t26 43.5t17.5 57t6.5 74.5zM584 655q0 36 23.5 60t60.5 24t61 -24t24 -60t-24 -60.5t-61 -24.5t-60.5 24.5t-23.5 60.5z" />
    <glyph glyph-name="uni01CD" unicode="&#x1cd;" horiz-adv-x="660" 
d="M235 578q11 29 9.5 47.5t-9.5 33.5q-17 31 17 31h132l266 -690h-145l-70 192h-214l-69 -192h-143zM258 297h139l-70 199zM156 878h117l54 -71l54 71h117l-109 -134h-124z" />
    <glyph glyph-name="uni01CE" unicode="&#x1ce;" horiz-adv-x="545" 
d="M345 222h-89q-51 0 -73 -21.5t-22 -56.5q0 -29 16.5 -47t47.5 -18q36 0 66.5 15.5t53.5 41.5v86zM260 420q-41 0 -80.5 -15t-69.5 -35q-15 -10 -23 -5.5t-8 19.5v93q19 9 43 15.5t49.5 11.5t50.5 7.5t47 2.5q103 0 159 -40t56 -123v-351h-136v54q-29 -36 -68.5 -53
t-84.5 -17q-37 0 -68 11.5t-53 32.5t-34.5 50t-12.5 64q0 80 56 126t174 46h88v37q0 37 -21.5 53t-63.5 16zM104 688h117l54 -71l54 71h117l-109 -134h-124z" />
    <glyph glyph-name="uni01CF" unicode="&#x1cf;" horiz-adv-x="335" 
d="M-4 878h117l54 -71l54 71h117l-109 -134h-124zM99 0v601q0 23 -4.5 36.5t-17.5 27.5q-8 10 -4.5 17.5t13.5 7.5h157v-690h-144z" />
    <glyph glyph-name="uni01D0" unicode="&#x1d0;" horiz-adv-x="285" 
d="M215 497v-497h-139v410q0 21 -5 34.5t-17 27.5q-8 10 -4.5 17.5t13.5 7.5h152zM-33 688h117l54 -71l54 71h117l-109 -134h-124z" />
    <glyph glyph-name="uni01D1" unicode="&#x1d1;" horiz-adv-x="780" 
d="M744 345q0 -81 -23 -148.5t-68 -115.5t-111 -74.5t-152 -26.5t-152 26.5t-111 74.5t-68 115.5t-23 148.5t23 148.5t68 115.5t111 74.5t152 26.5t152 -26.5t111 -74.5t68 -115.5t23 -148.5zM180 345q0 -127 56.5 -194.5t153.5 -67.5t153.5 67.5t56.5 194.5t-56.5 194.5
t-153.5 67.5t-153.5 -67.5t-56.5 -194.5zM214 878h117l54 -71l54 71h117l-109 -134h-124z" />
    <glyph glyph-name="uni01D2" unicode="&#x1d2;" horiz-adv-x="590" 
d="M427 249q0 79 -35.5 123.5t-96.5 44.5t-96.5 -44.5t-35.5 -123.5t35.5 -123.5t96.5 -44.5t96.5 44.5t35.5 123.5zM566 249q0 -58 -20.5 -106.5t-56.5 -84t-86 -55t-108 -19.5q-59 0 -108.5 19.5t-85.5 55t-56.5 84t-20.5 106.5t20.5 106.5t56.5 84t85.5 55t108.5 19.5
q58 0 108 -19.5t86 -55t56.5 -84t20.5 -106.5zM124 688h117l54 -71l54 71h117l-109 -134h-124z" />
    <glyph glyph-name="uni01D3" unicode="&#x1d3;" horiz-adv-x="724" 
d="M70 601q0 23 -4.5 36.5t-17.5 27.5q-8 10 -4.5 17.5t13.5 7.5h157v-442q0 -76 35.5 -119t112.5 -43q76 0 112 43t36 119v442h144v-454q0 -65 -22 -113.5t-61 -80t-92.5 -47t-116.5 -15.5t-116.5 15.5t-92.5 47t-61 80t-22 113.5v365zM194 878h117l54 -71l54 71h117
l-109 -134h-124z" />
    <glyph glyph-name="uni01D4" unicode="&#x1d4;" horiz-adv-x="575" 
d="M60 157v253q0 21 -5 34.5t-17 27.5q-8 10 -4.5 17.5t13.5 7.5h152v-334q0 -39 13 -59t54 -20q32 0 60 13.5t49 36.5v363h139v-497h-136v52q-22 -32 -61.5 -50t-78.5 -18q-84 0 -131 45.5t-47 127.5zM114 688h117l54 -71l54 71h117l-109 -134h-124z" />
    <glyph glyph-name="uni01D5" unicode="&#x1d5;" horiz-adv-x="724" 
d="M70 601q0 23 -4.5 36.5t-17.5 27.5q-8 10 -4.5 17.5t13.5 7.5h157v-442q0 -76 35.5 -119t112.5 -43q76 0 112 43t36 119v442h144v-454q0 -65 -22 -113.5t-61 -80t-92.5 -47t-116.5 -15.5t-116.5 15.5t-92.5 47t-61 80t-22 113.5v365zM211 790q0 26 16.5 42.5t42.5 16.5
t43 -16.5t17 -42.5t-17 -43t-43 -17t-42.5 17t-16.5 43zM401 790q0 26 16.5 42.5t42.5 16.5t43 -16.5t17 -42.5t-17 -43t-43 -17t-42.5 17t-16.5 43zM227 971h285v-82h-285v82z" />
    <glyph glyph-name="uni01D6" unicode="&#x1d6;" horiz-adv-x="575" 
d="M60 157v253q0 21 -5 34.5t-17 27.5q-8 10 -4.5 17.5t13.5 7.5h152v-334q0 -39 13 -59t54 -20q32 0 60 13.5t49 36.5v363h139v-497h-136v52q-22 -32 -61.5 -50t-78.5 -18q-84 0 -131 45.5t-47 127.5zM131 600q0 26 16.5 42.5t42.5 16.5t43 -16.5t17 -42.5t-17 -43t-43 -17
t-42.5 17t-16.5 43zM321 600q0 26 16.5 42.5t42.5 16.5t43 -16.5t17 -42.5t-17 -43t-43 -17t-42.5 17t-16.5 43zM147 771h285v-82h-285v82z" />
    <glyph glyph-name="uni01D7" unicode="&#x1d7;" horiz-adv-x="724" 
d="M385 993h140l-129 -134h-88zM70 601q0 23 -4.5 36.5t-17.5 27.5q-8 10 -4.5 17.5t13.5 7.5h157v-442q0 -76 35.5 -119t112.5 -43q76 0 112 43t36 119v442h144v-454q0 -65 -22 -113.5t-61 -80t-92.5 -47t-116.5 -15.5t-116.5 15.5t-92.5 47t-61 80t-22 113.5v365zM211 790
q0 26 16.5 42.5t42.5 16.5t43 -16.5t17 -42.5t-17 -43t-43 -17t-42.5 17t-16.5 43zM401 790q0 26 16.5 42.5t42.5 16.5t43 -16.5t17 -42.5t-17 -43t-43 -17t-42.5 17t-16.5 43z" />
    <glyph glyph-name="uni01D8" unicode="&#x1d8;" horiz-adv-x="575" 
d="M304 793h140l-129 -134h-88zM60 157v253q0 21 -5 34.5t-17 27.5q-8 10 -4.5 17.5t13.5 7.5h152v-334q0 -39 13 -59t54 -20q32 0 60 13.5t49 36.5v363h139v-497h-136v52q-22 -32 -61.5 -50t-78.5 -18q-84 0 -131 45.5t-47 127.5zM131 600q0 26 16.5 42.5t42.5 16.5
t43 -16.5t17 -42.5t-17 -43t-43 -17t-42.5 17t-16.5 43zM321 600q0 26 16.5 42.5t42.5 16.5t43 -16.5t17 -42.5t-17 -43t-43 -17t-42.5 17t-16.5 43z" />
    <glyph glyph-name="uni01D9" unicode="&#x1d9;" horiz-adv-x="724" 
d="M70 601q0 23 -4.5 36.5t-17.5 27.5q-8 10 -4.5 17.5t13.5 7.5h157v-442q0 -76 35.5 -119t112.5 -43q76 0 112 43t36 119v442h144v-454q0 -65 -22 -113.5t-61 -80t-92.5 -47t-116.5 -15.5t-116.5 15.5t-92.5 47t-61 80t-22 113.5v365zM194 993h117l54 -71l54 71h117
l-109 -134h-124zM211 790q0 26 16.5 42.5t42.5 16.5t43 -16.5t17 -42.5t-17 -43t-43 -17t-42.5 17t-16.5 43zM401 790q0 26 16.5 42.5t42.5 16.5t43 -16.5t17 -42.5t-17 -43t-43 -17t-42.5 17t-16.5 43z" />
    <glyph glyph-name="uni01DA" unicode="&#x1da;" horiz-adv-x="575" 
d="M60 157v253q0 21 -5 34.5t-17 27.5q-8 10 -4.5 17.5t13.5 7.5h152v-334q0 -39 13 -59t54 -20q32 0 60 13.5t49 36.5v363h139v-497h-136v52q-22 -32 -61.5 -50t-78.5 -18q-84 0 -131 45.5t-47 127.5zM114 793h117l54 -71l54 71h117l-109 -134h-124zM131 600
q0 26 16.5 42.5t42.5 16.5t43 -16.5t17 -42.5t-17 -43t-43 -17t-42.5 17t-16.5 43zM321 600q0 26 16.5 42.5t42.5 16.5t43 -16.5t17 -42.5t-17 -43t-43 -17t-42.5 17t-16.5 43z" />
    <glyph glyph-name="uni01DB" unicode="&#x1db;" horiz-adv-x="724" 
d="M425 859h-88l-129 134h140zM70 601q0 23 -4.5 36.5t-17.5 27.5q-8 10 -4.5 17.5t13.5 7.5h157v-442q0 -76 35.5 -119t112.5 -43q76 0 112 43t36 119v442h144v-454q0 -65 -22 -113.5t-61 -80t-92.5 -47t-116.5 -15.5t-116.5 15.5t-92.5 47t-61 80t-22 113.5v365zM211 790
q0 26 16.5 42.5t42.5 16.5t43 -16.5t17 -42.5t-17 -43t-43 -17t-42.5 17t-16.5 43zM401 790q0 26 16.5 42.5t42.5 16.5t43 -16.5t17 -42.5t-17 -43t-43 -17t-42.5 17t-16.5 43z" />
    <glyph glyph-name="uni01DC" unicode="&#x1dc;" horiz-adv-x="575" 
d="M345 659h-88l-129 134h140zM60 157v253q0 21 -5 34.5t-17 27.5q-8 10 -4.5 17.5t13.5 7.5h152v-334q0 -39 13 -59t54 -20q32 0 60 13.5t49 36.5v363h139v-497h-136v52q-22 -32 -61.5 -50t-78.5 -18q-84 0 -131 45.5t-47 127.5zM131 600q0 26 16.5 42.5t42.5 16.5
t43 -16.5t17 -42.5t-17 -43t-43 -17t-42.5 17t-16.5 43zM321 600q0 26 16.5 42.5t42.5 16.5t43 -16.5t17 -42.5t-17 -43t-43 -17t-42.5 17t-16.5 43z" />
    <glyph glyph-name="uni01DD" unicode="&#x1dd;" horiz-adv-x="530" 
d="M361 284q-5 70 -39 102.5t-98 32.5q-35 0 -73 -7.5t-75 -29.5l-21 60q-4 13 10 25.5t40.5 23t63 17t76.5 6.5q51 0 97.5 -15t81.5 -47t56 -81.5t21 -119.5q0 -50 -15 -97.5t-45 -85.5t-76.5 -61t-109.5 -23q-57 0 -101 20.5t-74 56t-45.5 83.5t-15.5 103v37h342zM159 192
q1 -23 7 -43t17.5 -36t29 -25t42.5 -9t44 9.5t32.5 25t20.5 36t9 42.5h-202z" />
    <glyph glyph-name="uni01DE" unicode="&#x1de;" horiz-adv-x="660" 
d="M235 578q11 29 9.5 47.5t-9.5 33.5q-17 31 17 31h132l266 -690h-145l-70 192h-214l-69 -192h-143zM258 297h139l-70 199zM171 790q0 26 16.5 42.5t42.5 16.5t43 -16.5t17 -42.5t-17 -43t-43 -17t-42.5 17t-16.5 43zM361 790q0 26 16.5 42.5t42.5 16.5t43 -16.5t17 -42.5
t-17 -43t-43 -17t-42.5 17t-16.5 43zM185 971h285v-82h-285v82z" />
    <glyph glyph-name="uni01DF" unicode="&#x1df;" horiz-adv-x="545" 
d="M345 222h-89q-51 0 -73 -21.5t-22 -56.5q0 -29 16.5 -47t47.5 -18q36 0 66.5 15.5t53.5 41.5v86zM260 420q-41 0 -80.5 -15t-69.5 -35q-15 -10 -23 -5.5t-8 19.5v93q19 9 43 15.5t49.5 11.5t50.5 7.5t47 2.5q103 0 159 -40t56 -123v-351h-136v54q-29 -36 -68.5 -53
t-84.5 -17q-37 0 -68 11.5t-53 32.5t-34.5 50t-12.5 64q0 80 56 126t174 46h88v37q0 37 -21.5 53t-63.5 16zM121 600q0 26 16.5 42.5t42.5 16.5t43 -16.5t17 -42.5t-17 -43t-43 -17t-42.5 17t-16.5 43zM311 600q0 26 16.5 42.5t42.5 16.5t43 -16.5t17 -42.5t-17 -43t-43 -17
t-42.5 17t-16.5 43zM137 771h285v-82h-285v82z" />
    <glyph glyph-name="uni01E0" unicode="&#x1e0;" horiz-adv-x="660" 
d="M235 578q11 29 9.5 47.5t-9.5 33.5q-17 31 17 31h132l266 -690h-145l-70 192h-214l-69 -192h-143zM258 297h139l-70 199zM263 790q0 27 17.5 44.5t44.5 17.5q28 0 45.5 -17.5t17.5 -44.5q0 -28 -17.5 -45.5t-45.5 -17.5q-27 0 -44.5 17.5t-17.5 45.5zM187 971h285v-82
h-285v82z" />
    <glyph glyph-name="uni01E1" unicode="&#x1e1;" horiz-adv-x="545" 
d="M345 222h-89q-51 0 -73 -21.5t-22 -56.5q0 -29 16.5 -47t47.5 -18q36 0 66.5 15.5t53.5 41.5v86zM260 420q-41 0 -80.5 -15t-69.5 -35q-15 -10 -23 -5.5t-8 19.5v93q19 9 43 15.5t49.5 11.5t50.5 7.5t47 2.5q103 0 159 -40t56 -123v-351h-136v54q-29 -36 -68.5 -53
t-84.5 -17q-37 0 -68 11.5t-53 32.5t-34.5 50t-12.5 64q0 80 56 126t174 46h88v37q0 37 -21.5 53t-63.5 16zM209 600q0 27 17.5 44.5t44.5 17.5q28 0 45.5 -17.5t17.5 -44.5q0 -28 -17.5 -45.5t-45.5 -17.5q-27 0 -44.5 17.5t-17.5 45.5zM137 771h285v-82h-285v82z" />
    <glyph glyph-name="uni01E2" unicode="&#x1e2;" horiz-adv-x="897" 
d="M403 846h285v-82h-285v82zM465 197h-213l-92 -197h-148l274 578q13 28 13 47t-8 34q-17 31 17 31h538v-103h-284l20 -190h240v-103h-230l20 -191h254v-103h-381zM298 302h156l-29 273z" />
    <glyph glyph-name="uni01E3" unicode="&#x1e3;" horiz-adv-x="850" 
d="M287 646h285v-82h-285v82zM484 214q5 -70 39 -102.5t98 -32.5q33 0 72 9t76 33l21 -65q4 -13 -10 -25.5t-40.5 -23t-63 -17t-76.5 -6.5q-58 0 -109 19t-87 61q-38 -49 -89 -64.5t-120 -15.5q-37 0 -68 11.5t-53 32.5t-34.5 50t-12.5 64q0 34 12.5 66.5t41.5 58t76.5 40.5
t117.5 15h72q1 8 4 26.5t11 37.5q-11 10 -33.5 22t-68.5 12q-41 0 -80.5 -15t-69.5 -35q-15 -10 -23 -5.5t-8 19.5v93q19 9 43 15.5t49.5 11.5t50.5 7.5t47 2.5q54 0 98.5 -11t73.5 -34q28 21 63.5 33t80.5 12q57 0 101.5 -20.5t75.5 -56t47.5 -83.5t16.5 -103v-37h-342z
M273 230q-34 0 -55.5 -6.5t-34 -18.5t-17.5 -27.5t-5 -33.5q0 -32 18 -48.5t49 -16.5q42 0 75.5 15.5t61.5 41.5q-9 21 -13.5 46t-4.5 48h-74zM686 306q-2 22 -8.5 42.5t-19 36.5t-30.5 25t-43 9q-24 0 -42 -9.5t-31 -25.5t-20 -36t-8 -42h202z" />
    <glyph glyph-name="uni01E4" unicode="&#x1e4;" horiz-adv-x="735" 
d="M517 107v82h-127v67h127q0 20 -5 33.5t-17 27.5q-8 10 -4.5 17.5t13.5 7.5h157v-86h74v-67h-74v-101q0 -22 -23 -41.5t-60.5 -34.5t-85.5 -23.5t-97 -8.5q-181 0 -270 94t-89 275q0 78 20.5 144t63 114.5t107.5 75.5t154 27q66 0 126.5 -12.5t109.5 -35.5v-107
q0 -14 -8.5 -17t-19.5 5q-39 29 -90 46.5t-107 17.5q-59 0 -99.5 -20t-65.5 -54.5t-36 -81.5t-11 -102q0 -128 51 -197t165 -69q33 0 64 6.5t57 17.5z" />
    <glyph glyph-name="uni01E5" unicode="&#x1e5;" horiz-adv-x="690" 
d="M0 -84h84q8 29 28 50.5t47 38.5q-33 31 -33 77q0 30 15 56t43 42q-38 26 -57 63.5t-19 82.5q0 39 15.5 73t44.5 59.5t72 40.5t99 15q42 0 76.5 -8.5t61.5 -23.5q23 11 50 16t45 5q21 0 37 -1.5t33 -5.5v-89q0 -7 -5 -10.5t-14 0.5q-11 5 -22.5 7.5t-25.5 2.5
q-6 0 -12 -0.5t-11 -1.5q18 -36 18 -79q0 -39 -15.5 -73.5t-44.5 -60t-72.5 -40t-98.5 -14.5q-36 0 -67 6q-24 -27 -24 -55q0 -20 11 -30.5t37 -10.5h99q43 0 80.5 -8.5t66 -25t47.5 -41t25 -57.5h76v-67h-77q-14 -69 -81 -104.5t-183 -35.5q-122 0 -190 37.5t-79 102.5h-80
v67zM431 326q0 45 -23.5 70.5t-68.5 25.5t-68.5 -25.5t-23.5 -70.5t23.5 -70.5t68.5 -25.5t68.5 25.5t23.5 70.5zM391 -42h-95q-12 0 -23.5 1t-22.5 3q-11 -11 -18 -24t-11 -26h253q-6 22 -25 34t-58 12zM349 -199q58 0 87 14t37 38h-253q8 -25 38 -38.5t91 -13.5z" />
    <glyph glyph-name="Gcaron" unicode="&#x1e6;" horiz-adv-x="725" 
d="M517 107v148q0 21 -5 34.5t-17 27.5q-8 10 -4.5 17.5t13.5 7.5h157v-254q0 -22 -23 -41.5t-60.5 -34.5t-85.5 -23.5t-97 -8.5q-181 0 -270 94t-89 275q0 78 20.5 144t63 114.5t107.5 75.5t154 27q66 0 126.5 -12.5t109.5 -35.5v-107q0 -14 -8.5 -17t-19.5 5
q-39 29 -90 46.5t-107 17.5q-59 0 -99.5 -20t-65.5 -54.5t-36 -81.5t-11 -102q0 -128 51 -197t165 -69q33 0 64 6.5t57 17.5zM214 879h117l54 -71l54 71h117l-109 -134h-124z" />
    <glyph glyph-name="gcaron" unicode="&#x1e7;" horiz-adv-x="590" 
d="M503 326q0 -39 -15.5 -73.5t-44.5 -60t-72.5 -40t-98.5 -14.5q-36 0 -67 6q-24 -27 -24 -55q0 -20 11 -30.5t37 -10.5h99q48 0 89 -10.5t70.5 -31t46 -51.5t16.5 -71q0 -86 -68.5 -130.5t-199.5 -44.5q-134 0 -202.5 45t-68.5 121q0 45 22.5 76.5t58.5 53.5
q-33 31 -33 77q0 30 15 56t43 42q-38 26 -57 63.5t-19 82.5q0 39 15.5 73t44.5 59.5t72 40.5t99 15q42 0 76.5 -8.5t61.5 -23.5q23 11 50 16t45 5q21 0 37 -1.5t33 -5.5v-89q0 -7 -5 -10.5t-14 0.5q-11 5 -22.5 7.5t-25.5 2.5q-6 0 -12 -0.5t-11 -1.5q18 -36 18 -79z
M150 -121q0 -37 28.5 -57.5t103.5 -20.5q74 0 101.5 22t27.5 60q0 34 -18 54.5t-69 20.5h-95q-12 0 -23.5 1t-22.5 3q-19 -20 -26 -42t-7 -41zM364 326q0 45 -23.5 70.5t-68.5 25.5t-68.5 -25.5t-23.5 -70.5t23.5 -70.5t68.5 -25.5t68.5 25.5t23.5 70.5zM124 688h117l54 -71
l54 71h117l-109 -134h-124z" />
    <glyph glyph-name="uni01E8" unicode="&#x1e8;" horiz-adv-x="635" 
d="M70 0v601q0 23 -4.5 36.5t-17.5 27.5q-8 10 -4.5 17.5t13.5 7.5h157v-287l235 286h163l-245 -301l265 -388h-154l-196 286q-13 18 -24 26t-28 8h-16v-320h-144zM154 878h117l54 -71l54 71h117l-109 -134h-124z" />
    <glyph glyph-name="uni01E9" unicode="&#x1e9;" horiz-adv-x="555" 
d="M64 0v621q0 23 -4.5 36.5t-17.5 27.5q-8 10 -4.5 17.5t13.5 7.5h152v-407l174 194h159l-188 -212l211 -285h-153l-151 208q-12 17 -19.5 21.5t-20.5 4.5h-12v-234h-139zM124 878h117l54 -71l54 71h117l-109 -134h-124z" />
    <glyph glyph-name="uni01EA" unicode="&#x1ea;" horiz-adv-x="780" 
d="M744 345q0 -75 -20 -138.5t-58.5 -111t-95.5 -76.5t-131 -36q-20 -21 -30.5 -43t-10.5 -38q0 -17 12 -23.5t32 -6.5q12 0 25 4t23 7l23 -67q-26 -14 -47.5 -19.5t-53.5 -5.5q-52 0 -83 24.5t-31 65.5q0 26 9.5 52t30.5 50q-74 7 -130 36.5t-94.5 77t-58 110.5t-19.5 138
q0 81 23 148.5t68 115.5t111 74.5t152 26.5t152 -26.5t111 -74.5t68 -115.5t23 -148.5zM180 345q0 -127 56.5 -194.5t153.5 -67.5t153.5 67.5t56.5 194.5t-56.5 194.5t-153.5 67.5t-153.5 -67.5t-56.5 -194.5z" />
    <glyph glyph-name="uni01EB" unicode="&#x1eb;" horiz-adv-x="590" 
d="M566 249q0 -52 -16.5 -97t-46.5 -79t-71.5 -56.5t-90.5 -29.5q-22 -21 -33.5 -44.5t-11.5 -40.5t12 -23.5t32 -6.5q12 0 25 4t23 7l23 -67q-26 -14 -47.5 -19.5t-53.5 -5.5q-52 0 -83 24.5t-31 65.5q0 27 10.5 55t34.5 53q-48 8 -88 30.5t-68.5 56t-44.5 78t-16 95.5
q0 58 20.5 106.5t56.5 84t85.5 55t108.5 19.5q58 0 108 -19.5t86 -55t56.5 -84t20.5 -106.5zM427 249q0 79 -35.5 123.5t-96.5 44.5t-96.5 -44.5t-35.5 -123.5t35.5 -123.5t96.5 -44.5t96.5 44.5t35.5 123.5z" />
    <glyph glyph-name="uni01EC" unicode="&#x1ec;" horiz-adv-x="780" 
d="M744 345q0 -75 -20 -138.5t-58.5 -111t-95.5 -76.5t-131 -36q-20 -21 -30.5 -43t-10.5 -38q0 -17 12 -23.5t32 -6.5q12 0 25 4t23 7l23 -67q-26 -14 -47.5 -19.5t-53.5 -5.5q-52 0 -83 24.5t-31 65.5q0 26 9.5 52t30.5 50q-74 7 -130 36.5t-94.5 77t-58 110.5t-19.5 138
q0 81 23 148.5t68 115.5t111 74.5t152 26.5t152 -26.5t111 -74.5t68 -115.5t23 -148.5zM180 345q0 -127 56.5 -194.5t153.5 -67.5t153.5 67.5t56.5 194.5t-56.5 194.5t-153.5 67.5t-153.5 -67.5t-56.5 -194.5zM243 846h285v-82h-285v82z" />
    <glyph glyph-name="uni01ED" unicode="&#x1ed;" horiz-adv-x="590" 
d="M566 249q0 -52 -16.5 -97t-46.5 -79t-71.5 -56.5t-90.5 -29.5q-22 -21 -33.5 -44.5t-11.5 -40.5t12 -23.5t32 -6.5q12 0 25 4t23 7l23 -67q-26 -14 -47.5 -19.5t-53.5 -5.5q-52 0 -83 24.5t-31 65.5q0 27 10.5 55t34.5 53q-48 8 -88 30.5t-68.5 56t-44.5 78t-16 95.5
q0 58 20.5 106.5t56.5 84t85.5 55t108.5 19.5q58 0 108 -19.5t86 -55t56.5 -84t20.5 -106.5zM427 249q0 79 -35.5 123.5t-96.5 44.5t-96.5 -44.5t-35.5 -123.5t35.5 -123.5t96.5 -44.5t96.5 44.5t35.5 123.5zM153 636h285v-82h-285v82z" />
    <glyph glyph-name="uni01EE" unicode="&#x1ee;" horiz-adv-x="554" 
d="M102 878h117l54 -71l54 71h117l-109 -134h-124zM504 191q0 -100 -66 -155.5t-204 -55.5q-45 0 -86 11t-67 25q-29 15 -41.5 25.5t-7.5 24.5l28 74q45 -32 88.5 -46.5t85.5 -14.5q57 0 94 25.5t37 86.5q0 39 -8.5 67t-26 48.5t-44 34.5t-62.5 25l135 221h-285v103h434v-76
q0 -19 -6 -31.5t-12 -23.5l-114 -158q22 -10 44.5 -27t41 -42t30.5 -60t12 -81z" />
    <glyph glyph-name="uni01EF" unicode="&#x1ef;" horiz-adv-x="424" 
d="M394 141q0 -77 -54 -119t-166 -42q-35 0 -64.5 7t-50.5 22q-26 18 -33.5 31.5t0.5 25.5l39 54q26 -25 52 -33t57 -8q35 0 58 18t23 44q0 35 -34.5 56.5t-106.5 33.5l125 163h-185v103h334v-76q0 -35 -18 -55l-94 -100q20 -7 41 -17.5t38 -25.5t28 -35t11 -47zM65 688h117
l54 -71l54 71h117l-109 -134h-124z" />
    <glyph glyph-name="uni01F0" unicode="&#x1f0;" horiz-adv-x="285" 
d="M76 -4v414q0 21 -5 34.5t-17 27.5q-8 10 -4.5 17.5t13.5 7.5h152v-501q0 -59 -20 -111t-48 -88t-58 -51t-49 1l-46 39q17 16 32 35t26 43.5t17.5 57t6.5 74.5zM-28 689h117l54 -71l54 71h117l-109 -134h-124z" />
    <glyph glyph-name="uni01F1" unicode="&#x1f1;" horiz-adv-x="1160" 
d="M57 690h265q72 0 135 -20.5t110.5 -62.5t74.5 -107t27 -155t-27 -155t-74.5 -107t-110.5 -62.5t-135 -20.5h-252v601q0 23 -4.5 36.5t-17.5 27.5q-8 10 -4.5 17.5t13.5 7.5zM300 103q66 0 109 17.5t69 49.5t36.5 76.5t10.5 98.5t-10.5 98.5t-36.5 76.5t-69 49.5
t-109 17.5h-86v-484h86zM837 103h294v-103h-474v74l299 513h-285v103h454v-76q0 -19 -6 -31.5t-12 -23.5z" />
    <glyph glyph-name="uni01F2" unicode="&#x1f2;" horiz-adv-x="1090" 
d="M57 690h265q72 0 135 -20.5t110.5 -62.5t74.5 -107t27 -155t-27 -155t-74.5 -107t-110.5 -62.5t-135 -20.5h-252v601q0 23 -4.5 36.5t-17.5 27.5q-8 10 -4.5 17.5t13.5 7.5zM300 103q66 0 109 17.5t69 49.5t36.5 76.5t10.5 98.5t-10.5 98.5t-36.5 76.5t-69 49.5
t-109 17.5h-86v-484h86zM865 97h200v-97h-375v53l205 347h-193v97h359v-55q0 -14 -4 -23t-9 -17z" />
    <glyph glyph-name="uni01F3" unicode="&#x1f3;" horiz-adv-x="980" 
d="M755 97h200v-97h-375v53l205 347h-193v97h359v-55q0 -14 -4 -23t-9 -17zM536 709v-709h-136v51q-26 -34 -63.5 -50.5t-77.5 -16.5q-51 0 -93 19.5t-72.5 54.5t-47.5 83.5t-17 106.5q0 63 17.5 112t50 83.5t78 52.5t101.5 18q38 0 69 -10t52 -24v140q0 23 -4.5 36.5
t-17.5 27.5q-8 10 -4.5 17.5t13.5 7.5h152zM298 417q-130 0 -130 -169q0 -45 10 -76.5t26.5 -52t38.5 -29.5t45 -9q34 0 62 16.5t47 41.5v242q-17 14 -43.5 25t-55.5 11z" />
    <glyph glyph-name="uni01F4" unicode="&#x1f4;" horiz-adv-x="725" 
d="M517 107v148q0 21 -5 34.5t-17 27.5q-8 10 -4.5 17.5t13.5 7.5h157v-254q0 -22 -23 -41.5t-60.5 -34.5t-85.5 -23.5t-97 -8.5q-181 0 -270 94t-89 275q0 78 20.5 144t63 114.5t107.5 75.5t154 27q66 0 126.5 -12.5t109.5 -35.5v-107q0 -14 -8.5 -17t-19.5 5
q-39 29 -90 46.5t-107 17.5q-59 0 -99.5 -20t-65.5 -54.5t-36 -81.5t-11 -102q0 -128 51 -197t165 -69q33 0 64 6.5t57 17.5zM396 878h140l-129 -134h-88z" />
    <glyph glyph-name="uni01F5" unicode="&#x1f5;" horiz-adv-x="585" 
d="M503 326q0 -39 -15.5 -73.5t-44.5 -60t-72.5 -40t-98.5 -14.5q-36 0 -67 6q-24 -27 -24 -55q0 -20 11 -30.5t37 -10.5h99q48 0 89 -10.5t70.5 -31t46 -51.5t16.5 -71q0 -86 -68.5 -130.5t-199.5 -44.5q-134 0 -202.5 45t-68.5 121q0 45 22.5 76.5t58.5 53.5
q-33 31 -33 77q0 30 15 56t43 42q-38 26 -57 63.5t-19 82.5q0 39 15.5 73t44.5 59.5t72 40.5t99 15q42 0 76.5 -8.5t61.5 -23.5q23 11 50 16t45 5q21 0 37 -1.5t33 -5.5v-89q0 -7 -5 -10.5t-14 0.5q-11 5 -22.5 7.5t-25.5 2.5q-6 0 -12 -0.5t-11 -1.5q18 -36 18 -79z
M150 -121q0 -37 28.5 -57.5t103.5 -20.5q74 0 101.5 22t27.5 60q0 34 -18 54.5t-69 20.5h-95q-12 0 -23.5 1t-22.5 3q-19 -20 -26 -42t-7 -41zM364 326q0 45 -23.5 70.5t-68.5 25.5t-68.5 -25.5t-23.5 -70.5t23.5 -70.5t68.5 -25.5t68.5 25.5t23.5 70.5zM291 688h140
l-129 -134h-88z" />
    <glyph glyph-name="uni01F6" unicode="&#x1f6;" horiz-adv-x="971" 
d="M595 690v-527q0 -39 13 -59t54 -20q32 0 60 13.5t49 36.5v363h139v-497h-136v52q-22 -32 -61.5 -50t-78.5 -18q-84 0 -133.5 45.5t-49.5 127.5v148h-237v-305h-144v601q0 23 -4.5 36.5t-17.5 27.5q-8 10 -4.5 17.5t13.5 7.5h157v-279h237v279h144z" />
    <glyph glyph-name="uni01F7" unicode="&#x1f7;" horiz-adv-x="597" 
d="M203 -79v-168h-139v850q0 20 -5 34t-17 28q-8 10 -4.5 17.5t13.5 7.5h149v-50q24 34 59 50.5t72 16.5q51 0 93 -18t72.5 -52.5t47.5 -83.5t17 -110q0 -71 -26.5 -143.5t-74 -140.5t-113 -129t-144.5 -109zM203 70q56 41 97.5 87.5t68.5 95t40 97t13 93.5t-10 76.5
t-26.5 52t-38.5 29.5t-45 9q-31 0 -56.5 -16.5t-42.5 -41.5v-482z" />
    <glyph glyph-name="uni01F8" unicode="&#x1f8;" horiz-adv-x="695" 
d="M70 0v601q0 23 -4.5 36.5t-17.5 27.5q-8 10 -4.5 17.5t13.5 7.5h153l210 -365l70 -129l-9 149v345h144v-690h-142l-213 375l-64 123l8 -153v-345h-144zM441 744h-88l-129 134h140z" />
    <glyph glyph-name="uni01F9" unicode="&#x1f9;" horiz-adv-x="580" 
d="M46 497h148v-48q27 26 61 45.5t81 19.5q40 0 73.5 -11t58.5 -32t39 -52.5t14 -72.5v-346h-139v334q0 42 -18.5 61t-60.5 19q-29 0 -55 -11.5t-50 -32.5v-370h-139v408q0 23 -4.5 36.5t-17.5 27.5q-8 10 -4.5 17.5t13.5 7.5zM376 554h-88l-129 134h140z" />
    <glyph glyph-name="Aringacute" unicode="&#x1fa;" horiz-adv-x="660" 
d="M235 578q11 29 9.5 47.5t-9.5 33.5q-17 31 17 31h132l266 -690h-145l-70 192h-214l-69 -192h-143zM258 297h139l-70 199zM354 815q0 16 -9.5 26t-26.5 10t-26.5 -10t-9.5 -26t9.5 -26t26.5 -10t26.5 10t9.5 26zM422 815q0 -43 -30.5 -69.5t-73.5 -26.5t-73.5 26.5
t-30.5 69.5t30.5 69.5t73.5 26.5t73.5 -26.5t30.5 -69.5zM323 1058h140l-129 -134h-88z" />
    <glyph glyph-name="aringacute" unicode="&#x1fb;" horiz-adv-x="545" 
d="M345 222h-89q-51 0 -73 -21.5t-22 -56.5q0 -29 16.5 -47t47.5 -18q36 0 66.5 15.5t53.5 41.5v86zM260 420q-41 0 -80.5 -15t-69.5 -35q-15 -10 -23 -5.5t-8 19.5v93q19 9 43 15.5t49.5 11.5t50.5 7.5t47 2.5q103 0 159 -40t56 -123v-351h-136v54q-29 -36 -68.5 -53
t-84.5 -17q-37 0 -68 11.5t-53 32.5t-34.5 50t-12.5 64q0 80 56 126t174 46h88v37q0 37 -21.5 53t-63.5 16zM276 888h140l-129 -134h-88zM307 645q0 16 -9.5 26t-26.5 10t-26.5 -10t-9.5 -26t9.5 -26t26.5 -10t26.5 10t9.5 26zM375 645q0 -43 -30.5 -69.5t-73.5 -26.5
t-73.5 26.5t-30.5 69.5t30.5 69.5t73.5 26.5t73.5 -26.5t30.5 -69.5z" />
    <glyph glyph-name="AEacute" unicode="&#x1fc;" horiz-adv-x="900" 
d="M486 878h140l-129 -134h-88zM465 197h-213l-92 -197h-148l274 578q13 28 13 47t-8 34q-17 31 17 31h538v-103h-284l20 -190h240v-103h-230l20 -191h254v-103h-381zM298 302h156l-29 273z" />
    <glyph glyph-name="aeacute" unicode="&#x1fd;" horiz-adv-x="850" 
d="M421 688h140l-129 -134h-88zM484 214q5 -70 39 -102.5t98 -32.5q33 0 72 9t76 33l21 -65q4 -13 -10 -25.5t-40.5 -23t-63 -17t-76.5 -6.5q-58 0 -109 19t-87 61q-38 -49 -89 -64.5t-120 -15.5q-37 0 -68 11.5t-53 32.5t-34.5 50t-12.5 64q0 34 12.5 66.5t41.5 58
t76.5 40.5t117.5 15h72q1 8 4 26.5t11 37.5q-11 10 -33.5 22t-68.5 12q-41 0 -80.5 -15t-69.5 -35q-15 -10 -23 -5.5t-8 19.5v93q19 9 43 15.5t49.5 11.5t50.5 7.5t47 2.5q54 0 98.5 -11t73.5 -34q28 21 63.5 33t80.5 12q57 0 101.5 -20.5t75.5 -56t47.5 -83.5t16.5 -103
v-37h-342zM273 230q-34 0 -55.5 -6.5t-34 -18.5t-17.5 -27.5t-5 -33.5q0 -32 18 -48.5t49 -16.5q42 0 75.5 15.5t61.5 41.5q-9 21 -13.5 46t-4.5 48h-74zM686 306q-2 22 -8.5 42.5t-19 36.5t-30.5 25t-43 9q-24 0 -42 -9.5t-31 -25.5t-20 -36t-8 -42h202z" />
    <glyph glyph-name="Oslashacute" unicode="&#x1fe;" horiz-adv-x="780" 
d="M744 345q0 -81 -23 -148.5t-68 -115.5t-111 -74.5t-152 -26.5q-42 0 -78 6.5t-68 17.5l-52 -89h-86l72 123q-70 48 -106 126t-36 181q0 81 23 148.5t68 115.5t111 74.5t152 26.5q90 0 161 -31l48 82h86l-69 -119q63 -48 95.5 -124t32.5 -173zM180 345q0 -131 60 -199
l254 435q-46 26 -104 26q-97 0 -153.5 -67.5t-56.5 -194.5zM390 83q97 0 153.5 67.5t56.5 194.5q0 59 -13 105.5t-37 79.5l-250 -429q40 -18 90 -18zM371 878h140l-129 -134h-88z" />
    <glyph glyph-name="oslashacute" unicode="&#x1ff;" horiz-adv-x="590" 
d="M566 249q0 -58 -20.5 -106.5t-56.5 -84t-86 -55t-108 -19.5q-39 0 -75 9l-32 -78h-74l43 102q-61 33 -97 93.5t-36 138.5q0 58 20.5 106.5t56.5 84t85.5 55t108.5 19.5q17 0 33.5 -2t33.5 -5l35 84h74l-45 -107q64 -32 102 -93t38 -142zM427 249q0 44 -11.5 77t-32.5 55
l-124 -296q15 -4 36 -4q61 0 96.5 44.5t35.5 123.5zM295 417q-61 0 -96.5 -44.5t-35.5 -123.5q0 -83 38 -127l122 292q-14 3 -28 3zM296 688h140l-129 -134h-88z" />
    <glyph glyph-name="uni0200" unicode="&#x200;" horiz-adv-x="660" 
d="M235 578q11 29 9.5 47.5t-9.5 33.5q-17 31 17 31h132l266 -690h-145l-70 192h-214l-69 -192h-143zM258 297h139l-70 199zM266 744h-69l-114 134h116zM422 744h-69l-114 134h116z" />
    <glyph glyph-name="uni0201" unicode="&#x201;" horiz-adv-x="545" 
d="M345 222h-89q-51 0 -73 -21.5t-22 -56.5q0 -29 16.5 -47t47.5 -18q36 0 66.5 15.5t53.5 41.5v86zM260 420q-41 0 -80.5 -15t-69.5 -35q-15 -10 -23 -5.5t-8 19.5v93q19 9 43 15.5t49.5 11.5t50.5 7.5t47 2.5q103 0 159 -40t56 -123v-351h-136v54q-29 -36 -68.5 -53
t-84.5 -17q-37 0 -68 11.5t-53 32.5t-34.5 50t-12.5 64q0 80 56 126t174 46h88v37q0 37 -21.5 53t-63.5 16zM246 554h-69l-114 134h116zM402 554h-69l-114 134h116z" />
    <glyph glyph-name="uni0202" unicode="&#x202;" horiz-adv-x="660" 
d="M235 578q11 29 9.5 47.5t-9.5 33.5q-17 31 17 31h132l266 -690h-145l-70 192h-214l-69 -192h-143zM258 297h139l-70 199zM328 881q30 0 56.5 -8.5t47.5 -24.5t34 -39t16 -52h-104q-5 26 -17.5 41t-32.5 15q-18 1 -31.5 -14.5t-18.5 -41.5h-104q3 29 16 52t34 39
t47.5 24.5t56.5 8.5z" />
    <glyph glyph-name="uni0203" unicode="&#x203;" horiz-adv-x="545" 
d="M345 222h-89q-51 0 -73 -21.5t-22 -56.5q0 -29 16.5 -47t47.5 -18q36 0 66.5 15.5t53.5 41.5v86zM260 420q-41 0 -80.5 -15t-69.5 -35q-15 -10 -23 -5.5t-8 19.5v93q19 9 43 15.5t49.5 11.5t50.5 7.5t47 2.5q103 0 159 -40t56 -123v-351h-136v54q-29 -36 -68.5 -53
t-84.5 -17q-37 0 -68 11.5t-53 32.5t-34.5 50t-12.5 64q0 80 56 126t174 46h88v37q0 37 -21.5 53t-63.5 16zM280 691q30 0 56.5 -8.5t47.5 -24.5t34 -39t16 -52h-104q-5 26 -17.5 41t-32.5 15q-18 1 -31.5 -14.5t-18.5 -41.5h-104q3 29 16 52t34 39t47.5 24.5t56.5 8.5z" />
    <glyph glyph-name="uni0204" unicode="&#x204;" 
d="M70 0v601q0 23 -4.5 36.5t-17.5 27.5q-8 10 -4.5 17.5t13.5 7.5h424v-103h-267v-190h243v-103h-243v-191h287v-103h-431zM286 744h-69l-114 134h116zM442 744h-69l-114 134h116z" />
    <glyph glyph-name="uni0205" unicode="&#x205;" 
d="M169 214q5 -70 39 -102.5t98 -32.5q35 0 73 7.5t75 29.5l21 -60q4 -13 -10 -25.5t-40.5 -23t-63 -17t-76.5 -6.5q-51 0 -97.5 15t-81.5 47t-56 81.5t-21 119.5q0 49 15 97t45 86t76.5 61t109.5 23q57 0 101 -20.5t74 -56t45.5 -83.5t15.5 -103v-37h-342zM371 306
q-2 22 -7.5 42.5t-17 36.5t-29 25t-42.5 9t-44 -9.5t-32.5 -25.5t-21 -36t-8.5 -42h202zM266 554h-69l-114 134h116zM422 554h-69l-114 134h116z" />
    <glyph glyph-name="uni0206" unicode="&#x206;" 
d="M70 0v601q0 23 -4.5 36.5t-17.5 27.5q-8 10 -4.5 17.5t13.5 7.5h424v-103h-267v-190h243v-103h-243v-191h287v-103h-431zM270 881q30 0 56.5 -8.5t47.5 -24.5t34 -39t16 -52h-104q-5 26 -17.5 41t-32.5 15q-18 1 -31.5 -14.5t-18.5 -41.5h-104q3 29 16 52t34 39
t47.5 24.5t56.5 8.5z" />
    <glyph glyph-name="uni0207" unicode="&#x207;" 
d="M169 214q5 -70 39 -102.5t98 -32.5q35 0 73 7.5t75 29.5l21 -60q4 -13 -10 -25.5t-40.5 -23t-63 -17t-76.5 -6.5q-51 0 -97.5 15t-81.5 47t-56 81.5t-21 119.5q0 49 15 97t45 86t76.5 61t109.5 23q57 0 101 -20.5t74 -56t45.5 -83.5t15.5 -103v-37h-342zM371 306
q-2 22 -7.5 42.5t-17 36.5t-29 25t-42.5 9t-44 -9.5t-32.5 -25.5t-21 -36t-8.5 -42h202zM265 691q30 0 56.5 -8.5t47.5 -24.5t34 -39t16 -52h-104q-5 26 -17.5 41t-32.5 15q-18 1 -31.5 -14.5t-18.5 -41.5h-104q3 29 16 52t34 39t47.5 24.5t56.5 8.5z" />
    <glyph glyph-name="uni0208" unicode="&#x208;" horiz-adv-x="335" 
d="M179 744h-69l-114 134h116zM335 744h-69l-114 134h116zM99 0v601q0 23 -4.5 36.5t-17.5 27.5q-8 10 -4.5 17.5t13.5 7.5h157v-690h-144z" />
    <glyph glyph-name="uni0209" unicode="&#x209;" horiz-adv-x="285" 
d="M215 497v-497h-139v410q0 21 -5 34.5t-17 27.5q-8 10 -4.5 17.5t13.5 7.5h152zM125 554h-69l-114 134h116zM281 554h-69l-114 134h116z" />
    <glyph glyph-name="uni020A" unicode="&#x20a;" horiz-adv-x="335" 
d="M168 881q30 0 56.5 -8.5t47.5 -24.5t34 -39t16 -52h-104q-5 26 -17.5 41t-32.5 15q-18 1 -31.5 -14.5t-18.5 -41.5h-104q3 29 16 52t34 39t47.5 24.5t56.5 8.5zM99 0v601q0 23 -4.5 36.5t-17.5 27.5q-8 10 -4.5 17.5t13.5 7.5h157v-690h-144z" />
    <glyph glyph-name="uni020B" unicode="&#x20b;" horiz-adv-x="285" 
d="M215 497v-497h-139v410q0 21 -5 34.5t-17 27.5q-8 10 -4.5 17.5t13.5 7.5h152zM144 691q30 0 56.5 -8.5t47.5 -24.5t34 -39t16 -52h-104q-5 26 -17.5 41t-32.5 15q-18 1 -31.5 -14.5t-18.5 -41.5h-104q3 29 16 52t34 39t47.5 24.5t56.5 8.5z" />
    <glyph glyph-name="uni020C" unicode="&#x20c;" horiz-adv-x="780" 
d="M744 345q0 -81 -23 -148.5t-68 -115.5t-111 -74.5t-152 -26.5t-152 26.5t-111 74.5t-68 115.5t-23 148.5t23 148.5t68 115.5t111 74.5t152 26.5t152 -26.5t111 -74.5t68 -115.5t23 -148.5zM180 345q0 -127 56.5 -194.5t153.5 -67.5t153.5 67.5t56.5 194.5t-56.5 194.5
t-153.5 67.5t-153.5 -67.5t-56.5 -194.5zM351 744h-69l-114 134h116zM507 744h-69l-114 134h116z" />
    <glyph glyph-name="uni020D" unicode="&#x20d;" horiz-adv-x="590" 
d="M427 249q0 79 -35.5 123.5t-96.5 44.5t-96.5 -44.5t-35.5 -123.5t35.5 -123.5t96.5 -44.5t96.5 44.5t35.5 123.5zM566 249q0 -58 -20.5 -106.5t-56.5 -84t-86 -55t-108 -19.5q-59 0 -108.5 19.5t-85.5 55t-56.5 84t-20.5 106.5t20.5 106.5t56.5 84t85.5 55t108.5 19.5
q58 0 108 -19.5t86 -55t56.5 -84t20.5 -106.5zM276 554h-69l-114 134h116zM432 554h-69l-114 134h116z" />
    <glyph glyph-name="uni020E" unicode="&#x20e;" horiz-adv-x="780" 
d="M744 345q0 -81 -23 -148.5t-68 -115.5t-111 -74.5t-152 -26.5t-152 26.5t-111 74.5t-68 115.5t-23 148.5t23 148.5t68 115.5t111 74.5t152 26.5t152 -26.5t111 -74.5t68 -115.5t23 -148.5zM180 345q0 -127 56.5 -194.5t153.5 -67.5t153.5 67.5t56.5 194.5t-56.5 194.5
t-153.5 67.5t-153.5 -67.5t-56.5 -194.5zM391 881q30 0 56.5 -8.5t47.5 -24.5t34 -39t16 -52h-104q-5 26 -17.5 41t-32.5 15q-18 1 -31.5 -14.5t-18.5 -41.5h-104q3 29 16 52t34 39t47.5 24.5t56.5 8.5z" />
    <glyph glyph-name="uni020F" unicode="&#x20f;" horiz-adv-x="590" 
d="M427 249q0 79 -35.5 123.5t-96.5 44.5t-96.5 -44.5t-35.5 -123.5t35.5 -123.5t96.5 -44.5t96.5 44.5t35.5 123.5zM566 249q0 -58 -20.5 -106.5t-56.5 -84t-86 -55t-108 -19.5q-59 0 -108.5 19.5t-85.5 55t-56.5 84t-20.5 106.5t20.5 106.5t56.5 84t85.5 55t108.5 19.5
q58 0 108 -19.5t86 -55t56.5 -84t20.5 -106.5zM296 691q30 0 56.5 -8.5t47.5 -24.5t34 -39t16 -52h-104q-5 26 -17.5 41t-32.5 15q-18 1 -31.5 -14.5t-18.5 -41.5h-104q3 29 16 52t34 39t47.5 24.5t56.5 8.5z" />
    <glyph glyph-name="uni0210" unicode="&#x210;" horiz-adv-x="600" 
d="M57 690h246q63 0 108 -15.5t73.5 -43t42 -64.5t13.5 -80q0 -75 -31.5 -122t-89.5 -64l194 -301h-151l-176 278q-7 11 -22 11h-50v-289h-144v601q0 23 -4.5 36.5t-17.5 27.5q-8 10 -4.5 17.5t13.5 7.5zM214 387h77q106 0 106 100t-106 100h-77v-200zM276 744h-69l-114 134
h116zM432 744h-69l-114 134h116z" />
    <glyph glyph-name="uni0211" unicode="&#x211;" horiz-adv-x="401" 
d="M322 502q11 0 23 -1.5t20 -3.5v-99q0 -14 -6 -15.5t-16 1.5q-13 4 -30 7.5t-37 3.5q-26 0 -45.5 -12t-32.5 -26v-357h-139v410q0 21 -5 34.5t-17 27.5q-8 10 -4.5 17.5t13.5 7.5h149v-79q17 38 48.5 61t78.5 23zM206 554h-69l-114 134h116zM362 554h-69l-114 134h116z
" />
    <glyph glyph-name="uni0212" unicode="&#x212;" horiz-adv-x="600" 
d="M57 690h246q63 0 108 -15.5t73.5 -43t42 -64.5t13.5 -80q0 -75 -31.5 -122t-89.5 -64l194 -301h-151l-176 278q-7 11 -22 11h-50v-289h-144v601q0 23 -4.5 36.5t-17.5 27.5q-8 10 -4.5 17.5t13.5 7.5zM214 387h77q106 0 106 100t-106 100h-77v-200zM286 881
q30 0 56.5 -8.5t47.5 -24.5t34 -39t16 -52h-104q-5 26 -17.5 41t-32.5 15q-18 1 -31.5 -14.5t-18.5 -41.5h-104q3 29 16 52t34 39t47.5 24.5t56.5 8.5z" />
    <glyph glyph-name="uni0213" unicode="&#x213;" horiz-adv-x="385" 
d="M322 502q11 0 23 -1.5t20 -3.5v-99q0 -14 -6 -15.5t-16 1.5q-13 4 -30 7.5t-37 3.5q-26 0 -45.5 -12t-32.5 -26v-357h-139v410q0 21 -5 34.5t-17 27.5q-8 10 -4.5 17.5t13.5 7.5h149v-79q17 38 48.5 61t78.5 23zM196 691q30 0 56.5 -8.5t47.5 -24.5t34 -39t16 -52h-104
q-5 26 -17.5 41t-32.5 15q-18 1 -31.5 -14.5t-18.5 -41.5h-104q3 29 16 52t34 39t47.5 24.5t56.5 8.5z" />
    <glyph glyph-name="uni0214" unicode="&#x214;" horiz-adv-x="724" 
d="M70 601q0 23 -4.5 36.5t-17.5 27.5q-8 10 -4.5 17.5t13.5 7.5h157v-442q0 -76 35.5 -119t112.5 -43q76 0 112 43t36 119v442h144v-454q0 -65 -22 -113.5t-61 -80t-92.5 -47t-116.5 -15.5t-116.5 15.5t-92.5 47t-61 80t-22 113.5v365zM368 744h-69l-114 134h116zM524 744
h-69l-114 134h116z" />
    <glyph glyph-name="uni0215" unicode="&#x215;" horiz-adv-x="575" 
d="M60 157v253q0 21 -5 34.5t-17 27.5q-8 10 -4.5 17.5t13.5 7.5h152v-334q0 -39 13 -59t54 -20q32 0 60 13.5t49 36.5v363h139v-497h-136v52q-22 -32 -61.5 -50t-78.5 -18q-84 0 -131 45.5t-47 127.5zM273 554h-69l-114 134h116zM429 554h-69l-114 134h116z" />
    <glyph glyph-name="uni0216" unicode="&#x216;" horiz-adv-x="724" 
d="M70 601q0 23 -4.5 36.5t-17.5 27.5q-8 10 -4.5 17.5t13.5 7.5h157v-442q0 -76 35.5 -119t112.5 -43q76 0 112 43t36 119v442h144v-454q0 -65 -22 -113.5t-61 -80t-92.5 -47t-116.5 -15.5t-116.5 15.5t-92.5 47t-61 80t-22 113.5v365zM368 881q30 0 56.5 -8.5t47.5 -24.5
t34 -39t16 -52h-104q-5 26 -17.5 41t-32.5 15q-18 1 -31.5 -14.5t-18.5 -41.5h-104q3 29 16 52t34 39t47.5 24.5t56.5 8.5z" />
    <glyph glyph-name="uni0217" unicode="&#x217;" horiz-adv-x="575" 
d="M60 157v253q0 21 -5 34.5t-17 27.5q-8 10 -4.5 17.5t13.5 7.5h152v-334q0 -39 13 -59t54 -20q32 0 60 13.5t49 36.5v363h139v-497h-136v52q-22 -32 -61.5 -50t-78.5 -18q-84 0 -131 45.5t-47 127.5zM280 691q30 0 56.5 -8.5t47.5 -24.5t34 -39t16 -52h-104
q-5 26 -17.5 41t-32.5 15q-18 1 -31.5 -14.5t-18.5 -41.5h-104q3 29 16 52t34 39t47.5 24.5t56.5 8.5z" />
    <glyph glyph-name="Scommaaccent" unicode="&#x218;" 
d="M56 147q20 -16 44.5 -29t51 -22t52 -13.5t47.5 -4.5q54 0 84.5 22.5t30.5 67.5q0 34 -16.5 58t-60.5 47q-50 25 -92.5 45.5t-80.5 53.5q-35 30 -57 69t-22 94q0 39 15.5 71t44.5 55t71.5 36t95.5 13q59 0 108.5 -9.5t95.5 -29.5v-109q0 -12 -9 -15.5t-18 4.5
q-38 32 -76.5 46.5t-83.5 14.5q-47 0 -72.5 -20.5t-25.5 -56.5q0 -26 9.5 -44.5t26.5 -32.5q33 -27 72 -47.5t75 -37.5q34 -17 61.5 -35.5t46 -42t28.5 -54.5t10 -71q0 -51 -20 -87t-55 -59t-82.5 -33.5t-101.5 -10.5q-40 0 -82.5 8.5t-76.5 22.5t-53 30.5t-13 33.5z
M175 -250q12 11 20 21t13 21.5t7 25.5t2 33v79h102v-79q0 -23 -8 -45t-21 -42t-30 -36.5t-35 -28.5z" />
    <glyph glyph-name="scommaaccent" unicode="&#x219;" horiz-adv-x="435" 
d="M47 122q16 -11 36.5 -18.5t42.5 -13t42.5 -8t35.5 -2.5q67 0 67 45q0 17 -11 29t-42 28q-35 18 -67 37t-63 45q-20 17 -36.5 40.5t-16.5 63.5q0 29 12.5 55.5t35.5 46.5t57 32t77 12q37 0 81.5 -8t78.5 -22v-97q0 -14 -8 -16.5t-21 6.5q-26 18 -58 29.5t-64 11.5
q-28 0 -42.5 -13.5t-14.5 -33.5q0 -14 7.5 -25.5t21.5 -22.5q21 -17 54.5 -34.5t58.5 -31.5q24 -13 41.5 -26t29.5 -29t17.5 -36.5t5.5 -47.5q0 -60 -50.5 -97t-140.5 -37q-34 0 -69 6t-63 16t-44.5 22.5t-12.5 24.5zM138 -250q12 11 20 21t13 21.5t7 25.5t2 33v79h102v-79
q0 -23 -8 -45t-21 -42t-30 -36.5t-35 -28.5z" />
    <glyph glyph-name="uni021A" unicode="&#x21a;" horiz-adv-x="550" 
d="M23 690h503v-106h-179v-584h-144v584h-180v106zM175 -250q12 11 20 21t13 21.5t7 25.5t2 33v79h102v-79q0 -23 -8 -45t-21 -42t-30 -36.5t-35 -28.5z" />
    <glyph glyph-name="uni021B" unicode="&#x21b;" horiz-adv-x="380" 
d="M239 656v-159h117v-97h-117v-279q0 -26 13 -33t31 -7q17 0 38.5 6.5t41.5 16.5l16 -72q2 -11 -14.5 -20.5t-42.5 -16.5q-20 -5 -41 -8t-48 -3q-58 0 -95.5 28.5t-37.5 87.5v300h-84v97h84v159h139zM125 -250q12 11 20 21t13 21.5t7 25.5t2 33v79h102v-79q0 -23 -8 -45
t-21 -42t-30 -36.5t-35 -28.5z" />
    <glyph glyph-name="uni021C" unicode="&#x21c;" horiz-adv-x="522" 
d="M486 281q0 -57 -22.5 -97.5t-61 -72.5t-89.5 -58t-107 -53l-69 -32q-30 -14 -45.5 -10.5t-23.5 16.5l-38 69q50 23 90.5 43t78.5 40q27 14 53.5 29.5t47.5 34t34 41t13 50.5q0 29 -12.5 46.5t-37.5 28.5l-129 -62q-30 -14 -45.5 -10.5t-23.5 16.5l-39 68q50 23 97 45.5
t97 50.5q15 7 29 16.5t25.5 21t18.5 24t7 25.5q0 18 -15 27t-54 9h-229v103h256q54 0 89 -13t55.5 -33t28 -43t7.5 -42q0 -29 -9 -51t-23 -39t-32.5 -29t-37.5 -22q21 -7 41.5 -18t37 -27.5t27 -39t10.5 -52.5z" />
    <glyph glyph-name="uni021D" unicode="&#x21d;" horiz-adv-x="420" 
d="M396 169q0 -34 -15.5 -59t-44 -46.5t-69.5 -42.5t-93 -46l-59 -29q-21 -11 -36 -7t-22 18l-36 70q25 10 43 18t33.5 15t30.5 14t33 16q56 28 76 47.5t20 40.5q0 19 -15 30.5t-40 16.5l-70 -36q-29 -14 -44.5 -12t-20.5 16l-33 60l130 58q37 16 58.5 28t21.5 32
q0 13 -18.5 18t-50.5 5h-149v103h186q49 0 81.5 -8.5t52 -23t28 -33t8.5 -38.5q0 -36 -22 -66t-76 -53q21 -2 41 -11t36 -23t25.5 -32.5t9.5 -39.5z" />
    <glyph glyph-name="uni021E" unicode="&#x21e;" horiz-adv-x="685" 
d="M615 690v-690h-144v305h-257v-305h-144v601q0 23 -4.5 36.5t-17.5 27.5q-8 10 -4.5 17.5t13.5 7.5h157v-279h257v279h144zM176 878h117l54 -71l54 71h117l-109 -134h-124z" />
    <glyph glyph-name="uni021F" unicode="&#x21f;" horiz-adv-x="580" 
d="M51 710h152v-247q28 24 62.5 37.5t76.5 13.5t76 -11.5t58 -32.5t37 -50t13 -64v-356h-139v337q0 74 -80 74q-27 0 -52.5 -11t-51.5 -31v-369h-139v621q0 23 -4.5 36.5t-17.5 27.5q-8 10 -4.5 17.5t13.5 7.5zM116 878h117l54 -71l54 71h117l-109 -134h-124z" />
    <glyph glyph-name="uni0220" unicode="&#x220;" horiz-adv-x="580" 
d="M46 497h148v-48q27 26 61 45.5t81 19.5q40 0 73.5 -11t58.5 -32t39 -52.5t14 -72.5v-610h-139v598q0 42 -18.5 61t-60.5 19q-29 0 -55 -11.5t-50 -32.5v-370h-139v408q0 23 -4.5 36.5t-17.5 27.5q-8 10 -4.5 17.5t13.5 7.5z" />
    <glyph glyph-name="uni0221" unicode="&#x221;" horiz-adv-x="850" 
d="M531 709v-550q0 -20 1 -31.5t3 -19.5q34 46 72 69t97 23q28 0 54.5 -6t46.5 -18.5t32.5 -33.5t12.5 -51q0 -33 -17.5 -57.5t-48 -41.5t-71 -25.5t-85.5 -8.5q-20 0 -37.5 2t-34.5 6q-11 -17 -23.5 -36t-26.5 -40l-88 53q12 18 23.5 35t22.5 33q-13 11 -22 24.5t-16 27.5
q-60 -79 -172 -79q-51 0 -93 19.5t-72.5 54.5t-47.5 83.5t-17 106.5q0 63 17.5 112t50 83.5t78 52.5t101.5 18q38 0 69 -10t52 -24v140q0 23 -4.5 36.5t-17.5 27.5q-8 10 -4.5 17.5t13.5 7.5h152zM293 417q-130 0 -130 -169q0 -45 10 -76.5t26.5 -52t38.5 -29.5t45 -9
q34 0 62 16.5t47 41.5v242q-17 14 -43.5 25t-55.5 11zM624 48q48 0 73.5 12t25.5 32q0 18 -27 18q-20 0 -35 -12t-24 -23l-21 -27h8z" />
    <glyph glyph-name="uni0222" unicode="&#x222;" horiz-adv-x="622" 
d="M282 614q-37 -8 -58.5 -32t-21.5 -57q0 -32 27.5 -62t82.5 -41q54 11 81 41t27 62q0 31 -19.5 55t-54.5 33l55 91q33 -9 62 -25.5t50 -39t33.5 -51t12.5 -63.5q0 -28 -7.5 -51t-20.5 -41.5t-29 -33t-33 -24.5q24 -13 45.5 -32t37.5 -42.5t25 -51t9 -56.5
q0 -58 -22.5 -99.5t-60 -68.5t-87.5 -39.5t-105 -12.5t-105 12.5t-87.5 39.5t-60 68.5t-22.5 99.5q0 29 9 56.5t25 51t37.5 42.5t45.5 32q-17 10 -33 24.5t-29 33t-20.5 41.5t-7.5 51q0 36 13 65.5t35.5 52.5t52.5 39t65 25zM311 72q63 0 99.5 33t36.5 87q0 21 -10 41.5
t-28.5 37.5t-44 29.5t-55.5 19.5q-29 -7 -53.5 -19.5t-42.5 -29.5t-28 -37.5t-10 -41.5q0 -54 36.5 -87t99.5 -33z" />
    <glyph glyph-name="uni0223" unicode="&#x223;" horiz-adv-x="538" 
d="M269 -27q-50 0 -94 12.5t-78 39.5t-53.5 68.5t-19.5 99.5q0 29 8.5 56.5t23 51t34 42.5t41.5 32q-30 20 -55 57t-25 93q0 35 10.5 64t29.5 51.5t44 39t54 25.5l54 -90q-25 -8 -39 -32.5t-14 -57.5q0 -32 20.5 -62t59.5 -41q39 11 59.5 41t20.5 62q0 33 -14 57.5t-39 32.5
l54 90q29 -9 54 -25.5t44 -39t29.5 -51.5t10.5 -64q0 -56 -25 -93t-55 -57q22 -13 41.5 -32t34 -42.5t23 -51t8.5 -56.5q0 -58 -19.5 -99.5t-53.5 -68.5t-78.5 -39.5t-93.5 -12.5h-2zM271 325q-22 -7 -41.5 -20.5t-34.5 -31.5t-23.5 -39t-8.5 -42q0 -54 28.5 -87t79.5 -33
q50 0 78 33t28 87q0 21 -8.5 42t-22.5 39t-33.5 31.5t-41.5 20.5z" />
    <glyph glyph-name="uni0224" unicode="&#x224;" horiz-adv-x="530" 
d="M357 -121q12 11 20 21t13 21.5t7 25.5t2 33v20h-372v74l299 513h-285v103h454v-76q0 -19 -6 -31.5t-12 -23.5l-270 -456h294v-123q0 -23 -8 -45t-21 -42t-30 -36.5t-35 -28.5z" />
    <glyph glyph-name="uni0225" unicode="&#x225;" horiz-adv-x="420" 
d="M251 -121q12 11 20 21t13 21.5t7 25.5t2 33v20h-273v53l205 347h-193v97h359v-55q0 -14 -4 -23t-9 -17l-183 -305h200v-117q0 -23 -8 -45t-21 -42t-30 -36.5t-35 -28.5z" />
    <glyph glyph-name="uni0226" unicode="&#x226;" horiz-adv-x="660" 
d="M235 578q11 29 9.5 47.5t-9.5 33.5q-17 31 17 31h132l266 -690h-145l-70 192h-214l-69 -192h-143zM258 297h139l-70 199zM263 810q0 27 17.5 44.5t44.5 17.5q28 0 45.5 -17.5t17.5 -44.5q0 -28 -17.5 -45.5t-45.5 -17.5q-27 0 -44.5 17.5t-17.5 45.5z" />
    <glyph glyph-name="uni0227" unicode="&#x227;" horiz-adv-x="545" 
d="M345 222h-89q-51 0 -73 -21.5t-22 -56.5q0 -29 16.5 -47t47.5 -18q36 0 66.5 15.5t53.5 41.5v86zM260 420q-41 0 -80.5 -15t-69.5 -35q-15 -10 -23 -5.5t-8 19.5v93q19 9 43 15.5t49.5 11.5t50.5 7.5t47 2.5q103 0 159 -40t56 -123v-351h-136v54q-29 -36 -68.5 -53
t-84.5 -17q-37 0 -68 11.5t-53 32.5t-34.5 50t-12.5 64q0 80 56 126t174 46h88v37q0 37 -21.5 53t-63.5 16zM209 620q0 27 17.5 44.5t44.5 17.5q28 0 45.5 -17.5t17.5 -44.5q0 -28 -17.5 -45.5t-45.5 -17.5q-27 0 -44.5 17.5t-17.5 45.5z" />
    <glyph glyph-name="uni0228" unicode="&#x228;" 
d="M70 0v601q0 23 -4.5 36.5t-17.5 27.5q-8 10 -4.5 17.5t13.5 7.5h424v-103h-267v-190h243v-103h-243v-191h287v-103h-160l-24 -47q34 -10 48.5 -30.5t14.5 -52.5q0 -45 -31.5 -70.5t-94.5 -25.5q-27 0 -56 7.5t-48 18.5l27 59q17 -9 32 -13.5t32 -4.5q20 0 29.5 9t9.5 22
q0 7 -3 15t-13 14.5t-27.5 11.5t-46.5 5l38 82h-158z" />
    <glyph glyph-name="uni0229" unicode="&#x229;" horiz-adv-x="530" 
d="M169 214q5 -70 39 -102.5t98 -32.5q35 0 73 7.5t75 29.5l21 -60q3 -11 -6.5 -22t-29 -20t-46.5 -16.5t-59 -10.5l-17 -34q34 -10 48.5 -30.5t14.5 -52.5q0 -45 -31.5 -70.5t-94.5 -25.5q-27 0 -56 7.5t-48 18.5l27 59q17 -9 32 -13.5t32 -4.5q20 0 29.5 9t9.5 22
q0 7 -3 15t-13 14.5t-27.5 11.5t-46.5 5l33 72q-41 7 -76 26t-61.5 50.5t-41.5 76.5t-15 104q0 49 15 97t45 86t76.5 61t109.5 23q57 0 101 -20.5t74 -56t45.5 -83.5t15.5 -103v-37h-342zM371 306q-2 22 -7.5 42.5t-17 36.5t-29 25t-42.5 9t-44 -9.5t-32.5 -25.5t-21 -36
t-8.5 -42h202z" />
    <glyph glyph-name="uni022A" unicode="&#x22a;" horiz-adv-x="780" 
d="M744 345q0 -81 -23 -148.5t-68 -115.5t-111 -74.5t-152 -26.5t-152 26.5t-111 74.5t-68 115.5t-23 148.5t23 148.5t68 115.5t111 74.5t152 26.5t152 -26.5t111 -74.5t68 -115.5t23 -148.5zM180 345q0 -127 56.5 -194.5t153.5 -67.5t153.5 67.5t56.5 194.5t-56.5 194.5
t-153.5 67.5t-153.5 -67.5t-56.5 -194.5zM236 790q0 26 16.5 42.5t42.5 16.5t43 -16.5t17 -42.5t-17 -43t-43 -17t-42.5 17t-16.5 43zM426 790q0 26 16.5 42.5t42.5 16.5t43 -16.5t17 -42.5t-17 -43t-43 -17t-42.5 17t-16.5 43zM247 971h285v-82h-285v82z" />
    <glyph glyph-name="uni022B" unicode="&#x22b;" horiz-adv-x="590" 
d="M427 249q0 79 -35.5 123.5t-96.5 44.5t-96.5 -44.5t-35.5 -123.5t35.5 -123.5t96.5 -44.5t96.5 44.5t35.5 123.5zM566 249q0 -58 -20.5 -106.5t-56.5 -84t-86 -55t-108 -19.5q-59 0 -108.5 19.5t-85.5 55t-56.5 84t-20.5 106.5t20.5 106.5t56.5 84t85.5 55t108.5 19.5
q58 0 108 -19.5t86 -55t56.5 -84t20.5 -106.5zM141 600q0 26 16.5 42.5t42.5 16.5t43 -16.5t17 -42.5t-17 -43t-43 -17t-42.5 17t-16.5 43zM331 600q0 26 16.5 42.5t42.5 16.5t43 -16.5t17 -42.5t-17 -43t-43 -17t-42.5 17t-16.5 43zM157 771h285v-82h-285v82z" />
    <glyph glyph-name="uni022C" unicode="&#x22c;" horiz-adv-x="780" 
d="M744 345q0 -81 -23 -148.5t-68 -115.5t-111 -74.5t-152 -26.5t-152 26.5t-111 74.5t-68 115.5t-23 148.5t23 148.5t68 115.5t111 74.5t152 26.5t152 -26.5t111 -74.5t68 -115.5t23 -148.5zM180 345q0 -127 56.5 -194.5t153.5 -67.5t153.5 67.5t56.5 194.5t-56.5 194.5
t-153.5 67.5t-153.5 -67.5t-56.5 -194.5zM390 764q-17 9 -28 13t-25 4q-16 0 -26 -8.5t-19 -23.5l-60 33q12 34 38 58.5t66 24.5q19 0 34 -5.5t32 -14.5l25 -12.5t23 -4.5q16 0 24.5 7t16.5 22l56 -31q-5 -15 -14 -29.5t-20.5 -26t-26 -19t-30.5 -7.5q-19 0 -34 5.5
t-32 14.5zM247 971h285v-82h-285v82z" />
    <glyph glyph-name="uni022D" unicode="&#x22d;" horiz-adv-x="590" 
d="M427 249q0 79 -35.5 123.5t-96.5 44.5t-96.5 -44.5t-35.5 -123.5t35.5 -123.5t96.5 -44.5t96.5 44.5t35.5 123.5zM566 249q0 -58 -20.5 -106.5t-56.5 -84t-86 -55t-108 -19.5q-59 0 -108.5 19.5t-85.5 55t-56.5 84t-20.5 106.5t20.5 106.5t56.5 84t85.5 55t108.5 19.5
q58 0 108 -19.5t86 -55t56.5 -84t20.5 -106.5zM295 564q-17 9 -28 13t-25 4q-16 0 -26 -8.5t-19 -23.5l-60 33q12 34 38 58.5t66 24.5q19 0 34 -5.5t32 -14.5l25 -12.5t23 -4.5q16 0 24.5 7t16.5 22l56 -31q-5 -15 -14 -29.5t-20.5 -26t-26 -19t-30.5 -7.5q-19 0 -34 5.5
t-32 14.5zM157 771h285v-82h-285v82z" />
    <glyph glyph-name="uni022E" unicode="&#x22e;" horiz-adv-x="780" 
d="M744 345q0 -81 -23 -148.5t-68 -115.5t-111 -74.5t-152 -26.5t-152 26.5t-111 74.5t-68 115.5t-23 148.5t23 148.5t68 115.5t111 74.5t152 26.5t152 -26.5t111 -74.5t68 -115.5t23 -148.5zM180 345q0 -127 56.5 -194.5t153.5 -67.5t153.5 67.5t56.5 194.5t-56.5 194.5
t-153.5 67.5t-153.5 -67.5t-56.5 -194.5zM328 810q0 27 17.5 44.5t44.5 17.5q28 0 45.5 -17.5t17.5 -44.5q0 -28 -17.5 -45.5t-45.5 -17.5q-27 0 -44.5 17.5t-17.5 45.5z" />
    <glyph glyph-name="uni022F" unicode="&#x22f;" horiz-adv-x="590" 
d="M427 249q0 79 -35.5 123.5t-96.5 44.5t-96.5 -44.5t-35.5 -123.5t35.5 -123.5t96.5 -44.5t96.5 44.5t35.5 123.5zM566 249q0 -58 -20.5 -106.5t-56.5 -84t-86 -55t-108 -19.5q-59 0 -108.5 19.5t-85.5 55t-56.5 84t-20.5 106.5t20.5 106.5t56.5 84t85.5 55t108.5 19.5
q58 0 108 -19.5t86 -55t56.5 -84t20.5 -106.5zM233 620q0 27 17.5 44.5t44.5 17.5q28 0 45.5 -17.5t17.5 -44.5q0 -28 -17.5 -45.5t-45.5 -17.5q-27 0 -44.5 17.5t-17.5 45.5z" />
    <glyph glyph-name="uni0230" unicode="&#x230;" horiz-adv-x="780" 
d="M744 345q0 -81 -23 -148.5t-68 -115.5t-111 -74.5t-152 -26.5t-152 26.5t-111 74.5t-68 115.5t-23 148.5t23 148.5t68 115.5t111 74.5t152 26.5t152 -26.5t111 -74.5t68 -115.5t23 -148.5zM180 345q0 -127 56.5 -194.5t153.5 -67.5t153.5 67.5t56.5 194.5t-56.5 194.5
t-153.5 67.5t-153.5 -67.5t-56.5 -194.5zM247 971h285v-82h-285v82zM328 800q0 27 17.5 44.5t44.5 17.5q28 0 45.5 -17.5t17.5 -44.5q0 -28 -17.5 -45.5t-45.5 -17.5q-27 0 -44.5 17.5t-17.5 45.5z" />
    <glyph glyph-name="uni0231" unicode="&#x231;" horiz-adv-x="590" 
d="M427 249q0 79 -35.5 123.5t-96.5 44.5t-96.5 -44.5t-35.5 -123.5t35.5 -123.5t96.5 -44.5t96.5 44.5t35.5 123.5zM566 249q0 -58 -20.5 -106.5t-56.5 -84t-86 -55t-108 -19.5q-59 0 -108.5 19.5t-85.5 55t-56.5 84t-20.5 106.5t20.5 106.5t56.5 84t85.5 55t108.5 19.5
q58 0 108 -19.5t86 -55t56.5 -84t20.5 -106.5zM233 600q0 27 17.5 44.5t44.5 17.5q28 0 45.5 -17.5t17.5 -44.5q0 -28 -17.5 -45.5t-45.5 -17.5q-27 0 -44.5 17.5t-17.5 45.5zM157 771h285v-82h-285v82z" />
    <glyph glyph-name="uni0232" unicode="&#x232;" horiz-adv-x="650" 
d="M328 387l160 303h155l-242 -434v-256h-146v255l-192 346q-12 23 -24.5 37.5t-23.5 24.5t-8 18.5t13 8.5h148zM188 846h285v-82h-285v82z" />
    <glyph glyph-name="uni0233" unicode="&#x233;" horiz-adv-x="595" 
d="M142 -264l92 246q-17 4 -28.5 15t-18.5 28l-131 393q-12 31 -33 52q-10 10 -7.5 18.5t12.5 8.5h142l80 -248l34 -120l36 120l80 248h140l-266 -761h-132zM163 646h285v-82h-285v82z" />
    <glyph glyph-name="uni0234" unicode="&#x234;" horiz-adv-x="465" 
d="M9 53q20 26 39.5 49t39.5 43q-3 24 -3 55v401q0 23 -4.5 36.5t-17.5 27.5q-8 10 -4.5 17.5t13.5 7.5h152v-450q43 16 89 16q33 0 60.5 -10.5t48 -29t32 -44t11.5 -55.5q0 -33 -14 -57.5t-38 -41.5t-56.5 -25.5t-68.5 -8.5q-49 0 -88 14.5t-66 48.5q-29 -32 -57 -66z
M286 74q27 0 39.5 13.5t12.5 30.5q0 21 -11 34.5t-34 13.5q-14 0 -31 -8.5t-37 -23.5q5 -30 23 -45t38 -15z" />
    <glyph glyph-name="uni0235" unicode="&#x235;" horiz-adv-x="735" 
d="M491 346v-107q43 17 92 17q33 0 60.5 -10.5t48 -29t32 -44t11.5 -55.5q0 -33 -14 -57.5t-38 -41.5t-56.5 -25.5t-68.5 -8.5q-47 0 -85 16.5t-66 50.5q-15 -17 -30 -34.5t-30 -35.5l-68 72q21 26 40.5 49.5t39.5 43.5q-7 31 -7 73v115q0 42 -16.5 61t-52.5 19
q-26 0 -49.5 -11.5t-45.5 -32.5v-370h-139v408q0 23 -4.5 36.5t-17.5 27.5q-8 10 -4.5 17.5t13.5 7.5h148v-48q25 26 56.5 45.5t75.5 19.5q37 0 69.5 -11t55.5 -32t36.5 -52.5t13.5 -72.5zM556 74q27 0 39.5 13.5t12.5 30.5q0 21 -11 34.5t-34 13.5q-15 0 -33 -9.5
t-39 -26.5q8 -28 26.5 -42t38.5 -14z" />
    <glyph glyph-name="uni0236" unicode="&#x236;" horiz-adv-x="485" 
d="M239 656v-159h117v-97h-117v-161q43 17 92 17q33 0 61 -10.5t48.5 -29t32.5 -44t12 -55.5q0 -33 -14.5 -57.5t-39 -41.5t-57 -25.5t-68.5 -8.5q-46 0 -84.5 17t-65.5 50q-15 -17 -30.5 -34.5t-30.5 -35.5l-68 72q21 26 41.5 50t40.5 45q-9 31 -9 71v181h-84v97h84v159
h139zM304 74q27 0 40.5 14t13.5 31q0 21 -12 34t-35 13q-15 0 -33.5 -10t-40.5 -27q8 -30 27.5 -42.5t39.5 -12.5z" />
    <glyph glyph-name="uni0237" unicode="&#x237;" horiz-adv-x="285" 
d="M76 -4v414q0 21 -5 34.5t-17 27.5q-8 10 -4.5 17.5t13.5 7.5h152v-501q0 -59 -20 -111t-48 -88t-58 -51t-49 1l-46 39q17 16 32 35t26 43.5t17.5 57t6.5 74.5z" />
    <glyph glyph-name="uni0238" unicode="&#x238;" horiz-adv-x="923" 
d="M293 417q-130 0 -130 -169q0 -45 10 -76.5t26.5 -52t38.5 -29.5t45 -9q34 0 62 16.5t47 41.5v242q-17 14 -43.5 25t-55.5 11zM531 710v-230q21 14 52 24t69 10q56 0 101.5 -18t78 -52.5t50 -83.5t17.5 -112q0 -58 -17 -106.5t-47.5 -83.5t-72.5 -54.5t-93 -19.5
q-40 0 -76 16.5t-62 50.5v-51h-136v51q-26 -34 -63.5 -50.5t-77.5 -16.5q-51 0 -93 19.5t-72.5 54.5t-47.5 83.5t-17 106.5q0 63 17.5 112t50 83.5t78 52.5t101.5 18q38 0 69 -10t52 -24v141q0 23 -4.5 36.5t-17.5 27.5q-8 10 -4.5 17.5t13.5 7.5h152zM531 139
q19 -25 47 -41.5t62 -16.5q23 0 45 9t38.5 29.5t26.5 52t10 76.5q0 169 -130 169q-29 0 -55.5 -11t-43.5 -25v-242z" />
    <glyph glyph-name="uni0239" unicode="&#x239;" horiz-adv-x="923" 
d="M293 81q29 0 55.5 11t43.5 25v242q-19 25 -47 41.5t-62 16.5q-23 0 -45 -9t-38.5 -29.5t-26.5 -52t-10 -76.5q0 -169 130 -169zM392 18q-21 -14 -52 -24t-69 -10q-56 0 -101.5 18t-78 52.5t-50 83.5t-17.5 112q0 58 17 106.5t47.5 83.5t72.5 54.5t93 19.5
q40 0 77.5 -16.5t63.5 -50.5v50h136v-50q26 34 62 50.5t76 16.5q51 0 93 -19.5t72.5 -54.5t47.5 -83.5t17 -106.5q0 -63 -17.5 -112t-50 -83.5t-78 -52.5t-101.5 -18q-38 0 -69 10t-52 24v-265h-139v265zM531 117q17 -14 43.5 -25t55.5 -11q130 0 130 169q0 45 -10 76.5
t-26.5 52t-38.5 29.5t-45 9q-34 0 -62 -16.5t-47 -41.5v-242z" />
    <glyph glyph-name="uni023A" unicode="&#x23a;" horiz-adv-x="660" 
d="M235 578q11 29 9.5 47.5t-9.5 33.5q-17 31 17 31h132l22 -59l47 130h74l-82 -230l205 -531h-145l-70 192h-111l-99 -277h-74l99 277h-29l-69 -192h-143zM258 297h29l55 154l-15 45zM397 297l-18 50l-18 -50h36z" />
    <glyph glyph-name="uni023B" unicode="&#x23b;" horiz-adv-x="650" 
d="M296 -85h-76l23 85q-102 36 -154.5 126t-52.5 220q0 82 22 149t64 115t103.5 74t141.5 26q19 0 36.5 -1t34.5 -3l15 55h76l-19 -68q43 -12 80 -30v-109q0 -14 -8.5 -17t-19.5 5q-39 29 -81 46l-138 -502q19 -3 40 -3q49 0 95.5 14.5t97.5 52.5l33 -68q5 -11 -9.5 -28
t-45 -33.5t-76.5 -28.5t-104 -12q-16 0 -30.5 1t-28.5 3zM378 607q-50 0 -87 -19t-61 -53.5t-36 -82.5t-12 -106q0 -85 23.5 -144t68.5 -89l136 492q-8 1 -16 1.5t-16 0.5z" />
    <glyph glyph-name="uni023C" unicode="&#x23c;" horiz-adv-x="495" 
d="M223 -85h-75l28 93q-71 31 -109 94.5t-38 147.5q0 58 19.5 106.5t54.5 83.5t84.5 54.5t109.5 19.5h15t15 -1l24 78h75l-28 -92q14 -5 27 -10.5t26 -11.5v-88q0 -14 -7.5 -16t-18.5 5q-29 18 -55 27l-97 -322q7 -2 14 -2h15q38 0 72.5 9t67.5 31l28 -68q4 -10 -9.5 -22
t-38 -22.5t-57 -17.5t-66.5 -7q-14 0 -27.5 1t-26.5 3zM168 250q0 -85 41 -131l90 298q-33 0 -57.5 -13.5t-41 -36t-24.5 -53t-8 -64.5z" />
    <glyph glyph-name="uni023D" unicode="&#x23d;" horiz-adv-x="540" 
d="M0 381h100v220q0 23 -4.5 36.5t-17.5 27.5q-8 10 -4.5 17.5t13.5 7.5h157v-309h111v-64h-111v-211h272v-106h-416v317h-100v64z" />
    <glyph glyph-name="uni023E" unicode="&#x23e;" horiz-adv-x="550" 
d="M23 690h417l34 71h74l-34 -71h12v-106h-62l-117 -249v-335h-144v74l-78 -159h-74l152 311v358h-180v106zM347 492l43 92h-43v-92z" />
    <glyph glyph-name="uni023F" unicode="&#x23f;" horiz-adv-x="435" 
d="M47 122q16 -11 36.5 -18.5t42.5 -13t42.5 -8t35.5 -2.5q67 0 67 45q0 17 -11 29t-42 28q-35 18 -67 37t-63 45q-20 17 -36.5 40.5t-16.5 63.5q0 29 12.5 55.5t35.5 46.5t57 32t77 12q37 0 81.5 -8t78.5 -22v-97q0 -14 -8 -16.5t-21 6.5q-26 18 -58 29.5t-64 11.5
q-28 0 -42.5 -13.5t-14.5 -33.5q0 -14 7.5 -25.5t21.5 -22.5q21 -17 54.5 -34.5t58.5 -31.5q24 -13 41.5 -26t29.5 -29t17.5 -36.5t5.5 -47.5q0 -60 -50.5 -97t-140.5 -37q-24 0 -46 3l43 -93q11 -24 26.5 -37.5t36.5 -13.5q20 0 34 11t34 32l61 -63q-31 -35 -62.5 -52.5
t-69.5 -17.5q-57 0 -94 22t-60 72l-87 188q-8 9 -5 18z" />
    <glyph glyph-name="uni0240" unicode="&#x240;" horiz-adv-x="420" 
d="M20 0v52l205 348h-193v97h359v-55q0 -14 -4 -23t-9 -17l-200 -329q17 -1 26 -8.5t14 -15.5l88 -156q15 -27 28.5 -38.5t30.5 -11.5q20 0 32.5 10.5t26.5 28.5l58 -65q-28 -31 -56 -47.5t-73 -16.5q-43 0 -76.5 18t-57.5 60l-81 142q-8 14 -17.5 20.5t-25.5 6.5h-75z" />
    <glyph glyph-name="uni0241" unicode="&#x241;" horiz-adv-x="499" 
d="M118 0v299q36 -3 72 -3q66 0 100 41.5t34 117.5q0 70 -33.5 114t-99.5 44q-35 0 -64 -9.5t-60 -29.5q-11 -7 -18.5 -5t-7.5 16v88q35 17 71.5 27t82.5 10q56 0 105 -18t85 -51.5t57 -80.5t21 -105q0 -98 -54.5 -163t-146.5 -86v-206h-144z" />
    <glyph glyph-name="uni0242" unicode="&#x242;" horiz-adv-x="430" 
d="M121 0v259q31 -3 62 -3q84 0 84 78q0 36 -21.5 59.5t-66.5 23.5q-26 0 -49.5 -10.5t-49.5 -28.5q-11 -8 -18.5 -5.5t-7.5 16.5v88q28 17 67 27t76 10q43 0 81.5 -10.5t66.5 -32t44.5 -55.5t16.5 -82q0 -83 -41 -121.5t-110 -46.5v-166h-134z" />
    <glyph glyph-name="uni0243" unicode="&#x243;" horiz-adv-x="635" 
d="M0 236h100v365q0 23 -4.5 36.5t-17.5 27.5q-8 10 -4.5 17.5t13.5 7.5h243q54 0 98 -12t75 -34.5t47.5 -54.5t16.5 -72q0 -102 -78 -148q54 -20 84.5 -61.5t30.5 -110.5q0 -49 -19 -86t-53.5 -61.5t-83 -37t-107.5 -12.5h-241v172h-100v64zM456 205q0 56 -30.5 81
t-93.5 25h-88v-75h121v-64h-121v-74h89q63 0 93 25.5t30 81.5zM244 409h76q51 0 77 20.5t26 70.5q0 51 -26.5 71.5t-78.5 20.5h-74v-183z" />
    <glyph glyph-name="uni0244" unicode="&#x244;" horiz-adv-x="750" 
d="M0 463h83v138q0 23 -4.5 36.5t-17.5 27.5q-8 10 -4.5 17.5t13.5 7.5h157v-227h296v227h144v-227h83v-67h-83v-160q0 -65 -22 -113.5t-61 -80t-92.5 -47t-116.5 -15.5t-116.5 15.5t-92.5 47t-61 80t-22 113.5v160h-83v67zM375 86q76 0 112 43t36 119v148h-296v-148
q0 -76 35.5 -119t112.5 -43z" />
    <glyph glyph-name="uni0245" unicode="&#x245;" horiz-adv-x="660" 
d="M235 578q11 29 9.5 47.5t-9.5 33.5q-17 31 17 31h132l266 -690h-145l-97 268l-81 223l-83 -235l-92 -256h-143z" />
    <glyph glyph-name="uni0246" unicode="&#x246;" 
d="M70 0v601q0 23 -4.5 36.5t-17.5 27.5q-8 10 -4.5 17.5t13.5 7.5h328l19 71h74l-19 -71h22v-103h-49l-50 -190h75v-103h-102l-51 -191h197v-103h-224l-22 -85h-74l22 85h-133zM214 397h94l50 190h-144v-190zM214 103h16l51 191h-67v-191z" />
    <glyph glyph-name="uni0247" unicode="&#x247;" 
d="M175 -85h-70l38 103q-51 29 -82.5 85t-31.5 144q0 49 15 97t45 86t76.5 61t109.5 23q13 0 25.5 -1.5t24.5 -3.5l30 82h70l-38 -103q60 -32 92 -95t32 -142v-37h-226l-45 -124q25 -11 66 -11q35 0 73 7.5t75 29.5l21 -60q4 -13 -10 -25.5t-40.5 -23t-63 -17t-76.5 -6.5
q-21 0 -41.5 2.5t-39.5 7.5zM275 419q-25 0 -44 -9.5t-32.5 -25.5t-21 -36t-8.5 -42h80l42 112q-4 1 -8 1h-8zM371 306q-2 22 -7 41.5t-16 35.5l-29 -77h52zM169 214q3 -46 18 -76l28 76h-46z" />
    <glyph glyph-name="uni0248" unicode="&#x248;" horiz-adv-x="445" 
d="M40 409h168v178h-153v103h297v-281h83v-67h-83v-64q0 -75 -22 -132.5t-61.5 -96.5t-94 -59t-118.5 -20q-25 0 -31 20l-21 73q100 8 152 51.5t52 135.5v92h-168v67z" />
    <glyph glyph-name="uni0249" unicode="&#x249;" horiz-adv-x="385" 
d="M126 -4v291h-126v67h126v56q0 21 -5 34.5t-17 27.5q-8 10 -4.5 17.5t13.5 7.5h152v-143h120v-67h-120v-291q0 -59 -20 -111t-48 -88t-58 -51t-49 1l-46 39q17 16 32 35t26 43.5t17.5 57t6.5 74.5zM104 655q0 36 23.5 60t60.5 24t61 -24t24 -60t-24 -60.5t-61 -24.5
t-60.5 24.5t-23.5 60.5z" />
    <glyph glyph-name="uni024A" unicode="&#x24a;" horiz-adv-x="830" 
d="M545 690h139v-844q0 -26 13 -33t31 -7q17 0 38.5 6.5t41.5 16.5l16 -72q2 -11 -14.5 -20.5t-42.5 -16.5q-20 -5 -41 -8t-48 -3q-58 0 -95.5 28.5t-37.5 87.5v201q-18 -11 -40 -19.5t-45 -14.5t-46 -9t-43 -3q-81 0 -144.5 25t-107 72.5t-66 115t-22.5 153.5
q0 84 22.5 151.5t66 115t107.5 72.5t147 25q51 0 93.5 -19t77.5 -51v50zM385 608q-54 0 -93.5 -18t-65 -52t-37.5 -82.5t-12 -109.5q0 -133 54.5 -198.5t148.5 -65.5q37 0 81.5 14.5t83.5 38.5v385q-26 36 -68 62t-92 26z" />
    <glyph glyph-name="uni024B" unicode="&#x24b;" horiz-adv-x="676" 
d="M392 18q-21 -14 -52 -24t-69 -10q-56 0 -101.5 18t-78 52.5t-50 83.5t-17.5 112q0 58 17 106.5t47.5 83.5t72.5 54.5t93 19.5q40 0 77.5 -16.5t63.5 -50.5v50h136v-651q0 -26 13 -33t31 -7q17 0 37.5 6.5t40.5 16.5l16 -72q2 -11 -10.5 -19t-30.5 -13q-52 -16 -103 -16
q-58 0 -95.5 28.5t-37.5 87.5v193zM293 81q29 0 55.5 11t43.5 25v242q-19 25 -47 41.5t-62 16.5q-23 0 -45 -9t-38.5 -29.5t-26.5 -52t-10 -76.5q0 -169 130 -169z" />
    <glyph glyph-name="uni024C" unicode="&#x24c;" horiz-adv-x="650" 
d="M0 387h120v214q0 23 -4.5 36.5t-17.5 27.5q-8 10 -4.5 17.5t13.5 7.5h246q63 0 108 -15.5t73.5 -43t42 -64.5t13.5 -80q0 -75 -31.5 -122t-89.5 -64l194 -301h-151l-176 278q-7 11 -22 11h-50v-289h-144v289h-120v98zM264 387h77q106 0 106 100t-106 100h-77v-200z" />
    <glyph glyph-name="uni024D" unicode="&#x24d;" horiz-adv-x="420" 
d="M0 274h99v136q0 21 -5 34.5t-17 27.5q-8 10 -4.5 17.5t13.5 7.5h149v-79q17 38 48.5 61t78.5 23q11 0 23 -1.5t20 -3.5v-99q0 -14 -6 -15.5t-16 1.5q-13 4 -30 7.5t-37 3.5q-26 0 -45.5 -12t-32.5 -26v-83h107v-67h-107v-207h-139v207h-99v67z" />
    <glyph glyph-name="uni024E" unicode="&#x24e;" horiz-adv-x="650" 
d="M0 578h76l-13 23q-12 23 -24.5 37.5t-23.5 24.5t-8 18.5t13 8.5h148l59 -112h202l59 112h155l-63 -112h70v-67h-107l-142 -255v-256h-146v255l-142 256h-113v67zM328 387l65 124h-131z" />
    <glyph glyph-name="uni024F" unicode="&#x24f;" horiz-adv-x="595" 
d="M142 -264l92 246q-17 4 -28.5 15t-18.5 28l-90 271h-97v67h74l-18 55q-12 31 -33 52q-10 10 -7.5 18.5t12.5 8.5h142l43 -134h143l44 134h140l-47 -134h102v-67h-126l-195 -560h-132zM250 249l34 -120l36 120l15 47h-101z" />
    <glyph glyph-name="ogonek" unicode="&#x2db;" horiz-adv-x="300" 
d="M194 1q-29 -23 -44.5 -51t-15.5 -47q0 -17 12 -23.5t32 -6.5q12 0 25 4t23 7l23 -67q-26 -14 -47.5 -19.5t-53.5 -5.5q-52 0 -83 24.5t-31 65.5q0 30 13.5 61.5t44.5 57.5h102z" />
    <glyph glyph-name="gravecomb" unicode="&#x300;" horiz-adv-x="300" 
d="M256 744h-88l-129 134h140z" />
    <glyph glyph-name="acutecomb" unicode="&#x301;" horiz-adv-x="300" 
d="M121 878h140l-129 -134h-88z" />
    <glyph glyph-name="uni0302" unicode="&#x302;" horiz-adv-x="500" 
d="M188 878h124l109 -134h-117l-54 71l-54 -71h-117z" />
    <glyph glyph-name="tildecomb" unicode="&#x303;" horiz-adv-x="500" 
d="M250 764q-17 9 -28 13t-25 4q-16 0 -26 -8.5t-19 -23.5l-60 33q12 34 38 58.5t66 24.5q19 0 34 -5.5t32 -14.5l25 -12.5t23 -4.5q16 0 24.5 7t16.5 22l56 -31q-5 -15 -14 -29.5t-20.5 -26t-26 -19t-30.5 -7.5q-19 0 -34 5.5t-32 14.5z" />
    <glyph glyph-name="uni0304" unicode="&#x304;" horiz-adv-x="460" 
d="M87 846h285v-82h-285v82z" />
    <glyph glyph-name="uni0306" unicode="&#x306;" horiz-adv-x="500" 
d="M250 743q-30 0 -56.5 8.5t-47.5 24.5t-34 39t-16 52h104q5 -26 17.5 -41t32.5 -15q18 -1 31.5 14.5t18.5 41.5h104q-3 -29 -16 -52t-34 -39t-47.5 -24.5t-56.5 -8.5z" />
    <glyph glyph-name="uni0307" unicode="&#x307;" horiz-adv-x="300" 
d="M87 810q0 27 17.5 44.5t44.5 17.5q28 0 45.5 -17.5t17.5 -44.5q0 -28 -17.5 -45.5t-45.5 -17.5q-27 0 -44.5 17.5t-17.5 45.5z" />
    <glyph glyph-name="uni0308" unicode="&#x308;" horiz-adv-x="500" 
d="M95 810q0 26 16.5 42.5t42.5 16.5t43 -16.5t17 -42.5t-17 -43t-43 -17t-42.5 17t-16.5 43zM285 810q0 26 16.5 42.5t42.5 16.5t43 -16.5t17 -42.5t-17 -43t-43 -17t-42.5 17t-16.5 43z" />
    <glyph glyph-name="hookabovecomb" unicode="&#x309;" horiz-adv-x="360" 
d="M179 827q0 17 -12.5 24t-36.5 7q-14 0 -23.5 -2t-24.5 -4v64q30 8 55 8q64 0 98 -25t34 -70q0 -34 -23.5 -53t-56.5 -26v-31h-89v72q40 0 59.5 10t19.5 26z" />
    <glyph glyph-name="uni030A" unicode="&#x30a;" horiz-adv-x="380" 
d="M225 815q0 16 -9.5 26t-26.5 10t-26.5 -10t-9.5 -26t9.5 -26t26.5 -10t26.5 10t9.5 26zM293 815q0 -43 -30.5 -69.5t-73.5 -26.5t-73.5 26.5t-30.5 69.5t30.5 69.5t73.5 26.5t73.5 -26.5t30.5 -69.5z" />
    <glyph glyph-name="uni030B" unicode="&#x30b;" horiz-adv-x="400" 
d="M256 878h116l-114 -134h-69zM100 878h116l-114 -134h-69z" />
    <glyph glyph-name="uni030C" unicode="&#x30c;" horiz-adv-x="500" 
d="M312 744h-124l-109 134h117l54 -71l54 71h117z" />
    <glyph glyph-name="uni030F" unicode="&#x30f;" horiz-adv-x="400" 
d="M211 744h-69l-114 134h116zM367 744h-69l-114 134h116z" />
    <glyph glyph-name="uni0311" unicode="&#x311;" horiz-adv-x="500" 
d="M250 871q30 0 56.5 -8.5t47.5 -24.5t34 -39t16 -52h-104q-5 26 -17.5 41t-32.5 15q-18 1 -31.5 -14.5t-18.5 -41.5h-104q3 29 16 52t34 39t47.5 24.5t56.5 8.5z" />
    <glyph glyph-name="uni0315" unicode="&#x315;" horiz-adv-x="300" 
d="M27 510q12 11 20 21t13 21.5t7 25.5t2 33v79h102v-79q0 -23 -8 -45t-21 -42t-30 -36.5t-35 -28.5z" />
    <glyph glyph-name="uni0370" unicode="&#x370;" horiz-adv-x="430" 
d="M70 0v601q0 23 -4.5 36.5t-17.5 27.5q-8 10 -4.5 17.5t13.5 7.5h157v-297h188v-102h-188v-291h-144z" />
    <glyph glyph-name="uni0371" unicode="&#x371;" horiz-adv-x="400" 
d="M209 497v-194h163v-102h-163v-201h-139v410q0 21 -5 34.5t-17 27.5q-8 10 -4.5 17.5t13.5 7.5h152z" />
    <glyph glyph-name="uni0372" unicode="&#x372;" horiz-adv-x="630" 
d="M23 690h583v-284h-116v178h-103v-584h-144v584h-104v-178h-116v284z" />
    <glyph glyph-name="uni0373" unicode="&#x373;" horiz-adv-x="550" 
d="M23 690h503v-214h-116v108h-63v-584h-144v584h-64v-108h-116v214z" />
    <glyph glyph-name="uni0374" unicode="&#x374;" horiz-adv-x="300" 
d="M106 684h125l-89 -185h-73z" />
    <glyph glyph-name="uni0375" unicode="&#x375;" horiz-adv-x="300" 
d="M195 -1h-125l89 185h73z" />
    <glyph glyph-name="uni0376" unicode="&#x376;" horiz-adv-x="695" 
d="M214 690v-345l-9 -149l70 129l210 365h140v-690h-144v345l8 153l-64 -123l-213 -375h-142v601q0 23 -4.5 36.5t-17.5 27.5q-8 10 -4.5 17.5t13.5 7.5h157z" />
    <glyph glyph-name="uni0377" unicode="&#x377;" horiz-adv-x="594" 
d="M187 497v-249l-6 -97l45 83l170 263h139v-497h-127v258l6 88l-37 -74l-171 -272h-147v408q0 23 -4.5 36.5t-17.5 27.5q-8 10 -4.5 17.5t13.5 7.5h141z" />
    <glyph glyph-name="uni037A" unicode="&#x37a;" horiz-adv-x="300" 
d="M289 -10q-8 -22 -19 -42t-27 -35.5t-36.5 -24.5t-46.5 -9q-41 0 -68.5 11.5t-44 31t-23 46t-6.5 56.5v66h100v-67q0 -29 9 -46.5t35 -17.5q17 0 33.5 15.5t28.5 45.5z" />
    <glyph glyph-name="uni037B" unicode="&#x37b;" horiz-adv-x="495" 
d="M194 417q-35 0 -64 -9.5t-60 -29.5q-11 -7 -18.5 -5t-7.5 16v88q35 17 71.5 27t82.5 10q60 0 109.5 -19.5t84.5 -54.5t54.5 -83.5t19.5 -106.5q0 -57 -18.5 -106t-53 -84.5t-84.5 -55.5t-114 -20q-34 0 -66.5 7t-57 17.5t-38 22.5t-9.5 22l28 68q33 -22 67.5 -31t72.5 -9
q66 0 100 46.5t34 122.5q0 35 -8.5 65.5t-25 53t-41.5 35.5t-58 13z" />
    <glyph glyph-name="uni037C" unicode="&#x37c;" horiz-adv-x="495" 
d="M301 417q-33 0 -58 -13t-41.5 -35.5t-25 -53t-8.5 -65.5q0 -76 34 -122.5t100 -46.5q38 0 72.5 9t67.5 31l28 -68q4 -10 -9.5 -22t-38 -22.5t-57 -17.5t-66.5 -7q-64 0 -114 20t-84.5 55.5t-53 84.5t-18.5 106q0 58 19.5 106.5t54.5 83.5t84.5 54.5t109.5 19.5
q46 0 82.5 -10t71.5 -27v-88q0 -14 -7.5 -16t-18.5 5q-31 20 -60 29.5t-64 9.5zM263 250q0 27 17.5 44.5t44.5 17.5q28 0 45.5 -17.5t17.5 -44.5q0 -28 -17.5 -45.5t-45.5 -17.5q-27 0 -44.5 17.5t-17.5 45.5z" />
    </font>
</defs>
</svg>
