<svg width="126" height="50" viewBox="0 0 126 50" fill="none" xmlns="http://www.w3.org/2000/svg">
<path d="M62.5474 19.5H73.5474V30.5H62.5474V19.5Z" fill="#49C5B6"/>
<path d="M25.8861 0.000183105C11.4311 0.000183105 -9.91821e-05 10.8414 -9.91821e-05 25.2227C-9.91821e-05 39.6039 11.4311 50.0002 25.8861 50.0002C35.3999 50.0002 43.0699 45.7989 47.4211 38.3502L39.8249 33.0402C36.5799 38.2764 32.0811 41.2264 25.8861 41.2264C16.8886 41.2264 10.2511 34.6627 10.2511 25.2964C10.2511 15.8564 16.8886 9.21893 25.8861 9.21893C32.0811 9.21893 36.5799 12.1689 39.8249 17.4052L47.4211 12.0952C43.0699 4.64643 35.3999 0.000183105 25.8861 0.000183105Z" fill="black"/>
<path d="M82.4211 -1.13825e-05V50H98.0461C113.946 50 125.621 39.225 125.621 24.6C125.621 9.82498 114.596 -1.13825e-05 98.6961 -1.13825e-05H82.4211ZM98.6211 9.14998C108.596 9.14998 115.271 14.85 115.271 24.6C115.271 34.125 108.596 40.35 98.6211 40.35H92.5461V9.14998H98.6211Z" fill="black"/>
<path d="M82.4211 0.0602264L52.4211 0.0602112V50.0002H62.4712L62.5461 30.7352V21.5852V9.21021L82.4211 9.21018V0.0602264Z" fill="black"/>
</svg>
