<svg id="Layer_1" enable-background="new 0 0 512 512" height="512" viewBox="0 0 512 512" width="512" xmlns="http://www.w3.org/2000/svg"><g><g><path d="m296 124c-4.418 0-8-3.582-8-8v-48c0-22.056-17.944-40-40-40s-40 17.944-40 40v48c0 4.418-3.582 8-8 8s-8-3.582-8-8v-48c0-30.878 25.122-56 56-56s56 25.122 56 56v48c0 4.418-3.582 8-8 8z" fill="#a5c3dc"/></g><g><g><path d="m456 396h-400v-216c0-17.673 14.327-32 32-32h336c17.673 0 32 14.327 32 32z" fill="#463c4b"/></g><g><path d="m424 396h-368v-216c0-17.673 14.327-32 32-32h304c17.673 0 32 14.327 32 32z" fill="#555a6e"/></g><g><path d="m88 444h336c17.673 0 32-14.327 32-32v-16h-400v16c0 17.673 14.327 32 32 32z" fill="#a5c3dc"/></g><g><path d="m392 444h-304c-17.673 0-32-14.327-32-32v-16h368v16c0 17.673-14.327 32-32 32z" fill="#d7e6f0"/></g><g><path d="m216 444h72v32h-72z" fill="#a5c3dc"/></g><g><path d="m216 460h48v16h-48z" fill="#d7e6f0"/></g><g><path d="m328 500h-160v-8c0-8.837 7.163-16 16-16h128c8.837 0 16 7.163 16 16z" fill="#d7e6f0"/></g><g><path d="m328 500h-48v-8c0-8.837 7.163-16 16-16h16c8.837 0 16 7.163 16 16z" fill="#a5c3dc"/></g></g><g><path d="m368 364h-208c-8.837 0-16-7.163-16-16v-200h240v200c0 8.837-7.163 16-16 16z" fill="#463c4b"/></g><g><path d="m344 340h-208c-8.837 0-16-7.163-16-16v-224c0-8.837 7.163-16 16-16h208c8.837 0 16 7.163 16 16v224c0 8.837-7.163 16-16 16z" fill="#289bc3"/></g><g><path d="m296 340h-160c-8.837 0-16-7.163-16-16v-224c0-8.837 7.163-16 16-16h160c8.837 0 16 7.163 16 16v224c0 8.837-7.163 16-16 16z" fill="#00d2d2"/></g><g><circle cx="168" cy="116" fill="#289bc3" r="18.667"/></g><g><circle cx="264" cy="116" fill="#289bc3" r="18.667"/></g><g><path d="m264 124c-4.418 0-8-3.582-8-8v-48c0-22.056-17.944-40-40-40s-40 17.944-40 40v48c0 4.418-3.582 8-8 8s-8-3.582-8-8v-48c0-30.878 25.122-56 56-56s56 25.122 56 56v48c0 4.418-3.582 8-8 8z" fill="#d7e6f0"/></g><g><g><path d="m426.794 229.926-39.513-46.099c-2.082-2.429-5.122-3.827-8.321-3.827h-32c-6.053 0-10.959 4.907-10.959 10.959v10.374h-56c-8.837 0-16 7.163-16 16v53.333c0 8.837 7.163 16 16 16h56v10.374c0 6.053 4.907 10.959 10.959 10.959h32c3.2 0 6.239-1.398 8.321-3.827l39.513-46.099c3.36-3.92 5.206-8.912 5.206-14.074 0-5.161-1.847-10.153-5.206-14.073z" fill="#e64178"/></g><g><path d="m394.794 229.926-39.513-46.099c-2.082-2.429-5.122-3.827-8.321-3.827-6.053 0-10.959 4.907-10.959 10.959v10.374h-56c-8.837 0-16 7.163-16 16v53.333c0 8.837 7.163 16 16 16h56v10.374c0 6.053 4.907 10.959 10.959 10.959 3.199 0 6.239-1.398 8.321-3.827l39.513-46.099c3.36-3.92 5.206-8.912 5.206-14.074 0-5.161-1.847-10.153-5.206-14.073z" fill="#ff6e91"/></g></g></g></svg>