<svg id="Layer_1" enable-background="new 0 0 512 512" height="512" viewBox="0 0 512 512" width="512" xmlns="http://www.w3.org/2000/svg"><g><path d="m467.466 390.77c21.307-36.324 33.536-78.617 33.536-123.772 0-135.311-109.691-245.002-245.002-245.002s-245.002 109.691-245.002 245.002c0 45.155 12.229 87.448 33.536 123.772z" fill="#2a428c"/><path d="m376.427 0h-206.593c-1.156 0-2.309.033-3.457.092-7.495 3.217-25.449 14.564-25.449 49.433v27.076c0 11.24-9.144 20.385-20.385 20.385h-30.298c-32.473 0-43.071 17.338-46.182 25.066-.073 1.276-.121 2.555-.121 3.839v263.879c17.973 30.977 42.541 57.648 71.78 78.104v-271.807c0-17.269 7.003-34.176 19.214-46.386l58.687-58.687c12.39-12.39 28.863-19.214 46.387-19.214h157.871v-50.326c0-11.848-9.605-21.454-21.454-21.454z" fill="#d3dcfb"/><path d="m169.834 0c-1.156 0-2.309.033-3.457.092-7.495 3.217-25.449 14.564-25.449 49.433v27.076c0 11.24-9.144 20.385-20.385 20.385h-30.298c-32.473 0-43.071 17.338-46.182 25.066-.073 1.276-.121 2.555-.121 3.839v263.879c17.973 30.977 42.541 57.648 71.78 78.104v-271.807c0-17.269 7.003-34.176 19.214-46.386l56.081-56.081c-4.709-11.552-3.629-26.6-3.629-26.6s0-27 0-45.005c0-18.004 22.998-21.995 23-21.995h-40.554z" fill="#bec8f7"/><path d="m122.314 19.684c12.603-12.603 29.696-19.684 47.52-19.684 0 0-27.837 6.042-27.837 49.524v27.076c0 11.848-9.605 21.453-21.454 21.453h-30.297c-41.163 0-46.303 27.837-46.303 27.837 0-17.824 7.081-34.917 19.683-47.52z" fill="#d3dcfb"/><path d="m326.864 36.896c-2.367 0-4.287 1.919-4.287 4.287v26.311c0 2.367 1.919 4.286 4.287 4.286h71.017v-34.884z" fill="#73c3f9"/><path d="m357.665 54.338c0-9.633 7.809-17.442 17.442-17.442h-48.244c-2.367 0-4.287 1.919-4.287 4.287v26.311c0 2.367 1.919 4.286 4.287 4.286h48.244c-9.633 0-17.442-7.809-17.442-17.442z" fill="#4fabf7"/><path d="m468.057 91.63c0-11.848-9.605-21.454-21.454-21.454h-206.593c-1.156 0-2.309.033-3.457.092-7.495 3.217-25.449 14.563-25.449 49.433v27.076c0 11.24-9.144 20.385-20.385 20.385h-30.298c-32.473 0-43.071 17.338-46.182 25.066-.073 1.276-.121 2.555-.121 3.839v270.693c40.037 28.487 89.003 45.24 141.882 45.24 90.571 0 169.656-49.151 212.057-122.23z" fill="#e8f4fc"/><path d="m253.237 107.072c0-27.762 23.651-36.896 23.651-36.896h-36.878c-1.156 0-2.309.033-3.457.092-7.495 3.217-25.449 14.563-25.449 49.432v27.076c0 11.241-9.144 20.385-20.385 20.385h-30.298c-32.473 0-43.071 17.338-46.182 25.066-.073 1.276-.121 2.555-.121 3.839v270.694c40.037 28.487 89.003 45.24 141.882 45.24 4.452 0 8.876-.123 13.269-.358-13.26-10.195-13.576-25.476-13.576-25.476s0-20 0-39 23.153-23 23.153-23v-116.288c-27.708-4.956-25.609-32.168-25.609-32.168s0-140.877 0-168.638z" fill="#d3dcfb"/><path d="m171.649 332.453v68.823c0 14.44 11.706 26.147 26.147 26.147h186.585c14.441 0 26.147-11.707 26.147-26.147v-68.823c0-14.441-11.706-26.147-26.147-26.147h-186.585c-14.441 0-26.147 11.706-26.147 26.147z" fill="#ff4155"/><path d="m261.649 401.276v-68.823c0-14.441 11.706-26.147 26.147-26.147h-90c-14.441 0-26.147 11.706-26.147 26.147v68.823c0 14.44 11.706 26.147 26.147 26.147h90c-14.441 0-26.147-11.707-26.147-26.147z" fill="#e80054"/><path d="m291.932 337.057c-.028-.074-.057-.147-.087-.22-1.437-3.493-4.803-5.747-8.579-5.747-.003 0-.007 0-.01 0-3.779.004-7.146 2.267-8.577 5.765-.025.06-.048.121-.071.182l-20.844 54.728c-1.576 4.139.501 8.772 4.639 10.348 4.141 1.578 8.772-.501 10.348-4.639l3.224-8.466h22.42l3.186 8.443c1.574 4.171 6.217 6.226 10.333 4.671 4.144-1.564 6.235-6.191 4.671-10.334zm-13.848 35.913 5.154-13.531 5.106 13.531z" fill="#e8f4fc"/><path d="m359.466 399.233c2.548 3.622 7.551 4.492 11.172 1.945 3.622-2.548 4.493-7.55 1.945-11.172l-17.664-25.11 14.913-21.169c2.551-3.62 1.683-8.623-1.937-11.174-3.621-2.55-8.623-1.683-11.174 1.937l-11.604 16.471-11.585-16.467c-2.549-3.622-7.55-4.492-11.172-1.945-3.622 2.548-4.493 7.55-1.945 11.172l14.89 21.167-17.691 25.112c-2.55 3.621-1.683 8.623 1.937 11.173 3.644 2.567 8.64 1.66 11.174-1.937l14.382-20.414z" fill="#e8f4fc"/><path d="m255.693 339.109c0-4.428-3.59-8.019-8.019-8.019h-30.656c-4.429 0-8.019 3.59-8.019 8.019s3.59 8.019 8.019 8.019h7.247v47.492c0 4.428 3.59 8.019 8.019 8.019 4.428 0 8.019-3.59 8.019-8.019v-47.492h7.371c4.429 0 8.019-3.59 8.019-8.019z" fill="#e8f4fc"/><g fill="#bec8f7"><path d="m221.597 214.023h138.983c4.428 0 8.019-3.59 8.019-8.019s-3.59-8.019-8.019-8.019h-138.983c-4.429 0-8.019 3.59-8.019 8.019s3.59 8.019 8.019 8.019z"/><path d="m182.39 244.866h217.397c4.429 0 8.019-3.59 8.019-8.019 0-4.428-3.59-8.019-8.019-8.019h-217.397c-4.429 0-8.019 3.59-8.019 8.019s3.59 8.019 8.019 8.019z"/><path d="m399.787 259.672h-217.397c-4.429 0-8.019 3.59-8.019 8.019s3.59 8.019 8.019 8.019h217.397c4.429 0 8.019-3.59 8.019-8.019s-3.591-8.019-8.019-8.019z"/></g><path d="m391.835 455.118h-28.263c-4.429 0-8.019 3.59-8.019 8.019 0 4.428 3.59 8.019 8.019 8.019h28.263c4.429 0 8.019-3.59 8.019-8.019s-3.591-8.019-8.019-8.019z" fill="#d3dcfb"/><g><path d="m397.04 107.072c-2.367 0-4.287 1.919-4.287 4.286v26.311c0 2.367 1.919 4.287 4.287 4.287h71.017v-34.884z" fill="#73c3f9"/></g><path d="m427.842 124.514c0-9.633 7.809-17.442 17.442-17.442h-48.244c-2.367 0-4.287 1.919-4.287 4.286v26.311c0 2.367 1.919 4.286 4.287 4.286h48.244c-9.633.001-17.442-7.808-17.442-17.441z" fill="#4fabf7"/><path d="m192.49 89.859c12.603-12.603 29.696-19.683 47.52-19.683 0 0-27.837 6.041-27.837 49.524v27.076c0 11.848-9.605 21.453-21.454 21.453h-30.298c-41.163 0-46.303 27.837-46.303 27.837 0-17.824 7.081-34.917 19.684-47.52z" fill="#e8f4fc"/></g></svg>